SplineFontDB: 3.0
FontName: ElaineSans-MediumItalic
FullName: Elaine Sans Medium Italic
FamilyName: Elaine Sans Medium
Weight: Medium
Copyright: Copyright (c) 2015 by Wei Huang. All rights reserved.
Version: 1.030;PS 001.030;hotconv 1.0.70;makeotf.lib2.5.58329
ItalicAngle: -13
UnderlinePosition: -250
UnderlineWidth: 50
Ascent: 760
Descent: 240
InvalidEm: 0
sfntRevision: 0x000107ae
LayerCount: 2
Layer: 0 1 "Back" 1
Layer: 1 1 "Fore" 0
XUID: [1021 288 1899785369 5201]
StyleMap: 0x0001
FSType: 4
OS2Version: 3
OS2_WeightWidthSlopeOnly: 0
OS2_UseTypoMetrics: 0
CreationTime: 1436215488
ModificationTime: 1543786443
PfmFamily: 81
TTFWeight: 500
TTFWidth: 5
LineGap: 0
VLineGap: 0
Panose: 0 0 6 0 0 0 0 0 0 0
OS2TypoAscent: 760
OS2TypoAOffset: 0
OS2TypoDescent: -240
OS2TypoDOffset: 0
OS2TypoLinegap: 173
OS2WinAscent: 930
OS2WinAOffset: 0
OS2WinDescent: 243
OS2WinDOffset: 0
HheadAscent: 930
HheadAOffset: 0
HheadDescent: -243
HheadDOffset: 0
OS2SubXSize: 650
OS2SubYSize: 600
OS2SubXOff: 0
OS2SubYOff: 75
OS2SupXSize: 650
OS2SupYSize: 600
OS2SupXOff: 0
OS2SupYOff: 350
OS2StrikeYSize: 50
OS2StrikeYPos: 300
OS2CapHeight: 660
OS2XHeight: 500
OS2Vendor: 'UKWN'
OS2CodePages: 20000093.00000000
OS2UnicodeRanges: 00000007.00000001.00000000.00000000
Lookup: 1 0 0 "'aalt' Access All Alternates lookup 0" { "'aalt' Access All Alternates lookup 0 subtable"  } ['aalt' ('DFLT' <'dflt' > 'grek' <'dflt' > 'latn' <'CAT ' 'MOL ' 'NLD ' 'ROM ' 'TRK ' 'dflt' > ) ]
Lookup: 3 0 0 "'aalt' Access All Alternates lookup 1" { "'aalt' Access All Alternates lookup 1 subtable"  } ['aalt' ('DFLT' <'dflt' > 'grek' <'dflt' > 'latn' <'CAT ' 'MOL ' 'NLD ' 'ROM ' 'TRK ' 'dflt' > ) ]
Lookup: 1 0 0 "'locl' Localized Forms in Latin lookup 2" { "'locl' Localized Forms in Latin lookup 2 subtable"  } ['locl' ('latn' <'TRK ' > ) ]
Lookup: 1 0 0 "'locl' Localized Forms in Latin lookup 3" { "'locl' Localized Forms in Latin lookup 3 subtable"  } ['locl' ('latn' <'TAT ' > ) ]

StartChar: .notdef
Encoding: 65536 -1 0
Width: 500
Flags: W
LayerCount: 2
Fore
SplineSet
50 0 m 1,0,-1
 202.373046875 660 l 1,1,-1
 602.373046875 660 l 1,2,-1
 450 0 l 1,3,-1
 50 0 l 1,0,-1
148.469726562 80 m 1,4,-1
 388.469726562 80 l 1,5,-1
 503.903320312 580 l 1,6,-1
 263.903320312 580 l 1,7,-1
 148.469726562 80 l 1,4,-1
EndSplineSet
EndChar

StartChar: exclam
Encoding: 33 33 4
Width: 281
GlyphClass: 2
Flags: W
LayerCount: 2
Fore
SplineSet
348.373046875 660 m 1,0,-1
 287.423828125 396 l 1,1,-1
 230.482421875 210 l 1,2,-1
 146.482421875 210 l 1,3,-1
 175.423828125 396 l 1,4,-1
 236.373046875 660 l 1,5,-1
 348.373046875 660 l 1,0,-1
170.474609375 132 m 128,-1,7
 204.474609375 132 204.474609375 132 220.47265625 112.5 c 128,-1,8
 236.470703125 93 236.470703125 93 229.083007812 61 c 128,-1,9
 221.6953125 29 221.6953125 29 197.30859375 10 c 128,-1,10
 172.921875 -9 172.921875 -9 137.921875 -9 c 0,11,12
 103.921875 -9 103.921875 -9 88.30859375 10 c 128,-1,13
 72.6953125 29 72.6953125 29 80.0830078125 61 c 128,-1,14
 87.470703125 93 87.470703125 93 111.97265625 112.5 c 128,-1,6
 136.474609375 132 136.474609375 132 170.474609375 132 c 128,-1,7
EndSplineSet
Substitution2: "'smcp' Lowercase to Small Capitals lookup 12 subtable" exclam.sc
Substitution2: "'c2sc' Capitals to Small Capitals lookup 11 subtable" exclam.sc
Substitution2: "'aalt' Access All Alternates lookup 0 subtable" exclam.sc
EndChar

StartChar: quotedbl
Encoding: 34 34 5
Width: 416
GlyphClass: 2
Flags: W
LayerCount: 2
Fore
SplineSet
339.375976562 686 m 1,0,-1
 253.2734375 430 l 1,1,-1
 175.2734375 430 l 1,2,-1
 234.375976562 686 l 1,3,-1
 339.375976562 686 l 1,0,-1
516.375976562 686 m 1,4,-1
 430.2734375 430 l 1,5,-1
 353.2734375 430 l 1,6,-1
 412.375976562 686 l 1,7,-1
 516.375976562 686 l 1,4,-1
EndSplineSet
Substitution2: "'smcp' Lowercase to Small Capitals lookup 12 subtable" quotedbl.sc
Substitution2: "'c2sc' Capitals to Small Capitals lookup 11 subtable" quotedbl.sc
Substitution2: "'aalt' Access All Alternates lookup 0 subtable" quotedbl.sc
EndChar

StartChar: numbersign
Encoding: 35 35 6
Width: 604
GlyphClass: 2
Flags: W
LayerCount: 2
Fore
SplineSet
681.118164062 412 m 1,0,-1
 567.118164062 412 l 1,1,-1
 506.178710938 252 l 1,2,-1
 599.178710938 252 l 1,3,-1
 582.325195312 179 l 1,4,-1
 478.325195312 179 l 1,5,-1
 410 0 l 1,6,-1
 331 0 l 1,7,-1
 399.325195312 179 l 1,8,-1
 251.325195312 179 l 1,9,-1
 183 0 l 1,10,-1
 104 0 l 1,11,-1
 172.325195312 179 l 1,12,-1
 59.3251953125 179 l 1,13,-1
 76.1787109375 252 l 1,14,-1
 201.178710938 252 l 1,15,-1
 262.118164062 412 l 1,16,-1
 158.118164062 412 l 1,17,-1
 174.970703125 485 l 1,18,-1
 289.970703125 485 l 1,19,-1
 356.373046875 660 l 1,20,-1
 435.373046875 660 l 1,21,-1
 367.970703125 485 l 1,22,-1
 515.970703125 485 l 1,23,-1
 583.373046875 660 l 1,24,-1
 661.373046875 660 l 1,25,-1
 594.970703125 485 l 1,26,-1
 697.970703125 485 l 1,27,-1
 681.118164062 412 l 1,0,-1
427.178710938 252 m 1,28,-1
 488.118164062 412 l 1,29,-1
 340.118164062 412 l 1,30,-1
 279.178710938 252 l 1,31,-1
 427.178710938 252 l 1,28,-1
EndSplineSet
Substitution2: "'tnum' Tabular Numbers lookup 26 subtable" numbersign.tf
Substitution2: "'aalt' Access All Alternates lookup 0 subtable" numbersign.tf
EndChar

StartChar: dollar
Encoding: 36 36 7
Width: 604
GlyphClass: 2
Flags: W
LayerCount: 2
Fore
SplineSet
435.8046875 363 m 1,0,1
 480.49609375 353 480.49609375 353 508.1875 343 c 128,-1,2
 535.87890625 333 535.87890625 333 564.876953125 313.5 c 128,-1,3
 593.875 294 593.875 294 603.487304688 262 c 128,-1,4
 613.099609375 230 613.099609375 230 602.94140625 186 c 0,5,6
 584.93359375 108 584.93359375 108 517.12109375 59 c 128,-1,7
 449.30859375 10 449.30859375 10 352.461914062 2 c 1,8,-1
 329.836914062 -96 l 1,9,-1
 252.836914062 -96 l 1,10,-1
 275.461914062 2 l 1,11,12
 105.462890625 15 105.462890625 15 78.4775390625 158 c 1,13,-1
 170.40625 214 l 1,14,15
 170.862304688 164 170.862304688 164 205.897460938 129.5 c 128,-1,16
 240.932617188 95 240.932617188 95 294.392578125 84 c 1,17,-1
 342.413085938 292 l 1,18,19
 307.260742188 300 307.260742188 300 284.376953125 307 c 128,-1,20
 261.4921875 314 261.4921875 314 234.609375 327.5 c 128,-1,21
 207.725585938 341 207.725585938 341 193.650390625 358 c 128,-1,22
 179.575195312 375 179.575195312 375 173.540039062 403 c 128,-1,23
 167.50390625 431 167.50390625 431 175.584960938 466 c 0,24,25
 193.361328125 543 193.361328125 543 261.09765625 596 c 128,-1,26
 328.833007812 649 328.833007812 649 426.911132812 658 c 1,27,-1
 449.536132812 756 l 1,28,-1
 526.536132812 756 l 1,29,-1
 503.911132812 658 l 1,30,31
 577.294921875 651 577.294921875 651 618.022460938 619.5 c 128,-1,32
 658.750976562 588 658.750976562 588 682.436523438 526 c 1,33,-1
 596.430664062 461 l 1,34,35
 584.897460938 515 584.897460938 515 558.514648438 541.5 c 128,-1,36
 532.1328125 568 532.1328125 568 484.749023438 575 c 1,37,-1
 435.8046875 363 l 1,0,1
273.200195312 473 m 0,38,39
 264.427734375 435 264.427734375 435 288.1953125 414.5 c 128,-1,40
 311.961914062 394 311.961914062 394 362.729492188 380 c 1,41,-1
 407.749023438 575 l 1,42,43
 351.1328125 568 351.1328125 568 317.130859375 542 c 128,-1,44
 283.127929688 516 283.127929688 516 273.200195312 473 c 0,38,39
371.162109375 83 m 1,45,46
 485.701171875 94 485.701171875 94 505.325195312 179 c 0,47,48
 514.560546875 219 514.560546875 219 490.408203125 240 c 128,-1,49
 466.256835938 261 466.256835938 261 415.48828125 275 c 1,50,-1
 371.162109375 83 l 1,45,46
EndSplineSet
Substitution2: "'tnum' Tabular Numbers lookup 26 subtable" dollar.tf
Substitution2: "'aalt' Access All Alternates lookup 0 subtable" dollar.tf
EndChar

StartChar: percent
Encoding: 37 37 8
Width: 880
GlyphClass: 2
Flags: W
LayerCount: 2
Fore
SplineSet
358.681640625 670 m 128,-1,1
 434.681640625 670 434.681640625 670 468.522460938 619.5 c 128,-1,2
 502.364257812 569 502.364257812 569 483.202148438 486 c 128,-1,3
 464.040039062 403 464.040039062 403 406.880859375 352.5 c 128,-1,4
 349.72265625 302 349.72265625 302 273.72265625 302 c 128,-1,5
 197.72265625 302 197.72265625 302 163.880859375 352.5 c 128,-1,6
 130.040039062 403 130.040039062 403 149.202148438 486 c 128,-1,7
 168.364257812 569 168.364257812 569 225.522460938 619.5 c 128,-1,0
 282.681640625 670 282.681640625 670 358.681640625 670 c 128,-1,1
178 0 m 1,8,-1
 762.373046875 660 l 1,9,-1
 854.373046875 660 l 1,10,-1
 271 0 l 1,11,-1
 178 0 l 1,8,-1
340.673828125 592 m 0,12,13
 302.673828125 592 302.673828125 592 275.825195312 564.5 c 128,-1,14
 248.9765625 537 248.9765625 537 237.202148438 486 c 0,15,16
 225.658203125 436 225.658203125 436 239.809570312 408.5 c 128,-1,17
 253.9609375 381 253.9609375 381 291.9609375 381 c 0,18,19
 330.9609375 381 330.9609375 381 357.809570312 408.5 c 128,-1,20
 384.658203125 436 384.658203125 436 396.202148438 486 c 0,21,22
 407.9765625 537 407.9765625 537 393.825195312 564.5 c 128,-1,23
 379.673828125 592 379.673828125 592 340.673828125 592 c 0,12,13
758.650390625 358 m 128,-1,25
 834.650390625 358 834.650390625 358 868.4921875 307.5 c 128,-1,26
 902.333007812 257 902.333007812 257 883.170898438 174 c 128,-1,27
 864.008789062 91 864.008789062 91 806.850585938 40.5 c 128,-1,28
 749.69140625 -10 749.69140625 -10 673.69140625 -10 c 128,-1,29
 597.69140625 -10 597.69140625 -10 563.850585938 40.5 c 128,-1,30
 530.008789062 91 530.008789062 91 549.170898438 174 c 128,-1,31
 568.333007812 257 568.333007812 257 625.4921875 307.5 c 128,-1,24
 682.650390625 358 682.650390625 358 758.650390625 358 c 128,-1,25
740.412109375 279 m 0,32,33
 702.412109375 279 702.412109375 279 675.563476562 251.5 c 128,-1,34
 648.71484375 224 648.71484375 224 637.170898438 174 c 0,35,36
 625.396484375 123 625.396484375 123 639.547851562 95.5 c 128,-1,37
 653.69921875 68 653.69921875 68 691.69921875 68 c 0,38,39
 730.69921875 68 730.69921875 68 757.547851562 95.5 c 128,-1,40
 784.396484375 123 784.396484375 123 796.170898438 174 c 0,41,42
 807.71484375 224 807.71484375 224 793.563476562 251.5 c 128,-1,43
 779.412109375 279 779.412109375 279 740.412109375 279 c 0,32,33
EndSplineSet
EndChar

StartChar: ampersand
Encoding: 38 38 9
Width: 630
GlyphClass: 2
Flags: W
LayerCount: 2
Fore
SplineSet
647.69921875 68 m 1,0,-1
 610.69140625 -10 l 1,1,2
 565.69140625 -10 565.69140625 -10 535.0390625 4.5 c 128,-1,3
 504.38671875 19 504.38671875 19 467.313476562 62 c 1,4,5
 371.69140625 -10 371.69140625 -10 255.69140625 -10 c 0,6,7
 159.69140625 -10 159.69140625 -10 110.2734375 38 c 128,-1,8
 60.8544921875 86 60.8544921875 86 78.8623046875 164 c 0,9,10
 107.258789062 287 107.258789062 287 275.881835938 359 c 1,11,12
 246.118164062 412 246.118164062 412 237.966796875 446 c 128,-1,13
 229.81640625 480 229.81640625 480 238.358398438 517 c 0,14,15
 252.672851562 579 252.672851562 579 307.676757812 624.5 c 128,-1,16
 362.681640625 670 362.681640625 670 442.681640625 670 c 0,17,18
 516.681640625 670 516.681640625 670 554.254882812 633.5 c 128,-1,19
 591.828125 597 591.828125 597 575.8984375 528 c 0,20,21
 562.5078125 470 562.5078125 470 523.581054688 427 c 128,-1,22
 484.653320312 384 484.653320312 384 399.418945312 344 c 1,23,24
 428.64453125 293 428.64453125 293 443.333984375 270 c 0,25,26
 483.096679688 204 483.096679688 204 499.325195312 179 c 1,27,28
 557.178710938 252 557.178710938 252 573.803710938 350 c 1,29,-1
 651.418945312 344 l 1,30,31
 627.098632812 217 627.098632812 217 536.627929688 124 c 1,32,33
 564.546875 89 564.546875 89 587.892578125 77.5 c 128,-1,34
 611.237304688 66 611.237304688 66 647.69921875 68 c 1,0,-1
423.981445312 589 m 0,35,36
 388.981445312 589 388.981445312 589 365.249023438 568.5 c 128,-1,37
 341.515625 548 341.515625 548 334.127929688 516 c 0,38,39
 328.356445312 491 328.356445312 491 334.545898438 468 c 128,-1,40
 340.736328125 445 340.736328125 445 367.654296875 397 c 1,41,42
 429.041992188 429 429.041992188 429 452.737304688 458 c 128,-1,43
 476.432617188 487 476.432617188 487 484.974609375 524 c 0,44,45
 499.981445312 589 499.981445312 589 423.981445312 589 c 0,35,36
176.478515625 171 m 0,46,47
 166.3203125 127 166.3203125 127 195.625 98 c 128,-1,48
 224.9296875 69 224.9296875 69 276.9296875 69 c 0,49,50
 356.9296875 69 356.9296875 69 428.549804688 115 c 1,51,52
 393.862304688 164 393.862304688 164 366.482421875 210 c 0,53,54
 322.104492188 282 322.104492188 282 309.72265625 302 c 1,55,56
 240.1796875 265 240.1796875 265 212.485351562 236 c 128,-1,57
 184.790039062 207 184.790039062 207 176.478515625 171 c 0,46,47
EndSplineSet
Substitution2: "'smcp' Lowercase to Small Capitals lookup 12 subtable" ampersand.sc
Substitution2: "'c2sc' Capitals to Small Capitals lookup 11 subtable" ampersand.sc
Substitution2: "'aalt' Access All Alternates lookup 0 subtable" ampersand.sc
EndChar

StartChar: quotesingle
Encoding: 39 39 10
Width: 239
GlyphClass: 2
Flags: W
LayerCount: 2
Fore
SplineSet
339.375976562 686 m 1,0,-1
 253.2734375 430 l 1,1,-1
 175.2734375 430 l 1,2,-1
 234.375976562 686 l 1,3,-1
 339.375976562 686 l 1,0,-1
EndSplineSet
Substitution2: "'smcp' Lowercase to Small Capitals lookup 12 subtable" quotesingle.sc
Substitution2: "'c2sc' Capitals to Small Capitals lookup 11 subtable" quotesingle.sc
Substitution2: "'aalt' Access All Alternates lookup 0 subtable" quotesingle.sc
EndChar

StartChar: parenleft
Encoding: 40 40 11
Width: 362
GlyphClass: 2
Flags: W
LayerCount: 2
Fore
SplineSet
455.458984375 747 m 1,0,-1
 498.530273438 691 l 1,1,2
 384.674804688 605 384.674804688 605 323.243164062 510 c 128,-1,3
 261.810546875 415 261.810546875 415 230.181640625 278 c 128,-1,4
 198.552734375 141 198.552734375 141 216.235351562 46.5 c 128,-1,5
 233.91796875 -48 233.91796875 -48 308.063476562 -134 c 1,6,-1
 239.134765625 -190 l 1,7,8
 60.2294921875 -12 60.2294921875 -12 127.181640625 278 c 0,9,10
 194.364257812 569 194.364257812 569 455.458984375 747 c 1,0,-1
EndSplineSet
Substitution2: "'case' Case-Sensitive Forms lookup 29 subtable" parenleft.case
Substitution2: "'sups' Superscript lookup 15 subtable" uni207D
Substitution2: "'subs' Subscript lookup 14 subtable" uni208D
Substitution2: "'sinf' Scientific Inferiors lookup 13 subtable" uni208D
AlternateSubs2: "'aalt' Access All Alternates lookup 1 subtable" uni208D uni207D parenleft.case
EndChar

StartChar: parenright
Encoding: 41 41 12
Width: 362
GlyphClass: 2
Flags: W
LayerCount: 2
Fore
SplineSet
252.458984375 747 m 1,0,1
 430.364257812 569 430.364257812 569 363.181640625 278 c 0,2,3
 296.229492188 -12 296.229492188 -12 36.134765625 -190 c 1,4,-1
 -7.9365234375 -134 l 1,5,6
 105.6875 -49 105.6875 -49 167.120117188 46 c 128,-1,7
 228.552734375 141 228.552734375 141 260.181640625 278 c 128,-1,8
 291.810546875 415 291.810546875 415 274.358398438 510.5 c 128,-1,9
 256.90625 606 256.90625 606 182.530273438 691 c 1,10,-1
 252.458984375 747 l 1,0,1
EndSplineSet
Substitution2: "'case' Case-Sensitive Forms lookup 29 subtable" parenright.case
Substitution2: "'sups' Superscript lookup 15 subtable" uni207E
Substitution2: "'subs' Subscript lookup 14 subtable" uni208E
Substitution2: "'sinf' Scientific Inferiors lookup 13 subtable" uni208E
AlternateSubs2: "'aalt' Access All Alternates lookup 1 subtable" uni208E uni207E parenright.case
EndChar

StartChar: asterisk
Encoding: 42 42 13
Width: 577
GlyphClass: 2
Flags: W
LayerCount: 2
Fore
SplineSet
445.662109375 475 m 1,0,-1
 485.657226562 423 l 1,1,-1
 536.108398438 321 l 1,2,-1
 459.02734375 273 l 1,3,-1
 408.575195312 375 l 1,4,-1
 389.58203125 440 l 1,5,-1
 340.575195312 375 l 1,6,-1
 244.02734375 273 l 1,7,-1
 189.108398438 321 l 1,8,-1
 286.657226562 423 l 1,9,-1
 349.662109375 475 l 1,10,-1
 280.6640625 488 l 1,11,-1
 170.436523438 526 l 1,12,-1
 212.213867188 603 l 1,13,-1
 323.209960938 564 l 1,14,-1
 381.822265625 532 l 1,15,-1
 387.444335938 604 l 1,16,-1
 415.534179688 730 l 1,17,-1
 498.534179688 730 l 1,18,-1
 468.444335938 604 l 1,19,-1
 440.822265625 532 l 1,20,-1
 514.209960938 564 l 1,21,-1
 643.213867188 603 l 1,22,-1
 649.436523438 526 l 1,23,-1
 521.6640625 488 l 1,24,-1
 445.662109375 475 l 1,0,-1
EndSplineSet
EndChar

StartChar: plus
Encoding: 43 43 14
Width: 604
GlyphClass: 2
Flags: W
LayerCount: 2
Fore
SplineSet
632.036132812 364 m 1,0,-1
 611.48828125 275 l 1,1,-1
 412.48828125 275 l 1,2,-1
 364.237304688 66 l 1,3,-1
 271.237304688 66 l 1,4,-1
 319.48828125 275 l 1,5,-1
 119.48828125 275 l 1,6,-1
 140.036132812 364 l 1,7,-1
 340.036132812 364 l 1,8,-1
 388.056640625 572 l 1,9,-1
 481.056640625 572 l 1,10,-1
 433.036132812 364 l 1,11,-1
 632.036132812 364 l 1,0,-1
EndSplineSet
Substitution2: "'sups' Superscript lookup 15 subtable" uni207A
Substitution2: "'subs' Subscript lookup 14 subtable" uni208A
Substitution2: "'sinf' Scientific Inferiors lookup 13 subtable" uni208A
AlternateSubs2: "'aalt' Access All Alternates lookup 1 subtable" uni208A uni207A
EndChar

StartChar: comma
Encoding: 44 44 15
Width: 303
GlyphClass: 2
Flags: W
LayerCount: 2
Fore
SplineSet
183.166992188 135 m 0,0,1
 223.166992188 135 223.166992188 135 238.856445312 105.5 c 128,-1,2
 254.545898438 76 254.545898438 76 243.6953125 29 c 0,3,4
 230.536132812 -28 230.536132812 -28 189.569335938 -75.5 c 128,-1,5
 148.603515625 -123 148.603515625 -123 84.3701171875 -150 c 1,6,-1
 42.5283203125 -106 l 1,7,8
 86.759765625 -92 86.759765625 -92 121.109375 -64.5 c 128,-1,9
 155.458007812 -37 155.458007812 -37 172.307617188 -3 c 1,10,-1
 168.76953125 -1 l 1,11,12
 156.921875 -9 156.921875 -9 137.921875 -9 c 0,13,14
 112.921875 -9 112.921875 -9 97.693359375 9.5 c 128,-1,15
 82.4638671875 28 82.4638671875 28 90.0830078125 61 c 0,16,17
 97.470703125 93 97.470703125 93 124.319335938 114 c 128,-1,18
 151.166992188 135 151.166992188 135 183.166992188 135 c 0,0,1
EndSplineSet
Substitution2: "'tnum' Tabular Numbers lookup 26 subtable" comma.tf
Substitution2: "'sups' Superscript lookup 15 subtable" commasuperior
Substitution2: "'subs' Subscript lookup 14 subtable" commainferior
Substitution2: "'sinf' Scientific Inferiors lookup 13 subtable" commainferior
AlternateSubs2: "'aalt' Access All Alternates lookup 1 subtable" commainferior commasuperior comma.tf
EndChar

StartChar: hyphen
Encoding: 45 45 16
Width: 515
GlyphClass: 2
Flags: W
LayerCount: 2
Fore
SplineSet
500.26171875 313 m 1,0,-1
 477.40625 214 l 1,1,-1
 136.40625 214 l 1,2,-1
 159.26171875 313 l 1,3,-1
 500.26171875 313 l 1,0,-1
EndSplineSet
Substitution2: "'case' Case-Sensitive Forms lookup 29 subtable" hyphen.case
Substitution2: "'sups' Superscript lookup 15 subtable" hyphensuperior
Substitution2: "'subs' Subscript lookup 14 subtable" hypheninferior
Substitution2: "'sinf' Scientific Inferiors lookup 13 subtable" hypheninferior
AlternateSubs2: "'aalt' Access All Alternates lookup 1 subtable" hypheninferior hyphensuperior hyphen.case
EndChar

StartChar: period
Encoding: 46 46 17
Width: 302
GlyphClass: 2
Flags: W
LayerCount: 2
Fore
SplineSet
182.166992188 135 m 128,-1,1
 216.166992188 135 216.166992188 135 232.165039062 115.5 c 128,-1,2
 248.163085938 96 248.163085938 96 240.544921875 63 c 128,-1,3
 232.92578125 30 232.92578125 30 207.80859375 10 c 128,-1,4
 182.69140625 -10 182.69140625 -10 148.69140625 -10 c 128,-1,5
 114.69140625 -10 114.69140625 -10 98.80859375 10 c 128,-1,6
 82.92578125 30 82.92578125 30 90.544921875 63 c 128,-1,7
 98.1630859375 96 98.1630859375 96 123.165039062 115.5 c 128,-1,0
 148.166992188 135 148.166992188 135 182.166992188 135 c 128,-1,1
EndSplineSet
Substitution2: "'tnum' Tabular Numbers lookup 26 subtable" period.tf
Substitution2: "'sups' Superscript lookup 15 subtable" periodsuperior
Substitution2: "'subs' Subscript lookup 14 subtable" periodinferior
Substitution2: "'sinf' Scientific Inferiors lookup 13 subtable" periodinferior
AlternateSubs2: "'aalt' Access All Alternates lookup 1 subtable" periodinferior periodsuperior period.tf
EndChar

StartChar: slash
Encoding: 47 47 18
Width: 447
GlyphClass: 2
Flags: W
LayerCount: 2
Fore
SplineSet
589.379882812 725 m 1,0,-1
 107.838867188 -70 l 1,1,-1
 7.8388671875 -70 l 1,2,-1
 489.379882812 725 l 1,3,-1
 589.379882812 725 l 1,0,-1
EndSplineSet
Substitution2: "'frac' Diagonal Fractions lookup 18 subtable" fraction
Substitution2: "'aalt' Access All Alternates lookup 0 subtable" fraction
EndChar

StartChar: zero
Encoding: 48 48 19
Width: 604
GlyphClass: 2
Flags: W
LayerCount: 2
Fore
SplineSet
299.69140625 -10 m 128,-1,1
 175.69140625 -10 175.69140625 -10 131.661132812 76.5 c 128,-1,2
 87.6318359375 163 87.6318359375 163 126.186523438 330 c 128,-1,3
 164.741210938 497 164.741210938 497 248.711914062 583.5 c 128,-1,4
 332.681640625 670 332.681640625 670 456.681640625 670 c 128,-1,5
 580.681640625 670 580.681640625 670 624.711914062 583.5 c 128,-1,6
 668.741210938 497 668.741210938 497 630.186523438 330 c 128,-1,7
 591.631835938 163 591.631835938 163 507.661132812 76.5 c 128,-1,0
 423.69140625 -10 423.69140625 -10 299.69140625 -10 c 128,-1,1
320.700195312 81 m 128,-1,9
 463.700195312 81 463.700195312 81 521.186523438 330 c 128,-1,10
 578.672851562 579 578.672851562 579 435.672851562 579 c 128,-1,11
 292.672851562 579 292.672851562 579 235.186523438 330 c 128,-1,8
 177.700195312 81 177.700195312 81 320.700195312 81 c 128,-1,9
EndSplineSet
Substitution2: "'zero' Slashed Zero lookup 28 subtable" zero.zero
Substitution2: "'onum' Oldstyle Figures lookup 27 subtable" zero.osf
Substitution2: "'tnum' Tabular Numbers lookup 26 subtable" zero.tf
Substitution2: "'frac' Diagonal Fractions lookup 19 subtable" zero.numr
Substitution2: "'dnom' Denominators lookup 17 subtable" zero.dnom
Substitution2: "'numr' Numerators lookup 16 subtable" zero.numr
Substitution2: "'sups' Superscript lookup 15 subtable" uni2070
Substitution2: "'subs' Subscript lookup 14 subtable" uni2080
Substitution2: "'sinf' Scientific Inferiors lookup 13 subtable" uni2080
Substitution2: "'smcp' Lowercase to Small Capitals lookup 12 subtable" zero.sc
Substitution2: "'c2sc' Capitals to Small Capitals lookup 11 subtable" zero.sc
AlternateSubs2: "'aalt' Access All Alternates lookup 1 subtable" zero.sc uni2080 uni2070 zero.numr zero.dnom zero.tf zero.osf zero.zero
EndChar

StartChar: one
Encoding: 49 49 20
Width: 604
GlyphClass: 2
Flags: W
LayerCount: 2
Fore
SplineSet
415.546875 89 m 1,0,-1
 587.546875 89 l 1,1,-1
 567 0 l 1,2,-1
 99 0 l 1,3,-1
 119.546875 89 l 1,4,-1
 312.546875 89 l 1,5,-1
 404.6640625 488 l 2,6,7
 408.588867188 505 408.588867188 505 420.28515625 547 c 1,8,9
 321.200195312 473 321.200195312 473 213.352539062 452 c 1,10,-1
 214.361328125 543 l 1,11,12
 259.747070312 549 259.747070312 549 341.51953125 587 c 128,-1,13
 423.29296875 625 423.29296875 625 457.373046875 660 c 1,14,-1
 547.373046875 660 l 1,15,-1
 415.546875 89 l 1,0,-1
EndSplineSet
Substitution2: "'onum' Oldstyle Figures lookup 27 subtable" one.osf
Substitution2: "'tnum' Tabular Numbers lookup 26 subtable" one.tf
Substitution2: "'nalt' Alternate Annotation Forms lookup 23 subtable" uni2780
Substitution2: "'frac' Diagonal Fractions lookup 19 subtable" one.numr
Substitution2: "'dnom' Denominators lookup 17 subtable" one.dnom
Substitution2: "'numr' Numerators lookup 16 subtable" one.numr
Substitution2: "'sups' Superscript lookup 15 subtable" uni00B9
Substitution2: "'subs' Subscript lookup 14 subtable" uni2081
Substitution2: "'sinf' Scientific Inferiors lookup 13 subtable" uni2081
Substitution2: "'smcp' Lowercase to Small Capitals lookup 12 subtable" one.sc
Substitution2: "'c2sc' Capitals to Small Capitals lookup 11 subtable" one.sc
AlternateSubs2: "'aalt' Access All Alternates lookup 1 subtable" one.sc uni2081 uni00B9 one.numr one.dnom uni2780 one.tf one.osf
EndChar

StartChar: two
Encoding: 50 50 21
Width: 604
GlyphClass: 2
Flags: W
LayerCount: 2
Fore
SplineSet
75 0 m 1,0,-1
 93.23828125 79 l 1,1,2
 315.40625 214 315.40625 214 407.106445312 295 c 128,-1,3
 498.806640625 376 498.806640625 376 517.737304688 458 c 0,4,5
 529.973632812 511 529.973632812 511 504.092773438 544 c 128,-1,6
 478.2109375 577 478.2109375 577 421.2109375 577 c 0,7,8
 359.2109375 577 359.2109375 577 312.745117188 536 c 128,-1,9
 266.279296875 495 266.279296875 495 244.426757812 422 c 1,10,-1
 161.353515625 465 l 1,11,12
 193.286132812 560 193.286132812 560 268.984375 615 c 128,-1,13
 344.681640625 670 344.681640625 670 447.681640625 670 c 0,14,15
 554.681640625 670 554.681640625 670 602.060546875 611 c 128,-1,16
 649.439453125 552 649.439453125 552 628.661132812 462 c 0,17,18
 606.728515625 367 606.728515625 367 516.374023438 281 c 128,-1,19
 426.01953125 195 426.01953125 195 237.778320312 90 c 1,20,-1
 237.31640625 88 l 1,21,22
 290.240234375 92 290.240234375 92 348.240234375 92 c 2,23,-1
 556.240234375 92 l 1,24,-1
 535 0 l 1,25,-1
 75 0 l 1,0,-1
EndSplineSet
Substitution2: "'onum' Oldstyle Figures lookup 27 subtable" two.osf
Substitution2: "'tnum' Tabular Numbers lookup 26 subtable" two.tf
Substitution2: "'nalt' Alternate Annotation Forms lookup 23 subtable" uni2781
Substitution2: "'frac' Diagonal Fractions lookup 19 subtable" two.numr
Substitution2: "'dnom' Denominators lookup 17 subtable" two.dnom
Substitution2: "'numr' Numerators lookup 16 subtable" two.numr
Substitution2: "'sups' Superscript lookup 15 subtable" uni00B2
Substitution2: "'subs' Subscript lookup 14 subtable" uni2082
Substitution2: "'sinf' Scientific Inferiors lookup 13 subtable" uni2082
Substitution2: "'smcp' Lowercase to Small Capitals lookup 12 subtable" two.sc
Substitution2: "'c2sc' Capitals to Small Capitals lookup 11 subtable" two.sc
AlternateSubs2: "'aalt' Access All Alternates lookup 1 subtable" two.sc uni2082 uni00B2 two.numr two.dnom uni2781 two.tf two.osf
EndChar

StartChar: three
Encoding: 51 51 22
Width: 604
GlyphClass: 2
Flags: W
LayerCount: 2
Fore
SplineSet
461.681640625 670 m 0,0,1
 562.681640625 670 562.681640625 670 607.638671875 620 c 128,-1,2
 652.594726562 570 652.594726562 570 635.048828125 494 c 0,3,4
 618.887695312 424 618.887695312 424 569.999023438 379 c 128,-1,5
 521.110351562 334 521.110351562 334 474.110351562 334 c 1,6,-1
 473.6484375 332 l 1,7,8
 531.6484375 332 531.6484375 332 562.3359375 289.5 c 128,-1,9
 593.024414062 247 593.024414062 247 577.094726562 178 c 0,10,11
 558.163085938 96 558.163085938 96 479.427734375 43 c 128,-1,12
 400.69140625 -10 400.69140625 -10 294.69140625 -10 c 0,13,14
 115.69140625 -10 115.69140625 -10 94.6298828125 150 c 1,15,-1
 206.942382812 199 l 1,16,17
 206.321289062 140 206.321289062 140 231.625976562 111 c 128,-1,18
 256.931640625 82 256.931640625 82 318.931640625 82 c 0,19,20
 378.931640625 82 378.931640625 82 420.47265625 112.5 c 128,-1,21
 462.013671875 143 462.013671875 143 472.327148438 192 c 0,22,23
 483.5625 245 483.5625 245 456.141601562 267 c 128,-1,24
 428.720703125 289 428.720703125 289 359.720703125 289 c 2,25,-1
 329.720703125 289 l 1,26,-1
 349.344726562 374 l 1,27,-1
 376.344726562 374 l 2,28,29
 498.344726562 374 498.344726562 374 522.200195312 473 c 0,30,31
 534.974609375 524 534.974609375 524 512.708007812 551 c 128,-1,32
 490.44140625 578 490.44140625 578 438.44140625 578 c 0,33,34
 331.44140625 578 331.44140625 578 289.81640625 480 c 1,35,-1
 202.051757812 520 l 1,36,37
 239.673828125 592 239.673828125 592 309.177734375 631 c 128,-1,38
 378.681640625 670 378.681640625 670 461.681640625 670 c 0,0,1
EndSplineSet
Substitution2: "'onum' Oldstyle Figures lookup 27 subtable" three.osf
Substitution2: "'tnum' Tabular Numbers lookup 26 subtable" three.tf
Substitution2: "'nalt' Alternate Annotation Forms lookup 23 subtable" uni2782
Substitution2: "'frac' Diagonal Fractions lookup 19 subtable" three.numr
Substitution2: "'dnom' Denominators lookup 17 subtable" three.dnom
Substitution2: "'numr' Numerators lookup 16 subtable" three.numr
Substitution2: "'sups' Superscript lookup 15 subtable" uni00B3
Substitution2: "'subs' Subscript lookup 14 subtable" uni2083
Substitution2: "'sinf' Scientific Inferiors lookup 13 subtable" uni2083
Substitution2: "'smcp' Lowercase to Small Capitals lookup 12 subtable" three.sc
Substitution2: "'c2sc' Capitals to Small Capitals lookup 11 subtable" three.sc
AlternateSubs2: "'aalt' Access All Alternates lookup 1 subtable" three.sc uni2083 uni00B3 three.numr three.dnom uni2782 three.tf three.osf
EndChar

StartChar: four
Encoding: 52 52 23
Width: 604
GlyphClass: 2
Flags: W
LayerCount: 2
Fore
SplineSet
348 0 m 1,0,-1
 385.400390625 162 l 1,1,-1
 74.400390625 162 l 1,2,-1
 90.099609375 230 l 1,3,-1
 467.373046875 660 l 1,4,-1
 601.373046875 660 l 1,5,-1
 506.254882812 248 l 1,6,-1
 628.254882812 248 l 1,7,-1
 608.400390625 162 l 1,8,-1
 486.400390625 162 l 1,9,-1
 449 0 l 1,10,-1
 348 0 l 1,0,-1
196.254882812 248 m 1,11,-1
 407.254882812 248 l 1,12,-1
 450.658203125 436 l 2,13,14
 466.357421875 504 466.357421875 504 485.98046875 576 c 1,15,-1
 483.98046875 576 l 1,16,17
 455.514648438 535 455.514648438 535 405.35546875 478 c 2,18,-1
 196.254882812 248 l 1,11,-1
EndSplineSet
Substitution2: "'onum' Oldstyle Figures lookup 27 subtable" four.osf
Substitution2: "'tnum' Tabular Numbers lookup 26 subtable" four.tf
Substitution2: "'nalt' Alternate Annotation Forms lookup 23 subtable" uni2783
Substitution2: "'frac' Diagonal Fractions lookup 19 subtable" four.numr
Substitution2: "'dnom' Denominators lookup 17 subtable" four.dnom
Substitution2: "'numr' Numerators lookup 16 subtable" four.numr
Substitution2: "'sups' Superscript lookup 15 subtable" uni2074
Substitution2: "'subs' Subscript lookup 14 subtable" uni2084
Substitution2: "'sinf' Scientific Inferiors lookup 13 subtable" uni2084
Substitution2: "'smcp' Lowercase to Small Capitals lookup 12 subtable" four.sc
Substitution2: "'c2sc' Capitals to Small Capitals lookup 11 subtable" four.sc
AlternateSubs2: "'aalt' Access All Alternates lookup 1 subtable" four.sc uni2084 uni2074 four.numr four.dnom uni2783 four.tf four.osf
EndChar

StartChar: five
Encoding: 53 53 24
Width: 604
GlyphClass: 2
Flags: W
LayerCount: 2
Fore
SplineSet
429.887695312 424 m 0,0,1
 524.887695312 424 524.887695312 424 567.61328125 366.5 c 128,-1,2
 610.337890625 309 610.337890625 309 588.63671875 215 c 0,3,4
 563.93359375 108 563.93359375 108 486.8125 49 c 128,-1,5
 409.69140625 -10 409.69140625 -10 301.69140625 -10 c 0,6,7
 130.69140625 -10 130.69140625 -10 97.1669921875 135 c 1,8,-1
 209.865234375 190 l 1,9,10
 212.3984375 136 212.3984375 136 236.048828125 108.5 c 128,-1,11
 259.700195312 81 259.700195312 81 320.700195312 81 c 0,12,13
 382.700195312 81 382.700195312 81 426.049804688 115 c 128,-1,14
 469.399414062 149 469.399414062 149 483.250976562 209 c 0,15,16
 496.565429688 271 496.565429688 271 471.068359375 303.5 c 128,-1,17
 445.571289062 336 445.571289062 336 383.571289062 336 c 0,18,19
 290.571289062 336 290.571289062 336 236.412109375 279 c 1,20,-1
 148.797851562 285 l 1,21,-1
 276.373046875 660 l 1,22,-1
 659.373046875 660 l 1,23,-1
 638.1328125 568 l 1,24,-1
 340.1328125 568 l 1,25,-1
 274.883789062 385 l 2,26,27
 274.19140625 382 274.19140625 382 272.037109375 377 c 128,-1,28
 269.8828125 372 269.8828125 372 269.65234375 371 c 2,29,-1
 270.65234375 371 l 1,30,31
 332.887695312 424 332.887695312 424 429.887695312 424 c 0,0,1
EndSplineSet
Substitution2: "'onum' Oldstyle Figures lookup 27 subtable" five.osf
Substitution2: "'tnum' Tabular Numbers lookup 26 subtable" five.tf
Substitution2: "'nalt' Alternate Annotation Forms lookup 23 subtable" uni2784
Substitution2: "'frac' Diagonal Fractions lookup 19 subtable" five.numr
Substitution2: "'dnom' Denominators lookup 17 subtable" five.dnom
Substitution2: "'numr' Numerators lookup 16 subtable" five.numr
Substitution2: "'sups' Superscript lookup 15 subtable" uni2075
Substitution2: "'subs' Subscript lookup 14 subtable" uni2085
Substitution2: "'sinf' Scientific Inferiors lookup 13 subtable" uni2085
Substitution2: "'smcp' Lowercase to Small Capitals lookup 12 subtable" five.sc
Substitution2: "'c2sc' Capitals to Small Capitals lookup 11 subtable" five.sc
AlternateSubs2: "'aalt' Access All Alternates lookup 1 subtable" five.sc uni2085 uni2075 five.numr five.dnom uni2784 five.tf five.osf
EndChar

StartChar: six
Encoding: 54 54 25
Width: 604
GlyphClass: 2
Flags: W
LayerCount: 2
Fore
SplineSet
484.681640625 670 m 0,0,1
 564.681640625 670 564.681640625 670 609.947265625 636.5 c 128,-1,2
 655.213867188 603 655.213867188 603 668.12890625 529 c 1,3,-1
 563.740234375 484 l 1,4,5
 556.2109375 577 556.2109375 577 456.2109375 577 c 0,6,7
 385.2109375 577 385.2109375 577 324.088867188 505 c 128,-1,8
 262.965820312 433 262.965820312 433 237.5703125 323 c 2,9,-1
 233.415039062 305 l 1,10,-1
 237.415039062 305 l 1,11,12
 265.881835938 359 265.881835938 359 322.4609375 387.5 c 128,-1,13
 379.041015625 416 379.041015625 416 438.041015625 416 c 0,14,15
 536.041015625 416 536.041015625 416 582.266601562 358.5 c 128,-1,16
 628.491210938 301 628.491210938 301 606.328125 205 c 0,17,18
 583.471679688 106 583.471679688 106 507.58203125 48 c 128,-1,19
 431.69140625 -10 431.69140625 -10 324.69140625 -10 c 0,20,21
 198.69140625 -10 198.69140625 -10 151.931640625 82 c 128,-1,22
 105.170898438 174 105.170898438 174 141.186523438 330 c 0,23,24
 178.818359375 493 178.818359375 493 273.25 581.5 c 128,-1,25
 367.681640625 670 367.681640625 670 484.681640625 670 c 0,0,1
400.494140625 327 m 0,26,27
 342.494140625 327 342.494140625 327 299.759765625 293.5 c 128,-1,28
 257.025390625 260 257.025390625 260 244.55859375 206 c 0,29,30
 231.629882812 150 231.629882812 150 258.780273438 116 c 128,-1,31
 285.931640625 82 285.931640625 82 343.931640625 82 c 0,32,33
 404.931640625 82 404.931640625 82 445.934570312 114.5 c 128,-1,34
 486.9375 147 486.9375 147 500.55859375 206 c 0,35,36
 513.71875 263 513.71875 263 487.106445312 295 c 128,-1,37
 460.494140625 327 460.494140625 327 400.494140625 327 c 0,26,27
EndSplineSet
Substitution2: "'onum' Oldstyle Figures lookup 27 subtable" six.osf
Substitution2: "'tnum' Tabular Numbers lookup 26 subtable" six.tf
Substitution2: "'nalt' Alternate Annotation Forms lookup 23 subtable" uni2785
Substitution2: "'frac' Diagonal Fractions lookup 19 subtable" six.numr
Substitution2: "'dnom' Denominators lookup 17 subtable" six.dnom
Substitution2: "'numr' Numerators lookup 16 subtable" six.numr
Substitution2: "'sups' Superscript lookup 15 subtable" uni2076
Substitution2: "'subs' Subscript lookup 14 subtable" uni2086
Substitution2: "'sinf' Scientific Inferiors lookup 13 subtable" uni2086
Substitution2: "'smcp' Lowercase to Small Capitals lookup 12 subtable" six.sc
Substitution2: "'c2sc' Capitals to Small Capitals lookup 11 subtable" six.sc
AlternateSubs2: "'aalt' Access All Alternates lookup 1 subtable" six.sc uni2086 uni2076 six.numr six.dnom uni2785 six.tf six.osf
EndChar

StartChar: seven
Encoding: 55 55 26
Width: 604
GlyphClass: 2
Flags: W
LayerCount: 2
Fore
SplineSet
200.373046875 660 m 1,0,-1
 717.373046875 660 l 1,1,-1
 696.826171875 571 l 1,2,3
 540.8125 441 540.8125 441 452.030273438 305.5 c 128,-1,4
 363.248046875 170 363.248046875 170 324 0 c 1,5,-1
 215 0 l 1,6,7
 289.108398438 321 289.108398438 321 586.90234375 567 c 1,8,-1
 178.90234375 567 l 1,9,-1
 200.373046875 660 l 1,0,-1
EndSplineSet
Substitution2: "'onum' Oldstyle Figures lookup 27 subtable" seven.osf
Substitution2: "'tnum' Tabular Numbers lookup 26 subtable" seven.tf
Substitution2: "'nalt' Alternate Annotation Forms lookup 23 subtable" uni2786
Substitution2: "'frac' Diagonal Fractions lookup 19 subtable" seven.numr
Substitution2: "'dnom' Denominators lookup 17 subtable" seven.dnom
Substitution2: "'numr' Numerators lookup 16 subtable" seven.numr
Substitution2: "'sups' Superscript lookup 15 subtable" uni2077
Substitution2: "'subs' Subscript lookup 14 subtable" uni2087
Substitution2: "'sinf' Scientific Inferiors lookup 13 subtable" uni2087
Substitution2: "'smcp' Lowercase to Small Capitals lookup 12 subtable" seven.sc
Substitution2: "'c2sc' Capitals to Small Capitals lookup 11 subtable" seven.sc
AlternateSubs2: "'aalt' Access All Alternates lookup 1 subtable" seven.sc uni2087 uni2077 seven.numr seven.dnom uni2786 seven.tf seven.osf
EndChar

StartChar: eight
Encoding: 56 56 27
Width: 604
GlyphClass: 2
Flags: W
LayerCount: 2
Fore
SplineSet
456.451171875 669 m 128,-1,1
 554.451171875 669 554.451171875 669 601.369140625 621 c 128,-1,2
 648.287109375 573 648.287109375 573 629.586914062 492 c 0,3,4
 618.043945312 442 618.043945312 442 584.155273438 403.5 c 128,-1,5
 550.266601562 365 550.266601562 365 501.649414062 345 c 1,6,-1
 501.418945312 344 l 1,7,8
 552.5703125 323 552.5703125 323 574.758789062 280.5 c 128,-1,9
 596.946289062 238 596.946289062 238 583.325195312 179 c 0,10,11
 563.240234375 92 563.240234375 92 486.465820312 41 c 128,-1,12
 409.69140625 -10 409.69140625 -10 299.69140625 -10 c 128,-1,13
 189.69140625 -10 189.69140625 -10 136.465820312 41 c 128,-1,14
 83.240234375 92 83.240234375 92 103.325195312 179 c 0,15,16
 116.715820312 237 116.715820312 237 158.643554688 280 c 128,-1,17
 200.5703125 323 200.5703125 323 262.418945312 344 c 1,18,-1
 262.649414062 345 l 1,19,20
 223.036132812 364 223.036132812 364 206.424804688 402.5 c 128,-1,21
 189.8125 441 189.8125 441 201.586914062 492 c 0,22,23
 220.287109375 573 220.287109375 573 289.369140625 621 c 128,-1,0
 358.451171875 669 358.451171875 669 456.451171875 669 c 128,-1,1
435.672851562 579 m 128,-1,25
 384.672851562 579 384.672851562 579 349.28515625 553.5 c 128,-1,26
 313.8984375 528 313.8984375 528 303.278320312 482 c 0,27,28
 292.889648438 437 292.889648438 437 317.001953125 411.5 c 128,-1,29
 341.115234375 386 341.115234375 386 391.115234375 386 c 128,-1,30
 441.115234375 386 441.115234375 386 477.001953125 411.5 c 128,-1,31
 512.889648438 437 512.889648438 437 523.278320312 482 c 0,32,33
 533.8984375 528 533.8984375 528 510.28515625 553.5 c 128,-1,24
 486.672851562 579 486.672851562 579 435.672851562 579 c 128,-1,25
320.469726562 80 m 128,-1,35
 382.469726562 80 382.469726562 80 425.165039062 109 c 128,-1,36
 467.859375 138 467.859375 138 479.633789062 189 c 128,-1,37
 491.408203125 240 491.408203125 240 462.21875 269.5 c 128,-1,38
 433.029296875 299 433.029296875 299 371.029296875 299 c 0,39,40
 310.029296875 299 310.029296875 299 266.71875 269.5 c 128,-1,41
 223.408203125 240 223.408203125 240 211.633789062 189 c 128,-1,42
 199.859375 138 199.859375 138 229.165039062 109 c 128,-1,34
 258.469726562 80 258.469726562 80 320.469726562 80 c 128,-1,35
EndSplineSet
Substitution2: "'onum' Oldstyle Figures lookup 27 subtable" eight.osf
Substitution2: "'tnum' Tabular Numbers lookup 26 subtable" eight.tf
Substitution2: "'nalt' Alternate Annotation Forms lookup 23 subtable" uni2787
Substitution2: "'frac' Diagonal Fractions lookup 19 subtable" eight.numr
Substitution2: "'dnom' Denominators lookup 17 subtable" eight.dnom
Substitution2: "'numr' Numerators lookup 16 subtable" eight.numr
Substitution2: "'sups' Superscript lookup 15 subtable" uni2078
Substitution2: "'subs' Subscript lookup 14 subtable" uni2088
Substitution2: "'sinf' Scientific Inferiors lookup 13 subtable" uni2088
Substitution2: "'smcp' Lowercase to Small Capitals lookup 12 subtable" eight.sc
Substitution2: "'c2sc' Capitals to Small Capitals lookup 11 subtable" eight.sc
AlternateSubs2: "'aalt' Access All Alternates lookup 1 subtable" eight.sc uni2088 uni2078 eight.numr eight.dnom uni2787 eight.tf eight.osf
EndChar

StartChar: nine
Encoding: 57 57 28
Width: 604
GlyphClass: 2
Flags: W
LayerCount: 2
Fore
SplineSet
439.681640625 670 m 0,0,1
 563.681640625 670 563.681640625 670 610.557617188 578.5 c 128,-1,2
 657.432617188 487 657.432617188 487 620.956054688 329 c 0,3,4
 582.169921875 161 582.169921875 161 496.430664062 75.5 c 128,-1,5
 410.69140625 -10 410.69140625 -10 282.69140625 -10 c 0,6,7
 106.69140625 -10 106.69140625 -10 83.859375 138 c 1,8,-1
 196.7109375 185 l 1,9,10
 199.705078125 133 199.705078125 133 222.318359375 107.5 c 128,-1,11
 244.931640625 82 244.931640625 82 305.931640625 82 c 0,12,13
 392.931640625 82 392.931640625 82 445.784179688 148.5 c 128,-1,14
 498.63671875 215 498.63671875 215 527.95703125 342 c 2,15,-1
 530.49609375 353 l 1,16,-1
 526.49609375 353 l 1,17,18
 497.875 294 497.875 294 443.756835938 267.5 c 128,-1,19
 389.639648438 241 389.639648438 241 325.408203125 240 c 0,20,21
 227.177734375 239 227.177734375 239 180.067382812 297 c 128,-1,22
 132.958007812 355 132.958007812 355 155.583007812 453 c 0,23,24
 178.669921875 553 178.669921875 553 255.17578125 611.5 c 128,-1,25
 331.681640625 670 331.681640625 670 439.681640625 670 c 0,0,1
417.98046875 576 m 0,26,27
 356.98046875 576 356.98046875 576 315.9765625 543.5 c 128,-1,28
 274.973632812 511 274.973632812 511 261.352539062 452 c 0,29,30
 248.193359375 395 248.193359375 395 274.8046875 363 c 128,-1,31
 301.416992188 331 301.416992188 331 361.416992188 331 c 0,32,33
 419.416992188 331 419.416992188 331 462.651367188 364.5 c 128,-1,34
 505.885742188 398 505.885742188 398 518.352539062 452 c 0,35,36
 531.28125 508 531.28125 508 504.130859375 542 c 128,-1,37
 476.98046875 576 476.98046875 576 417.98046875 576 c 0,26,27
EndSplineSet
Substitution2: "'onum' Oldstyle Figures lookup 27 subtable" nine.osf
Substitution2: "'tnum' Tabular Numbers lookup 26 subtable" nine.tf
Substitution2: "'nalt' Alternate Annotation Forms lookup 23 subtable" uni2788
Substitution2: "'frac' Diagonal Fractions lookup 19 subtable" nine.numr
Substitution2: "'dnom' Denominators lookup 17 subtable" nine.dnom
Substitution2: "'numr' Numerators lookup 16 subtable" nine.numr
Substitution2: "'sups' Superscript lookup 15 subtable" uni2079
Substitution2: "'subs' Subscript lookup 14 subtable" uni2089
Substitution2: "'sinf' Scientific Inferiors lookup 13 subtable" uni2089
Substitution2: "'smcp' Lowercase to Small Capitals lookup 12 subtable" nine.sc
Substitution2: "'c2sc' Capitals to Small Capitals lookup 11 subtable" nine.sc
AlternateSubs2: "'aalt' Access All Alternates lookup 1 subtable" nine.sc uni2089 uni2079 nine.numr nine.dnom uni2788 nine.tf nine.osf
EndChar

StartChar: colon
Encoding: 58 58 29
Width: 302
GlyphClass: 2
Flags: W
LayerCount: 2
Fore
SplineSet
268.743164062 510 m 128,-1,1
 303.743164062 510 303.743164062 510 319.241210938 490.5 c 128,-1,2
 334.739257812 471 334.739257812 471 326.889648438 437 c 0,3,4
 319.270507812 404 319.270507812 404 294.268554688 384.5 c 128,-1,5
 269.266601562 365 269.266601562 365 235.266601562 365 c 128,-1,6
 201.266601562 365 201.266601562 365 185.268554688 384.5 c 128,-1,7
 169.270507812 404 169.270507812 404 176.889648438 437 c 0,8,9
 184.739257812 471 184.739257812 471 209.241210938 490.5 c 128,-1,0
 233.743164062 510 233.743164062 510 268.743164062 510 c 128,-1,1
182.166992188 135 m 128,-1,11
 216.166992188 135 216.166992188 135 232.165039062 115.5 c 128,-1,12
 248.163085938 96 248.163085938 96 240.544921875 63 c 128,-1,13
 232.92578125 30 232.92578125 30 207.80859375 10 c 128,-1,14
 182.69140625 -10 182.69140625 -10 148.69140625 -10 c 128,-1,15
 114.69140625 -10 114.69140625 -10 98.80859375 10 c 128,-1,16
 82.92578125 30 82.92578125 30 90.544921875 63 c 128,-1,17
 98.1630859375 96 98.1630859375 96 123.165039062 115.5 c 128,-1,10
 148.166992188 135 148.166992188 135 182.166992188 135 c 128,-1,11
EndSplineSet
Substitution2: "'tnum' Tabular Numbers lookup 26 subtable" colon.tf
Substitution2: "'sups' Superscript lookup 15 subtable" colonsuperior
Substitution2: "'subs' Subscript lookup 14 subtable" coloninferior
Substitution2: "'sinf' Scientific Inferiors lookup 13 subtable" coloninferior
AlternateSubs2: "'aalt' Access All Alternates lookup 1 subtable" coloninferior colonsuperior colon.tf
EndChar

StartChar: semicolon
Encoding: 59 59 30
Width: 302
GlyphClass: 2
Flags: W
LayerCount: 2
Fore
SplineSet
239.266601562 365 m 0,0,1
 205.266601562 365 205.266601562 365 189.268554688 384.5 c 128,-1,2
 173.270507812 404 173.270507812 404 180.889648438 437 c 0,3,4
 188.739257812 471 188.739257812 471 213.241210938 490.5 c 128,-1,5
 237.743164062 510 237.743164062 510 272.743164062 510 c 128,-1,6
 307.743164062 510 307.743164062 510 323.741210938 490.5 c 128,-1,7
 339.739257812 471 339.739257812 471 331.889648438 437 c 0,8,9
 324.270507812 404 324.270507812 404 299.268554688 384.5 c 128,-1,10
 274.266601562 365 274.266601562 365 239.266601562 365 c 0,0,1
182.166992188 135 m 0,11,12
 222.166992188 135 222.166992188 135 237.856445312 105.5 c 128,-1,13
 253.545898438 76 253.545898438 76 242.6953125 29 c 0,14,15
 229.536132812 -28 229.536132812 -28 188.569335938 -75.5 c 128,-1,16
 147.603515625 -123 147.603515625 -123 83.3701171875 -150 c 1,17,-1
 41.5283203125 -106 l 1,18,19
 86.759765625 -92 86.759765625 -92 121.109375 -64.5 c 128,-1,20
 155.458007812 -37 155.458007812 -37 171.307617188 -3 c 1,21,-1
 167.76953125 -1 l 1,22,23
 155.921875 -9 155.921875 -9 136.921875 -9 c 0,24,25
 112.921875 -9 112.921875 -9 97.693359375 9.5 c 128,-1,26
 82.4638671875 28 82.4638671875 28 90.0830078125 61 c 0,27,28
 97.470703125 93 97.470703125 93 123.819335938 114 c 128,-1,29
 150.166992188 135 150.166992188 135 182.166992188 135 c 0,11,12
EndSplineSet
Substitution2: "'tnum' Tabular Numbers lookup 26 subtable" semicolon.tf
Substitution2: "'aalt' Access All Alternates lookup 0 subtable" semicolon.tf
EndChar

StartChar: less
Encoding: 60 60 31
Width: 604
GlyphClass: 2
Flags: W
LayerCount: 2
Fore
SplineSet
681.98046875 576 m 1,0,-1
 657.5078125 470 l 1,1,-1
 216.029296875 299 l 1,2,-1
 578.55078125 128 l 1,3,-1
 553.848632812 21 l 1,4,-1
 124.33203125 244 l 1,5,-1
 149.49609375 353 l 1,6,-1
 681.98046875 576 l 1,0,-1
EndSplineSet
EndChar

StartChar: equal
Encoding: 61 61 32
Width: 604
GlyphClass: 2
Flags: W
LayerCount: 2
Fore
SplineSet
644.814453125 454 m 1,0,-1
 624.498046875 366 l 1,1,-1
 148.498046875 366 l 1,2,-1
 168.814453125 454 l 1,3,-1
 644.814453125 454 l 1,0,-1
597.486328125 249 m 1,4,-1
 577.169921875 161 l 1,5,-1
 101.169921875 161 l 1,6,-1
 121.486328125 249 l 1,7,-1
 597.486328125 249 l 1,4,-1
EndSplineSet
Substitution2: "'sups' Superscript lookup 15 subtable" uni207C
Substitution2: "'subs' Subscript lookup 14 subtable" uni208C
Substitution2: "'sinf' Scientific Inferiors lookup 13 subtable" uni208C
AlternateSubs2: "'aalt' Access All Alternates lookup 1 subtable" uni208C uni207C
EndChar

StartChar: greater
Encoding: 62 62 33
Width: 604
GlyphClass: 2
Flags: W
LayerCount: 2
Fore
SplineSet
187.98046875 576 m 1,0,-1
 617.49609375 353 l 1,1,-1
 592.33203125 244 l 1,2,-1
 59.8486328125 21 l 1,3,-1
 84.55078125 128 l 1,4,-1
 526.029296875 299 l 1,5,-1
 163.5078125 470 l 1,6,-1
 187.98046875 576 l 1,0,-1
EndSplineSet
EndChar

StartChar: question
Encoding: 63 63 34
Width: 562
GlyphClass: 2
Flags: W
LayerCount: 2
Fore
SplineSet
437.681640625 670 m 0,0,1
 541.681640625 670 541.681640625 670 594.676757812 624.5 c 128,-1,2
 647.672851562 579 647.672851562 579 628.741210938 497 c 0,3,4
 609.118164062 412 609.118164062 412 546.498046875 366 c 128,-1,5
 483.877929688 320 483.877929688 320 396.799804688 311 c 1,6,-1
 370.482421875 210 l 1,7,-1
 268.482421875 210 l 1,8,-1
 301.34375 361 l 1,9,10
 402.114257812 373 402.114257812 373 450.693359375 401.5 c 128,-1,11
 499.2734375 430 499.2734375 430 511.278320312 482 c 0,12,13
 521.436523438 526 521.436523438 526 495.708007812 551 c 128,-1,14
 469.98046875 576 469.98046875 576 408.98046875 576 c 0,15,16
 348.98046875 576 348.98046875 576 304.361328125 543 c 128,-1,17
 259.743164062 510 259.743164062 510 240.12109375 451 c 1,18,-1
 151.97265625 498 l 1,19,20
 185.98046875 576 185.98046875 576 260.331054688 623 c 128,-1,21
 334.681640625 670 334.681640625 670 437.681640625 670 c 0,0,1
301.705078125 133 m 128,-1,23
 335.705078125 133 335.705078125 133 351.203125 113.5 c 128,-1,24
 366.701171875 94 366.701171875 94 359.313476562 62 c 0,25,26
 351.6953125 29 351.6953125 29 327.30859375 10 c 128,-1,27
 302.921875 -9 302.921875 -9 268.921875 -9 c 0,28,29
 233.921875 -9 233.921875 -9 218.30859375 10 c 128,-1,30
 202.6953125 29 202.6953125 29 210.313476562 62 c 0,31,32
 217.701171875 94 217.701171875 94 242.703125 113.5 c 128,-1,22
 267.705078125 133 267.705078125 133 301.705078125 133 c 128,-1,23
EndSplineSet
Substitution2: "'smcp' Lowercase to Small Capitals lookup 12 subtable" question.sc
Substitution2: "'c2sc' Capitals to Small Capitals lookup 11 subtable" question.sc
Substitution2: "'aalt' Access All Alternates lookup 0 subtable" question.sc
EndChar

StartChar: at
Encoding: 64 64 35
Width: 973
GlyphClass: 2
Flags: W
LayerCount: 2
Fore
SplineSet
655.373046875 660 m 0,0,1
 851.373046875 660 851.373046875 660 930.862304688 549.5 c 128,-1,2
 1010.3515625 439 1010.3515625 439 969.025390625 260 c 0,3,4
 940.3984375 136 940.3984375 136 870.852539062 66.5 c 128,-1,5
 801.307617188 -3 801.307617188 -3 716.307617188 -3 c 0,6,7
 620.307617188 -3 620.307617188 -3 613.854492188 86 c 1,8,9
 538.23046875 1 538.23046875 1 424.23046875 1 c 0,10,11
 351.23046875 1 351.23046875 1 316.197265625 55 c 128,-1,12
 281.165039062 109 281.165039062 109 301.942382812 199 c 0,13,14
 330.5703125 323 330.5703125 323 415.577148438 394.5 c 128,-1,15
 500.584960938 466 500.584960938 466 594.584960938 466 c 0,16,17
 701.584960938 466 701.584960938 466 714.19140625 382 c 1,18,-1
 751.96875 459 l 1,19,-1
 824.96875 459 l 1,20,-1
 713.784179688 155 l 2,21,22
 680.083007812 61 680.083007812 61 751.083007812 61 c 0,23,24
 801.083007812 61 801.083007812 61 840.2421875 111.5 c 128,-1,25
 879.400390625 162 879.400390625 162 902.025390625 260 c 0,26,27
 937.810546875 415 937.810546875 415 870.704101562 505.5 c 128,-1,28
 803.59765625 596 803.59765625 596 640.59765625 596 c 0,29,30
 469.59765625 596 469.59765625 596 346.895507812 495.5 c 128,-1,31
 224.193359375 395 224.193359375 395 184.483398438 223 c 0,32,33
 147.313476562 62 147.313476562 62 223.381835938 -33 c 128,-1,34
 299.44921875 -128 299.44921875 -128 446.44921875 -128 c 0,35,36
 523.44921875 -128 523.44921875 -128 573.642578125 -112 c 128,-1,37
 623.836914062 -96 623.836914062 -96 672.762695312 -66 c 1,38,-1
 698.219726562 -116 l 1,39,40
 636.676757812 -153 636.676757812 -153 577.674804688 -172.5 c 128,-1,41
 518.672851562 -192 518.672851562 -192 430.672851562 -192 c 0,42,43
 244.672851562 -192 244.672851562 -192 156.76171875 -79 c 128,-1,44
 68.849609375 34 68.849609375 34 112.483398438 223 c 0,45,46
 157.502929688 418 157.502929688 418 307.4375 539 c 128,-1,47
 457.373046875 660 457.373046875 660 655.373046875 660 c 0,0,1
588.26953125 391 m 0,48,49
 521.26953125 391 521.26953125 391 469.572265625 342.5 c 128,-1,50
 417.875 294 417.875 294 398.020507812 208 c 0,51,52
 383.70703125 146 383.70703125 146 403.7421875 111.5 c 128,-1,53
 423.776367188 77 423.776367188 77 474.776367188 77 c 128,-1,54
 525.776367188 77 525.776367188 77 572.280273438 109.5 c 128,-1,55
 618.783203125 142 618.783203125 142 639.635742188 202 c 2,56,-1
 661.256835938 261 l 2,57,58
 707.26953125 391 707.26953125 391 588.26953125 391 c 0,48,49
EndSplineSet
Substitution2: "'case' Case-Sensitive Forms lookup 29 subtable" at.case
Substitution2: "'aalt' Access All Alternates lookup 0 subtable" at.case
EndChar

StartChar: A
Encoding: 65 65 36
Width: 665
GlyphClass: 2
Flags: W
LayerCount: 2
Fore
SplineSet
533 0 m 1,0,-1
 510.940429688 173 l 1,1,-1
 232.940429688 173 l 1,2,-1
 130 0 l 1,3,-1
 20 0 l 1,4,-1
 421.373046875 660 l 1,5,-1
 549.373046875 660 l 1,6,-1
 646 0 l 1,7,-1
 533 0 l 1,0,-1
284.025390625 260 m 1,8,-1
 499.025390625 260 l 1,9,-1
 471.969726562 472 l 1,10,-1
 463.90234375 567 l 1,11,-1
 460.90234375 567 l 1,12,-1
 411.431640625 474 l 1,13,-1
 284.025390625 260 l 1,8,-1
EndSplineSet
Substitution2: "Single Substitution lookup 56 subtable" A.swsh
Substitution2: "Single Substitution lookup 55 subtable" ordfeminine
Substitution2: "'swsh' Swash lookup 32 subtable" A.swsh
Substitution2: "'c2sc' Capitals to Small Capitals lookup 11 subtable" a.sc
AlternateSubs2: "'aalt' Access All Alternates lookup 1 subtable" a.sc ordfeminine A.swsh
EndChar

StartChar: B
Encoding: 66 66 37
Width: 662
GlyphClass: 2
Flags: W
LayerCount: 2
Fore
SplineSet
98 0 m 1,0,-1
 250.373046875 660 l 1,1,-1
 510.373046875 660 l 2,2,3
 626.373046875 660 626.373046875 660 672.022460938 613 c 128,-1,4
 717.671875 566 717.671875 566 697.5859375 479 c 0,5,6
 685.119140625 425 685.119140625 425 644.883789062 385 c 128,-1,7
 604.649414062 345 604.649414062 345 546.340820312 335 c 1,8,-1
 546.110351562 334 l 1,9,10
 605.801757812 324 605.801757812 324 632.604492188 282 c 128,-1,11
 659.408203125 240 659.408203125 240 646.249023438 183 c 0,12,13
 626.39453125 97 626.39453125 97 552.197265625 48.5 c 128,-1,14
 478 0 478 0 362 0 c 2,15,-1
 98 0 l 1,0,-1
289.806640625 376 m 1,16,-1
 436.806640625 376 l 2,17,18
 562.806640625 376 562.806640625 376 585.200195312 473 c 128,-1,19
 607.594726562 570 607.594726562 570 481.594726562 570 c 2,20,-1
 334.594726562 570 l 1,21,-1
 289.806640625 376 l 1,16,-1
223.546875 89 m 1,22,-1
 387.546875 89 l 2,23,24
 513.546875 89 513.546875 89 536.403320312 188 c 128,-1,25
 559.258789062 287 559.258789062 287 433.258789062 287 c 2,26,-1
 269.258789062 287 l 1,27,-1
 223.546875 89 l 1,22,-1
EndSplineSet
Substitution2: "'c2sc' Capitals to Small Capitals lookup 11 subtable" b.sc
Substitution2: "'aalt' Access All Alternates lookup 0 subtable" b.sc
EndChar

StartChar: C
Encoding: 67 67 38
Width: 684
GlyphClass: 2
Flags: W
LayerCount: 2
Fore
SplineSet
685.40234375 175 m 1,0,1
 634.854492188 86 634.854492188 86 551.2734375 38 c 128,-1,2
 467.69140625 -10 467.69140625 -10 369.69140625 -10 c 0,3,4
 226.69140625 -10 226.69140625 -10 163.815429688 81.5 c 128,-1,5
 100.940429688 173 100.940429688 173 137.186523438 330 c 128,-1,6
 173.432617188 487 173.432617188 487 278.557617188 578.5 c 128,-1,7
 383.681640625 670 383.681640625 670 525.681640625 670 c 0,8,9
 728.681640625 670 728.681640625 670 752.28125 508 c 1,10,-1
 640.891601562 463 l 1,11,12
 629.2109375 577 629.2109375 577 510.2109375 577 c 0,13,14
 417.2109375 577 417.2109375 577 346.588867188 511.5 c 128,-1,15
 275.966796875 446 275.966796875 446 249.186523438 330 c 0,16,17
 222.174804688 213 222.174804688 213 260.168945312 148 c 128,-1,18
 298.162109375 83 298.162109375 83 392.162109375 83 c 0,19,20
 525.162109375 83 525.162109375 83 591.250976562 209 c 1,21,-1
 685.40234375 175 l 1,0,1
EndSplineSet
Substitution2: "'c2sc' Capitals to Small Capitals lookup 11 subtable" c.sc
Substitution2: "'aalt' Access All Alternates lookup 0 subtable" c.sc
EndChar

StartChar: D
Encoding: 68 68 39
Width: 720
GlyphClass: 2
Flags: W
LayerCount: 2
Fore
SplineSet
483.373046875 660 m 2,0,1
 639.373046875 660 639.373046875 660 705.518554688 574 c 128,-1,2
 771.6640625 488 771.6640625 488 735.186523438 330 c 128,-1,3
 698.708984375 172 698.708984375 172 592.854492188 86 c 128,-1,4
 487 0 487 0 331 0 c 2,5,-1
 98 0 l 1,6,-1
 250.373046875 660 l 1,7,-1
 483.373046875 660 l 2,0,1
352.008789062 91 m 2,8,9
 456.008789062 91 456.008789062 91 526.438476562 153.5 c 128,-1,10
 596.8671875 216 596.8671875 216 623.186523438 330 c 128,-1,11
 649.505859375 444 649.505859375 444 607.934570312 506.5 c 128,-1,12
 566.364257812 569 566.364257812 569 462.364257812 569 c 2,13,-1
 336.364257812 569 l 1,14,-1
 226.008789062 91 l 1,15,-1
 352.008789062 91 l 2,8,9
EndSplineSet
Substitution2: "'c2sc' Capitals to Small Capitals lookup 11 subtable" d.sc
Substitution2: "'aalt' Access All Alternates lookup 0 subtable" d.sc
EndChar

StartChar: E
Encoding: 69 69 40
Width: 636
GlyphClass: 2
Flags: W
AnchorPoint: "Anchor-0" 337 0 basechar 0
LayerCount: 2
Fore
SplineSet
226.240234375 92 m 1,0,-1
 611.240234375 92 l 1,1,-1
 590 0 l 1,2,-1
 98 0 l 1,3,-1
 250.373046875 660 l 1,4,-1
 728.373046875 660 l 1,5,-1
 707.1328125 568 l 1,6,-1
 336.1328125 568 l 1,7,-1
 292.268554688 378 l 1,8,-1
 582.268554688 378 l 1,9,-1
 561.490234375 288 l 1,10,-1
 271.490234375 288 l 1,11,-1
 226.240234375 92 l 1,0,-1
EndSplineSet
Substitution2: "Single Substitution lookup 57 subtable" E.swsh.001
Substitution2: "Single Substitution lookup 56 subtable" E.swsh
AlternateSubs2: "'swsh' Swash lookup 33 subtable" E.swsh E.swsh.001
Substitution2: "'c2sc' Capitals to Small Capitals lookup 11 subtable" e.sc
AlternateSubs2: "'aalt' Access All Alternates lookup 1 subtable" e.sc E.swsh E.swsh.001
EndChar

StartChar: F
Encoding: 70 70 41
Width: 611
GlyphClass: 2
Flags: W
LayerCount: 2
Fore
SplineSet
706.1328125 568 m 1,0,-1
 336.1328125 568 l 1,1,-1
 292.037109375 377 l 1,2,-1
 582.037109375 377 l 1,3,-1
 560.56640625 284 l 1,4,-1
 270.56640625 284 l 1,5,-1
 205 0 l 1,6,-1
 98 0 l 1,7,-1
 250.373046875 660 l 1,8,-1
 727.373046875 660 l 1,9,-1
 706.1328125 568 l 1,0,-1
EndSplineSet
Substitution2: "Single Substitution lookup 56 subtable" F.swsh
Substitution2: "'swsh' Swash lookup 34 subtable" F.swsh
Substitution2: "'c2sc' Capitals to Small Capitals lookup 11 subtable" f.sc
AlternateSubs2: "'aalt' Access All Alternates lookup 1 subtable" f.sc F.swsh
EndChar

StartChar: G
Encoding: 71 71 42
Width: 724
GlyphClass: 2
Flags: W
AnchorPoint: "Anchor-0" 400 0 basechar 0
LayerCount: 2
Fore
SplineSet
432.725585938 341 m 1,0,-1
 729.725585938 341 l 1,1,-1
 651 0 l 1,2,-1
 572 0 l 1,3,-1
 588.392578125 84 l 1,4,5
 505.69140625 -10 505.69140625 -10 364.69140625 -10 c 0,6,7
 224.69140625 -10 224.69140625 -10 162.700195312 81 c 128,-1,8
 100.708984375 172 100.708984375 172 137.186523438 330 c 0,9,10
 173.432617188 487 173.432617188 487 280.057617188 578.5 c 128,-1,11
 386.681640625 670 386.681640625 670 529.681640625 670 c 0,12,13
 631.681640625 670 631.681640625 670 688.909179688 632 c 128,-1,14
 746.135742188 594 746.135742188 594 765.666015625 514 c 1,15,-1
 656.815429688 467 l 1,16,17
 650.282226562 521 650.282226562 521 611.747070312 549 c 128,-1,18
 573.2109375 577 573.2109375 577 510.2109375 577 c 0,19,20
 416.2109375 577 416.2109375 577 346.204101562 512 c 128,-1,21
 276.198242188 447 276.198242188 447 249.186523438 330 c 0,22,23
 221.712890625 211 221.712890625 211 259.322265625 146.5 c 128,-1,24
 296.931640625 82 296.931640625 82 397.931640625 82 c 0,25,26
 476.931640625 82 476.931640625 82 534.934570312 121 c 128,-1,27
 592.938476562 160 592.938476562 160 610.0234375 234 c 2,28,-1
 614.409179688 253 l 1,29,-1
 412.409179688 253 l 1,30,-1
 432.725585938 341 l 1,0,-1
EndSplineSet
Substitution2: "'ss04' Style Set 4 lookup 50 subtable" G.ss04
Substitution2: "'salt' Stylistic Alternatives lookup 42 subtable" G.ss04
Substitution2: "'c2sc' Capitals to Small Capitals lookup 11 subtable" g.sc
AlternateSubs2: "'aalt' Access All Alternates lookup 1 subtable" g.sc G.ss04
EndChar

StartChar: H
Encoding: 72 72 43
Width: 736
GlyphClass: 2
Flags: W
LayerCount: 2
Fore
SplineSet
683.373046875 660 m 1,0,-1
 791.373046875 660 l 1,1,-1
 639 0 l 1,2,-1
 531 0 l 1,3,-1
 597.490234375 288 l 1,4,-1
 271.490234375 288 l 1,5,-1
 205 0 l 1,6,-1
 98 0 l 1,7,-1
 250.373046875 660 l 1,8,-1
 357.373046875 660 l 1,9,-1
 292.729492188 380 l 1,10,-1
 618.729492188 380 l 1,11,-1
 683.373046875 660 l 1,0,-1
EndSplineSet
Substitution2: "'sups' Superscript lookup 15 subtable" Hsuperior
Substitution2: "'subs' Subscript lookup 14 subtable" Hinferior
Substitution2: "'sinf' Scientific Inferiors lookup 13 subtable" Hinferior
Substitution2: "'c2sc' Capitals to Small Capitals lookup 11 subtable" h.sc
AlternateSubs2: "'aalt' Access All Alternates lookup 1 subtable" h.sc Hinferior Hsuperior
EndChar

StartChar: I
Encoding: 73 73 44
Width: 303
GlyphClass: 2
Flags: W
LayerCount: 2
Fore
SplineSet
357.373046875 660 m 1,0,-1
 205 0 l 1,1,-1
 98 0 l 1,2,-1
 250.373046875 660 l 1,3,-1
 357.373046875 660 l 1,0,-1
EndSplineSet
Substitution2: "'c2sc' Capitals to Small Capitals lookup 11 subtable" i.sc
Substitution2: "'aalt' Access All Alternates lookup 0 subtable" i.sc
EndChar

StartChar: J
Encoding: 74 74 45
Width: 582
GlyphClass: 2
Flags: W
LayerCount: 2
Fore
SplineSet
645.373046875 660 m 1,0,-1
 547.0234375 234 l 2,1,2
 520.473632812 119 520.473632812 119 442.08203125 54.5 c 128,-1,3
 363.69140625 -10 363.69140625 -10 250.69140625 -10 c 0,4,5
 130.69140625 -10 130.69140625 -10 90.697265625 55 c 128,-1,6
 50.7041015625 120 50.7041015625 120 97.330078125 231 c 1,7,-1
 203.716796875 250 l 1,8,9
 172.631835938 163 172.631835938 163 188.396484375 123 c 128,-1,10
 204.162109375 83 204.162109375 83 272.162109375 83 c 0,11,12
 345.162109375 83 345.162109375 83 384.743164062 124.5 c 128,-1,13
 424.32421875 166 424.32421875 166 444.640625 254 c 2,14,-1
 538.373046875 660 l 1,15,-1
 645.373046875 660 l 1,0,-1
EndSplineSet
Substitution2: "'c2sc' Capitals to Small Capitals lookup 11 subtable" j.sc
Substitution2: "'aalt' Access All Alternates lookup 0 subtable" j.sc
EndChar

StartChar: K
Encoding: 75 75 46
Width: 667
GlyphClass: 2
Flags: W
AnchorPoint: "Anchor-0" 370 0 basechar 0
LayerCount: 2
Fore
SplineSet
519 0 m 1,0,-1
 385.416015625 318 l 1,1,-1
 251.866210938 203 l 1,2,-1
 205 0 l 1,3,-1
 98 0 l 1,4,-1
 250.373046875 660 l 1,5,-1
 357.373046875 660 l 1,6,-1
 281.6484375 332 l 1,7,-1
 660.373046875 660 l 1,8,-1
 791.373046875 660 l 1,9,-1
 479.0390625 390 l 1,10,-1
 645 0 l 1,11,-1
 519 0 l 1,0,-1
EndSplineSet
Substitution2: "'c2sc' Capitals to Small Capitals lookup 11 subtable" k.sc
Substitution2: "'aalt' Access All Alternates lookup 0 subtable" k.sc
EndChar

StartChar: L
Encoding: 76 76 47
Width: 599
GlyphClass: 2
Flags: W
AnchorPoint: "Anchor-0" 354 0 basechar 0
LayerCount: 2
Fore
SplineSet
226.240234375 92 m 1,0,-1
 590.240234375 92 l 1,1,-1
 569 0 l 1,2,-1
 98 0 l 1,3,-1
 250.373046875 660 l 1,4,-1
 357.373046875 660 l 1,5,-1
 226.240234375 92 l 1,0,-1
EndSplineSet
Substitution2: "Single Substitution lookup 57 subtable" L.swsh
Substitution2: "'swsh' Swash lookup 34 subtable" L.swsh
Substitution2: "'c2sc' Capitals to Small Capitals lookup 11 subtable" l.sc
AlternateSubs2: "'aalt' Access All Alternates lookup 1 subtable" l.sc L.swsh
Position2: "Single Positioning lookup 6 subtable" dx=0 dy=0 dh=-152 dv=0
EndChar

StartChar: M
Encoding: 77 77 48
Width: 871
GlyphClass: 2
Flags: W
LayerCount: 2
Fore
SplineSet
925.373046875 660 m 1,0,-1
 773 0 l 1,1,-1
 675 0 l 1,2,-1
 763.19140625 382 l 1,3,-1
 812.209960938 564 l 1,4,-1
 811.209960938 564 l 1,5,-1
 480 0 l 1,6,-1
 391 0 l 1,7,-1
 320.209960938 564 l 1,8,-1
 319.209960938 564 l 1,9,-1
 285.19140625 382 l 1,10,-1
 197 0 l 1,11,-1
 98 0 l 1,12,-1
 250.373046875 660 l 1,13,-1
 409.373046875 660 l 1,14,-1
 454.181640625 278 l 1,15,-1
 463.934570312 121 l 1,16,-1
 465.934570312 121 l 1,17,-1
 549.181640625 278 l 1,18,-1
 769.373046875 660 l 1,19,-1
 925.373046875 660 l 1,0,-1
EndSplineSet
Substitution2: "Single Substitution lookup 56 subtable" M.swsh
AlternateSubs2: "'swsh' Swash lookup 35 subtable" M.swsh M.swsh.001
Substitution2: "'c2sc' Capitals to Small Capitals lookup 11 subtable" m.sc
AlternateSubs2: "'aalt' Access All Alternates lookup 1 subtable" m.sc M.swsh M.swsh.001
EndChar

StartChar: N
Encoding: 78 78 49
Width: 736
GlyphClass: 2
Flags: W
AnchorPoint: "Anchor-0" 393 0 basechar 0
LayerCount: 2
Fore
SplineSet
791.373046875 660 m 1,0,-1
 639 0 l 1,1,-1
 512 0 l 1,2,-1
 353.041015625 416 l 1,3,-1
 317.20703125 538 l 1,4,-1
 316.20703125 538 l 1,5,-1
 294.349609375 426 l 1,6,-1
 196 0 l 1,7,-1
 98 0 l 1,8,-1
 250.373046875 660 l 1,9,-1
 376.373046875 660 l 1,10,-1
 534.5625 245 l 1,11,-1
 571.166015625 122 l 1,12,-1
 572.166015625 122 l 1,13,-1
 594.0234375 234 l 1,14,-1
 692.373046875 660 l 1,15,-1
 791.373046875 660 l 1,0,-1
EndSplineSet
Substitution2: "Single Substitution lookup 57 subtable" N.swsh
Substitution2: "'swsh' Swash lookup 36 subtable" N.swsh
Substitution2: "'c2sc' Capitals to Small Capitals lookup 11 subtable" n.sc
AlternateSubs2: "'aalt' Access All Alternates lookup 1 subtable" n.sc N.swsh
EndChar

StartChar: O
Encoding: 79 79 50
Width: 745
GlyphClass: 2
Flags: W
LayerCount: 2
Fore
SplineSet
526.681640625 670 m 0,0,1
 670.681640625 670 670.681640625 670 733.557617188 578.5 c 128,-1,2
 796.432617188 487 796.432617188 487 760.186523438 330 c 128,-1,3
 723.940429688 173 723.940429688 173 618.815429688 81.5 c 128,-1,4
 513.69140625 -10 513.69140625 -10 369.69140625 -10 c 0,5,6
 226.69140625 -10 226.69140625 -10 163.815429688 81.5 c 128,-1,7
 100.940429688 173 100.940429688 173 137.186523438 330 c 128,-1,8
 173.432617188 487 173.432617188 487 278.557617188 578.5 c 128,-1,9
 383.681640625 670 383.681640625 670 526.681640625 670 c 0,0,1
505.2109375 577 m 0,10,11
 412.2109375 577 412.2109375 577 344.204101562 512 c 128,-1,12
 276.198242188 447 276.198242188 447 249.186523438 330 c 128,-1,13
 222.174804688 213 222.174804688 213 260.168945312 148 c 128,-1,14
 298.162109375 83 298.162109375 83 391.162109375 83 c 0,15,16
 485.162109375 83 485.162109375 83 553.168945312 148 c 128,-1,17
 621.174804688 213 621.174804688 213 648.186523438 330 c 128,-1,18
 675.198242188 447 675.198242188 447 637.204101562 512 c 128,-1,19
 599.2109375 577 599.2109375 577 505.2109375 577 c 0,10,11
EndSplineSet
Substitution2: "Single Substitution lookup 55 subtable" ordmasculine
Substitution2: "'nalt' Alternate Annotation Forms lookup 23 subtable" indexring
Substitution2: "'sups' Superscript lookup 15 subtable" Osuperior
Substitution2: "'subs' Subscript lookup 14 subtable" Oinferior
Substitution2: "'sinf' Scientific Inferiors lookup 13 subtable" Oinferior
Substitution2: "'c2sc' Capitals to Small Capitals lookup 11 subtable" o.sc
AlternateSubs2: "'aalt' Access All Alternates lookup 1 subtable" o.sc Oinferior Osuperior ordmasculine indexring
EndChar

StartChar: P
Encoding: 80 80 51
Width: 627
GlyphClass: 2
Flags: W
LayerCount: 2
Fore
SplineSet
504.373046875 660 m 2,0,1
 611.373046875 660 611.373046875 660 661.174804688 605 c 128,-1,2
 710.977539062 550 710.977539062 550 688.814453125 454 c 128,-1,3
 666.650390625 358 666.650390625 358 591.568359375 303.5 c 128,-1,4
 516.486328125 249 516.486328125 249 409.486328125 249 c 2,5,-1
 262.486328125 249 l 1,6,-1
 205 0 l 1,7,-1
 98 0 l 1,8,-1
 250.373046875 660 l 1,9,-1
 504.373046875 660 l 2,0,1
413.495117188 340 m 2,10,11
 551.495117188 340 551.495117188 340 577.814453125 454 c 0,12,13
 604.364257812 569 604.364257812 569 466.364257812 569 c 2,14,-1
 336.364257812 569 l 1,15,-1
 283.495117188 340 l 1,16,-1
 413.495117188 340 l 2,10,11
EndSplineSet
Substitution2: "'c2sc' Capitals to Small Capitals lookup 11 subtable" p.sc
Substitution2: "'aalt' Access All Alternates lookup 0 subtable" p.sc
EndChar

StartChar: Q
Encoding: 81 81 52
Width: 745
GlyphClass: 2
Flags: W
LayerCount: 2
Fore
SplineSet
508.682617188 -101 m 0,0,1
 587.682617188 -101 587.682617188 -101 636.455078125 -63 c 1,2,-1
 646.676757812 -153 l 1,3,4
 617.829101562 -174 617.829101562 -174 572.55859375 -186 c 128,-1,5
 527.288085938 -198 527.288085938 -198 483.288085938 -198 c 0,6,7
 395.288085938 -198 395.288085938 -198 351.5234375 -151.5 c 128,-1,8
 307.758789062 -105 307.758789062 -105 327.153320312 -8 c 1,9,10
 205.384765625 6 205.384765625 6 154.547851562 95.5 c 128,-1,11
 103.7109375 185 103.7109375 185 137.186523438 330 c 0,12,13
 173.432617188 487 173.432617188 487 278.557617188 578.5 c 128,-1,14
 383.681640625 670 383.681640625 670 526.681640625 670 c 0,15,16
 670.681640625 670 670.681640625 670 733.557617188 578.5 c 128,-1,17
 796.432617188 487 796.432617188 487 760.186523438 330 c 0,18,19
 726.479492188 184 726.479492188 184 633.317382812 94.5 c 128,-1,20
 540.154296875 5 540.154296875 5 411.153320312 -8 c 1,21,22
 403.686523438 -62 403.686523438 -62 429.684570312 -81.5 c 128,-1,23
 455.682617188 -101 455.682617188 -101 508.682617188 -101 c 0,0,1
249.186523438 330 m 128,-1,25
 222.174804688 213 222.174804688 213 260.168945312 148 c 128,-1,26
 298.162109375 83 298.162109375 83 391.162109375 83 c 0,27,28
 485.162109375 83 485.162109375 83 553.168945312 148 c 128,-1,29
 621.174804688 213 621.174804688 213 648.186523438 330 c 128,-1,30
 675.198242188 447 675.198242188 447 637.204101562 512 c 128,-1,31
 599.2109375 577 599.2109375 577 505.2109375 577 c 0,32,33
 412.2109375 577 412.2109375 577 344.204101562 512 c 128,-1,24
 276.198242188 447 276.198242188 447 249.186523438 330 c 128,-1,25
EndSplineSet
Substitution2: "'c2sc' Capitals to Small Capitals lookup 11 subtable" q.sc
Substitution2: "'aalt' Access All Alternates lookup 0 subtable" q.sc
EndChar

StartChar: R
Encoding: 82 82 53
Width: 664
GlyphClass: 2
Flags: W
AnchorPoint: "Anchor-0" 364 0 basechar 0
LayerCount: 2
Fore
SplineSet
98 0 m 5,0,-1
 250.373046875 660 l 5,1,-1
 519.373046875 660 l 6,2,3
 626.373046875 660 626.373046875 660 676.251953125 607.5 c 132,-1,4
 726.131835938 555 726.131835938 555 705.123046875 464 c 4,5,6
 674.416992188 331 674.416992188 331 530.336914062 296 c 5,7,-1
 529.875 294 l 5,8,9
 632.2578125 274 632.2578125 274 613.32421875 166 c 4,10,11
 593.927734375 43 593.927734375 43 608.692382812 3 c 5,12,-1
 608 0 l 5,13,-1
 494 0 l 5,14,15
 487.080078125 35 487.080078125 35 504.784179688 155 c 4,16,17
 513.482421875 210 513.482421875 210 486.215820312 237 c 132,-1,18
 458.94921875 264 458.94921875 264 388.94921875 264 c 6,19,-1
 264.94921875 264 l 5,20,-1
 204 0 l 5,21,-1
 98 0 l 5,0,-1
285.49609375 353 m 5,22,-1
 439.49609375 353 l 6,23,24
 568.49609375 353 568.49609375 353 593.430664062 461 c 132,-1,25
 618.364257812 569 618.364257812 569 489.364257812 569 c 6,26,-1
 335.364257812 569 l 5,27,-1
 285.49609375 353 l 5,22,-1
EndSplineSet
Substitution2: "Single Substitution lookup 57 subtable" R.swsh.001
Substitution2: "Single Substitution lookup 56 subtable" R.swsh
Substitution2: "'ss03' Style Set 3 lookup 49 subtable" R.ss03
Substitution2: "'salt' Stylistic Alternatives lookup 42 subtable" R.ss03
AlternateSubs2: "'swsh' Swash lookup 37 subtable" R.swsh R.swsh.001
Substitution2: "'c2sc' Capitals to Small Capitals lookup 11 subtable" r.sc
AlternateSubs2: "'aalt' Access All Alternates lookup 1 subtable" r.sc R.swsh R.swsh.001 R.ss03
EndChar

StartChar: S
Encoding: 83 83 54
Width: 642
GlyphClass: 2
Flags: W
AnchorPoint: "Anchor-0" 355 0 basechar 0
LayerCount: 2
Fore
SplineSet
477.681640625 670 m 0,0,1
 655.681640625 670 655.681640625 670 710.745117188 536 c 1,2,-1
 612.891601562 463 l 1,3,4
 598.744140625 523 598.744140625 523 562.977539062 550 c 128,-1,5
 527.2109375 577 527.2109375 577 457.2109375 577 c 0,6,7
 388.2109375 577 388.2109375 577 343.862304688 549.5 c 128,-1,8
 299.513671875 522 299.513671875 522 289.5859375 479 c 0,9,10
 280.3515625 439 280.3515625 439 311.92578125 415.5 c 128,-1,11
 343.5 392 343.5 392 434.575195312 375 c 0,12,13
 561.265625 352 561.265625 352 605.9921875 307.5 c 128,-1,14
 650.71875 263 650.71875 263 632.249023438 183 c 0,15,16
 611.932617188 95 611.932617188 95 527.311523438 42.5 c 128,-1,17
 442.69140625 -10 442.69140625 -10 324.69140625 -10 c 0,18,19
 123.69140625 -10 123.69140625 -10 71.6279296875 124 c 1,20,-1
 163.942382812 199 l 1,21,22
 199.162109375 83 199.162109375 83 345.162109375 83 c 0,23,24
 416.162109375 83 416.162109375 83 462.318359375 107.5 c 128,-1,25
 508.474609375 132 508.474609375 132 518.86328125 177 c 0,26,27
 527.174804688 213 527.174804688 213 495.75390625 235 c 128,-1,28
 464.333007812 257 464.333007812 257 377.2578125 274 c 0,29,30
 248.029296875 299 248.029296875 299 201.918945312 344 c 128,-1,31
 155.807617188 389 155.807617188 389 174.045898438 468 c 0,32,33
 194.131835938 555 194.131835938 555 276.907226562 612.5 c 128,-1,34
 359.681640625 670 359.681640625 670 477.681640625 670 c 0,0,1
EndSplineSet
Substitution2: "Single Substitution lookup 57 subtable" S.swsh
Substitution2: "Single Substitution lookup 56 subtable" S.swsh
Substitution2: "'swsh' Swash lookup 38 subtable" S.swsh
Substitution2: "'c2sc' Capitals to Small Capitals lookup 11 subtable" s.sc
AlternateSubs2: "'aalt' Access All Alternates lookup 1 subtable" s.sc S.swsh
EndChar

StartChar: T
Encoding: 84 84 55
Width: 619
GlyphClass: 2
Flags: W
AnchorPoint: "Anchor-0" 319 0 basechar 0
LayerCount: 2
Fore
SplineSet
741.373046875 660 m 1,0,-1
 720.1328125 568 l 1,1,-1
 494.1328125 568 l 1,2,-1
 363 0 l 1,3,-1
 256 0 l 1,4,-1
 387.1328125 568 l 1,5,-1
 161.1328125 568 l 1,6,-1
 182.373046875 660 l 1,7,-1
 741.373046875 660 l 1,0,-1
EndSplineSet
Substitution2: "Single Substitution lookup 56 subtable" T.swsh
Substitution2: "'swsh' Swash lookup 38 subtable" T.swsh
Substitution2: "'c2sc' Capitals to Small Capitals lookup 11 subtable" t.sc
AlternateSubs2: "'aalt' Access All Alternates lookup 1 subtable" t.sc T.swsh
EndChar

StartChar: U
Encoding: 85 85 56
Width: 718
GlyphClass: 2
Flags: W
LayerCount: 2
Fore
SplineSet
781.373046875 660 m 1,0,-1
 687.409179688 253 l 2,1,2
 657.396484375 123 657.396484375 123 573.043945312 56.5 c 128,-1,3
 488.69140625 -10 488.69140625 -10 356.69140625 -10 c 128,-1,4
 224.69140625 -10 224.69140625 -10 171.043945312 56.5 c 128,-1,5
 117.396484375 123 117.396484375 123 147.409179688 253 c 2,6,-1
 241.373046875 660 l 1,7,-1
 349.373046875 660 l 1,8,-1
 258.411132812 266 l 2,9,10
 236.708984375 172 236.708984375 172 265.935546875 127.5 c 128,-1,11
 295.162109375 83 295.162109375 83 378.162109375 83 c 128,-1,12
 461.162109375 83 461.162109375 83 510.935546875 127.5 c 128,-1,13
 560.708984375 172 560.708984375 172 582.411132812 266 c 2,14,-1
 673.373046875 660 l 1,15,-1
 781.373046875 660 l 1,0,-1
EndSplineSet
Substitution2: "'c2sc' Capitals to Small Capitals lookup 11 subtable" u.sc
Substitution2: "'aalt' Access All Alternates lookup 0 subtable" u.sc
EndChar

StartChar: V
Encoding: 86 86 57
Width: 659
GlyphClass: 2
Flags: W
LayerCount: 2
Fore
SplineSet
789.373046875 660 m 1,0,-1
 392 0 l 1,1,-1
 267 0 l 1,2,-1
 174.373046875 660 l 1,3,-1
 288.373046875 660 l 1,4,-1
 341.021484375 221 l 1,5,-1
 350.778320312 90 l 1,6,-1
 420.791015625 220 l 1,7,-1
 676.373046875 660 l 1,8,-1
 789.373046875 660 l 1,0,-1
EndSplineSet
Substitution2: "'c2sc' Capitals to Small Capitals lookup 11 subtable" v.sc
Substitution2: "'aalt' Access All Alternates lookup 0 subtable" v.sc
EndChar

StartChar: W
Encoding: 87 87 58
Width: 972
GlyphClass: 2
Flags: W
LayerCount: 2
Fore
SplineSet
544.423828125 396 m 1,0,-1
 349 0 l 1,1,-1
 222 0 l 1,2,-1
 180.373046875 660 l 1,3,-1
 296.373046875 660 l 1,4,-1
 307.624023438 85 l 1,5,-1
 585.373046875 660 l 1,6,-1
 695.373046875 660 l 1,7,-1
 708.392578125 84 l 1,8,-1
 986.373046875 660 l 1,9,-1
 1096.37304688 660 l 1,10,-1
 751 0 l 1,11,-1
 625 0 l 1,12,-1
 611.423828125 396 l 1,13,-1
 613.515625 548 l 1,14,-1
 612.515625 548 l 1,15,-1
 544.423828125 396 l 1,0,-1
EndSplineSet
Substitution2: "Single Substitution lookup 56 subtable" W.swsh
Substitution2: "'swsh' Swash lookup 38 subtable" W.swsh
Substitution2: "'c2sc' Capitals to Small Capitals lookup 11 subtable" w.sc
AlternateSubs2: "'aalt' Access All Alternates lookup 1 subtable" w.sc W.swsh
EndChar

StartChar: X
Encoding: 88 88 59
Width: 620
GlyphClass: 2
Flags: W
LayerCount: 2
Fore
SplineSet
595 0 m 1,0,-1
 468 0 l 1,1,-1
 365.333007812 257 l 1,2,-1
 144 0 l 1,3,-1
 21 0 l 1,4,-1
 327.340820312 335 l 1,5,-1
 191.373046875 660 l 1,6,-1
 318.373046875 660 l 1,7,-1
 413.810546875 415 l 1,8,-1
 622.373046875 660 l 1,9,-1
 738.373046875 660 l 1,10,-1
 451.264648438 339 l 1,11,-1
 595 0 l 1,0,-1
EndSplineSet
Substitution2: "'c2sc' Capitals to Small Capitals lookup 11 subtable" x.sc
Substitution2: "'aalt' Access All Alternates lookup 0 subtable" x.sc
EndChar

StartChar: Y
Encoding: 89 89 60
Width: 597
GlyphClass: 2
Flags: W
LayerCount: 2
Fore
SplineSet
740.373046875 660 m 1,0,-1
 410.409179688 253 l 1,1,-1
 352 0 l 1,2,-1
 245 0 l 1,3,-1
 303.409179688 253 l 1,4,-1
 162.373046875 660 l 1,5,-1
 281.373046875 660 l 1,6,-1
 350.428710938 448 l 1,7,-1
 379.573242188 349 l 1,8,-1
 454.428710938 448 l 1,9,-1
 620.373046875 660 l 1,10,-1
 740.373046875 660 l 1,0,-1
EndSplineSet
Substitution2: "'c2sc' Capitals to Small Capitals lookup 11 subtable" y.sc
Substitution2: "'aalt' Access All Alternates lookup 0 subtable" y.sc
EndChar

StartChar: Z
Encoding: 90 90 61
Width: 631
GlyphClass: 2
Flags: W
LayerCount: 2
Fore
SplineSet
193.008789062 91 m 1,0,-1
 604.008789062 91 l 1,1,-1
 583 0 l 1,2,-1
 50 0 l 1,3,-1
 70.0859375 87 l 1,4,-1
 580.364257812 569 l 1,5,-1
 190.364257812 569 l 1,6,-1
 211.373046875 660 l 1,7,-1
 723.373046875 660 l 1,8,-1
 703.287109375 573 l 1,9,-1
 193.008789062 91 l 1,0,-1
EndSplineSet
Substitution2: "'c2sc' Capitals to Small Capitals lookup 11 subtable" z.sc
Substitution2: "'aalt' Access All Alternates lookup 0 subtable" z.sc
EndChar

StartChar: bracketleft
Encoding: 91 91 62
Width: 361
GlyphClass: 2
Flags: W
LayerCount: 2
Fore
SplineSet
477.755859375 640 m 1,0,-1
 330.755859375 640 l 1,1,-1
 163.837890625 -83 l 1,2,-1
 310.837890625 -83 l 1,3,-1
 291.213867188 -168 l 1,4,-1
 47.2138671875 -168 l 1,5,-1
 253.379882812 725 l 1,6,-1
 497.379882812 725 l 1,7,-1
 477.755859375 640 l 1,0,-1
EndSplineSet
Substitution2: "'case' Case-Sensitive Forms lookup 29 subtable" bracketleft.case
Substitution2: "'sups' Superscript lookup 15 subtable" bracketleftsuperior
Substitution2: "'subs' Subscript lookup 14 subtable" bracketleftinferior
Substitution2: "'sinf' Scientific Inferiors lookup 13 subtable" bracketleftinferior
AlternateSubs2: "'aalt' Access All Alternates lookup 1 subtable" bracketleftinferior bracketleftsuperior bracketleft.case
EndChar

StartChar: backslash
Encoding: 92 92 63
Width: 447
GlyphClass: 2
Flags: W
LayerCount: 2
Fore
SplineSet
192.379882812 725 m 1,0,-1
 292.379882812 725 l 1,1,-1
 406.838867188 -70 l 1,2,-1
 306.838867188 -70 l 1,3,-1
 192.379882812 725 l 1,0,-1
EndSplineSet
EndChar

StartChar: bracketright
Encoding: 93 93 64
Width: 361
GlyphClass: 2
Flags: W
LayerCount: 2
Fore
SplineSet
442.379882812 725 m 1,0,-1
 236.213867188 -168 l 1,1,-1
 -7.7861328125 -168 l 1,2,-1
 11.837890625 -83 l 1,3,-1
 158.837890625 -83 l 1,4,-1
 325.755859375 640 l 1,5,-1
 178.755859375 640 l 1,6,-1
 198.379882812 725 l 1,7,-1
 442.379882812 725 l 1,0,-1
EndSplineSet
Substitution2: "'case' Case-Sensitive Forms lookup 29 subtable" bracketright.case
Substitution2: "'sups' Superscript lookup 15 subtable" bracketrightsuperior
Substitution2: "'subs' Subscript lookup 14 subtable" bracketrightinferior
Substitution2: "'sinf' Scientific Inferiors lookup 13 subtable" bracketrightinferior
AlternateSubs2: "'aalt' Access All Alternates lookup 1 subtable" bracketrightinferior bracketrightsuperior bracketright.case
EndChar

StartChar: asciicircum
Encoding: 94 94 65
Width: 576
GlyphClass: 2
Flags: W
LayerCount: 2
Fore
SplineSet
630.958007812 355 m 1,0,-1
 529.958007812 355 l 1,1,-1
 437.833007812 649 l 1,2,-1
 209.958007812 355 l 1,3,-1
 107.958007812 355 l 1,4,-1
 408.072265625 728 l 1,5,-1
 504.072265625 728 l 1,6,-1
 630.958007812 355 l 1,0,-1
EndSplineSet
EndChar

StartChar: underscore
Encoding: 95 95 66
Width: 539
GlyphClass: 2
Flags: W
LayerCount: 2
Fore
SplineSet
518.68359375 -88 m 1,0,-1
 497.212890625 -181 l 1,1,-1
 -41.787109375 -181 l 1,2,-1
 -20.31640625 -88 l 1,3,-1
 518.68359375 -88 l 1,0,-1
EndSplineSet
EndChar

StartChar: grave
Encoding: 96 96 67
Width: 500
GlyphClass: 2
Flags: W
LayerCount: 2
Fore
SplineSet
398.227539062 746 m 1,0,-1
 432.44140625 578 l 1,1,-1
 350.44140625 578 l 1,2,-1
 290.227539062 746 l 1,3,-1
 398.227539062 746 l 1,0,-1
EndSplineSet
EndChar

StartChar: a
Encoding: 97 97 68
Width: 570
GlyphClass: 2
Flags: W
LayerCount: 2
Fore
SplineSet
531.161132812 70 m 0,0,1
 553.161132812 70 553.161132812 70 569.083984375 74 c 1,2,-1
 545.461914062 2 l 1,3,4
 515.69140625 -10 515.69140625 -10 480.69140625 -10 c 0,5,6
 393.69140625 -10 393.69140625 -10 395.775390625 64 c 1,7,8
 364.6953125 29 364.6953125 29 315.193359375 9.5 c 128,-1,9
 265.69140625 -10 265.69140625 -10 209.69140625 -10 c 0,10,11
 136.69140625 -10 136.69140625 -10 99.541015625 24 c 128,-1,12
 62.390625 58 62.390625 58 76.9345703125 121 c 0,13,14
 90.556640625 180 90.556640625 180 148.90625 220.5 c 128,-1,15
 207.256835938 261 207.256835938 261 308.181640625 278 c 2,16,-1
 440.260742188 300 l 1,17,-1
 446.494140625 327 l 2,18,19
 457.114257812 373 457.114257812 373 436.231445312 399.5 c 128,-1,20
 415.349609375 426 415.349609375 426 367.349609375 426 c 0,21,22
 268.349609375 426 268.349609375 426 217.571289062 336 c 1,23,-1
 144.729492188 380 l 1,24,25
 176.58203125 440 176.58203125 440 240.162109375 475 c 128,-1,26
 303.743164062 510 303.743164062 510 384.743164062 510 c 0,27,28
 481.743164062 510 481.743164062 510 528.353515625 465 c 128,-1,29
 574.96484375 420 574.96484375 420 554.87890625 333 c 2,30,-1
 502.703125 107 l 2,31,32
 494.161132812 70 494.161132812 70 531.161132812 70 c 0,0,1
251.391601562 71 m 0,33,34
 305.391601562 71 305.391601562 71 352.39453125 97 c 128,-1,35
 399.396484375 123 399.396484375 123 409.32421875 166 c 2,36,-1
 423.17578125 226 l 1,37,-1
 309.096679688 204 l 2,38,39
 202.479492188 184 202.479492188 184 189.55078125 128 c 0,40,41
 176.391601562 71 176.391601562 71 251.391601562 71 c 0,33,34
EndSplineSet
Substitution2: "Single Substitution lookup 55 subtable" ordfeminine
Substitution2: "'smcp' Lowercase to Small Capitals lookup 12 subtable" a.sc
AlternateSubs2: "'aalt' Access All Alternates lookup 1 subtable" a.sc ordfeminine
EndChar

StartChar: b
Encoding: 98 98 69
Width: 629
GlyphClass: 2
Flags: W
LayerCount: 2
Fore
SplineSet
469.743164062 510 m 0,0,1
 572.743164062 510 572.743164062 510 615.697265625 440.5 c 128,-1,2
 658.65234375 371 658.65234375 371 630.486328125 249 c 128,-1,3
 602.3203125 127 602.3203125 127 527.505859375 58.5 c 128,-1,4
 452.69140625 -10 452.69140625 -10 349.69140625 -10 c 0,5,6
 290.69140625 -10 290.69140625 -10 252.655273438 18 c 128,-1,7
 214.620117188 46 214.620117188 46 203.470703125 93 c 1,8,-1
 177 0 l 1,9,-1
 83 0 l 1,10,-1
 250.379882812 725 l 1,11,-1
 357.379882812 725 l 1,12,-1
 286.96484375 420 l 1,13,14
 319.661132812 462 319.661132812 462 367.702148438 486 c 128,-1,15
 415.743164062 510 415.743164062 510 469.743164062 510 c 0,0,1
345.545898438 76 m 0,16,17
 410.545898438 76 410.545898438 76 457.666015625 122 c 128,-1,18
 504.786132812 168 504.786132812 168 523.716796875 250 c 128,-1,19
 542.6484375 332 542.6484375 332 516.65234375 377.5 c 128,-1,20
 490.657226562 423 490.657226562 423 425.657226562 423 c 0,21,22
 364.657226562 423 364.657226562 423 318.69140625 382 c 128,-1,23
 272.725585938 341 272.725585938 341 252.103515625 269 c 1,24,-1
 243.330078125 231 l 1,25,26
 230.477539062 158 230.477539062 158 257.51171875 117 c 128,-1,27
 284.545898438 76 284.545898438 76 345.545898438 76 c 0,16,17
EndSplineSet
Substitution2: "'smcp' Lowercase to Small Capitals lookup 12 subtable" b.sc
Substitution2: "'aalt' Access All Alternates lookup 0 subtable" b.sc
EndChar

StartChar: c
Encoding: 99 99 70
Width: 566
GlyphClass: 2
Flags: W
LayerCount: 2
Fore
SplineSet
420.743164062 510 m 0,0,1
 584.743164062 510 584.743164062 510 605.420898438 370 c 1,2,-1
 496.186523438 330 l 1,3,4
 492.119140625 425 492.119140625 425 401.119140625 425 c 0,5,6
 334.119140625 425 334.119140625 425 286.499023438 379 c 128,-1,7
 238.87890625 333 238.87890625 333 219.486328125 249 c 128,-1,8
 200.092773438 165 200.092773438 165 226.704101562 120 c 128,-1,9
 253.315429688 75 253.315429688 75 320.315429688 75 c 0,10,11
 423.315429688 75 423.315429688 75 465.708984375 172 c 1,12,-1
 556.090820312 139 l 1,13,14
 517.9296875 69 517.9296875 69 452.810546875 29.5 c 128,-1,15
 387.69140625 -10 387.69140625 -10 302.69140625 -10 c 0,16,17
 184.69140625 -10 184.69140625 -10 134.12109375 59 c 128,-1,18
 83.55078125 128 83.55078125 128 111.716796875 250 c 128,-1,19
 139.8828125 372 139.8828125 372 221.8125 441 c 128,-1,20
 303.743164062 510 303.743164062 510 420.743164062 510 c 0,0,1
EndSplineSet
Substitution2: "'smcp' Lowercase to Small Capitals lookup 12 subtable" c.sc
Substitution2: "'aalt' Access All Alternates lookup 0 subtable" c.sc
EndChar

StartChar: d
Encoding: 100 100 71
Width: 629
GlyphClass: 2
Flags: W
LayerCount: 2
Fore
SplineSet
606.379882812 725 m 1,0,-1
 713.379882812 725 l 1,1,-1
 546 0 l 1,2,-1
 452 0 l 1,3,-1
 466.546875 89 l 1,4,5
 434.158203125 44 434.158203125 44 383.424804688 17 c 128,-1,6
 332.69140625 -10 332.69140625 -10 275.69140625 -10 c 0,7,8
 172.69140625 -10 172.69140625 -10 129.005859375 58.5 c 128,-1,9
 85.3203125 127 85.3203125 127 113.486328125 249 c 128,-1,10
 141.65234375 371 141.65234375 371 217.197265625 440.5 c 128,-1,11
 292.743164062 510 292.743164062 510 395.743164062 510 c 0,12,13
 450.743164062 510 450.743164062 510 487.086914062 485.5 c 128,-1,14
 523.430664062 461 523.430664062 461 535.733398438 419 c 1,15,-1
 606.379882812 725 l 1,0,-1
319.545898438 76 m 0,16,17
 382.545898438 76 382.545898438 76 429.934570312 121 c 128,-1,18
 477.32421875 166 477.32421875 166 495.33203125 244 c 2,19,-1
 498.102539062 256 l 2,20,21
 516.110351562 334 516.110351562 334 489.383789062 378.5 c 128,-1,22
 462.657226562 423 462.657226562 423 399.657226562 423 c 0,23,24
 334.657226562 423 334.657226562 423 287.65234375 377.5 c 128,-1,25
 240.6484375 332 240.6484375 332 221.716796875 250 c 128,-1,26
 202.786132812 168 202.786132812 168 228.666015625 122 c 128,-1,27
 254.545898438 76 254.545898438 76 319.545898438 76 c 0,16,17
EndSplineSet
Substitution2: "'smcp' Lowercase to Small Capitals lookup 12 subtable" d.sc
Substitution2: "'aalt' Access All Alternates lookup 0 subtable" d.sc
EndChar

StartChar: e
Encoding: 101 101 72
Width: 581
GlyphClass: 2
Flags: W
AnchorPoint: "Anchor-0" 302 0 basechar 0
LayerCount: 2
Fore
SplineSet
591.1796875 265 m 0,0,1
 584.485351562 236 584.485351562 236 574.482421875 210 c 1,2,-1
 208.482421875 210 l 1,3,4
 202.245117188 144 202.245117188 144 232.280273438 109.5 c 128,-1,5
 262.315429688 75 262.315429688 75 322.315429688 75 c 0,6,7
 423.315429688 75 423.315429688 75 464.013671875 143 c 1,8,-1
 544.471679688 106 l 1,9,10
 461.69140625 -10 461.69140625 -10 302.69140625 -10 c 0,11,12
 184.69140625 -10 184.69140625 -10 134.12109375 59 c 128,-1,13
 83.55078125 128 83.55078125 128 111.716796875 250 c 0,14,15
 140.114257812 373 140.114257812 373 219.928710938 441.5 c 128,-1,16
 299.743164062 510 299.743164062 510 415.743164062 510 c 0,17,18
 525.743164062 510 525.743164062 510 571.274414062 443 c 128,-1,19
 616.806640625 376 616.806640625 376 591.1796875 265 c 0,0,1
396.119140625 425 m 0,20,21
 277.119140625 425 277.119140625 425 227.413085938 292 c 1,22,-1
 497.413085938 292 l 1,23,24
 503.958007812 355 503.958007812 355 477.5390625 390 c 128,-1,25
 451.119140625 425 451.119140625 425 396.119140625 425 c 0,20,21
EndSplineSet
Substitution2: "'smcp' Lowercase to Small Capitals lookup 12 subtable" e.sc
Substitution2: "'aalt' Access All Alternates lookup 0 subtable" e.sc
EndChar

StartChar: f
Encoding: 102 102 73
Width: 400
GlyphClass: 2
Flags: W
LayerCount: 2
Fore
SplineSet
355.209960938 564 m 2,0,-1
 340.434570312 500 l 1,1,-1
 502.434570312 500 l 1,2,-1
 483.041015625 416 l 1,3,-1
 324.041015625 416 l 1,4,-1
 228 0 l 1,5,-1
 121 0 l 1,6,-1
 217.041015625 416 l 1,7,-1
 123.041015625 416 l 1,8,-1
 142.434570312 500 l 1,9,-1
 236.434570312 500 l 1,10,-1
 253.056640625 572 l 2,11,12
 270.602539062 648 270.602539062 648 326.298828125 690 c 128,-1,13
 381.995117188 732 381.995117188 732 464.995117188 732 c 0,14,15
 528.995117188 732 528.995117188 732 553.455078125 708 c 1,16,-1
 515.447265625 630 l 1,17,18
 495.91015625 645 495.91015625 645 461.91015625 645 c 0,19,20
 373.91015625 645 373.91015625 645 355.209960938 564 c 2,0,-1
EndSplineSet
Substitution2: "'smcp' Lowercase to Small Capitals lookup 12 subtable" f.sc
Substitution2: "'aalt' Access All Alternates lookup 0 subtable" f.sc
EndChar

StartChar: g
Encoding: 103 103 74
Width: 629
GlyphClass: 2
Flags: W
LayerCount: 2
Fore
SplineSet
570.434570312 500 m 1,0,-1
 661.434570312 500 l 1,1,-1
 555.234375 40 l 2,2,3
 496.36328125 -215 496.36328125 -215 234.36328125 -215 c 0,4,5
 148.36328125 -215 148.36328125 -215 98.6357421875 -183.5 c 128,-1,6
 48.908203125 -152 48.908203125 -152 51.3759765625 -85 c 1,7,-1
 161.6875 -49 l 1,8,9
 157.063476562 -134 157.063476562 -134 267.063476562 -134 c 0,10,11
 329.063476562 -134 329.063476562 -134 377.529296875 -93 c 128,-1,12
 425.995117188 -52 425.995117188 -52 441.462890625 15 c 2,13,-1
 456.931640625 82 l 1,14,15
 385.923828125 4 385.923828125 4 277.923828125 4 c 0,16,17
 174.923828125 4 174.923828125 4 130.891601562 71 c 128,-1,18
 86.859375 138 86.859375 138 114.333007812 257 c 128,-1,19
 141.806640625 376 141.806640625 376 216.774414062 443 c 128,-1,20
 291.743164062 510 291.743164062 510 394.743164062 510 c 0,21,22
 452.743164062 510 452.743164062 510 491.086914062 485.5 c 128,-1,23
 529.430664062 461 529.430664062 461 542.502929688 418 c 1,24,-1
 570.434570312 500 l 1,0,-1
322.008789062 91 m 0,25,26
 385.008789062 91 385.008789062 91 431.936523438 134 c 128,-1,27
 478.86328125 177 478.86328125 177 496.178710938 252 c 2,28,-1
 498.71875 263 l 2,29,30
 515.802734375 337 515.802734375 337 488.729492188 380 c 128,-1,31
 461.657226562 423 461.657226562 423 398.657226562 423 c 0,32,33
 333.657226562 423 333.657226562 423 286.999023438 379 c 128,-1,34
 240.340820312 335 240.340820312 335 222.333007812 257 c 128,-1,35
 204.325195312 179 204.325195312 179 230.666992188 135 c 128,-1,36
 257.008789062 91 257.008789062 91 322.008789062 91 c 0,25,26
EndSplineSet
Substitution2: "'ss01' Style Set 1 lookup 47 subtable" g.ss01
Substitution2: "'salt' Stylistic Alternatives lookup 42 subtable" g.ss01
Substitution2: "'smcp' Lowercase to Small Capitals lookup 12 subtable" g.sc
AlternateSubs2: "'aalt' Access All Alternates lookup 1 subtable" g.sc g.ss01
EndChar

StartChar: h
Encoding: 104 104 75
Width: 619
GlyphClass: 2
Flags: W
LayerCount: 2
Fore
SplineSet
469.743164062 510 m 0,0,1
 552.743164062 510 552.743164062 510 594.161132812 462 c 128,-1,2
 635.579101562 414 635.579101562 414 614.801757812 324 c 2,3,-1
 540 0 l 1,4,-1
 433 0 l 1,5,-1
 499.952148438 290 l 2,6,7
 530.426757812 422 530.426757812 422 423.426757812 422 c 0,8,9
 367.426757812 422 367.426757812 422 318.422851562 383 c 128,-1,10
 269.418945312 344 269.418945312 344 250.94921875 264 c 2,11,-1
 190 0 l 1,12,-1
 83 0 l 1,13,-1
 250.379882812 725 l 1,14,-1
 357.379882812 725 l 1,15,-1
 286.96484375 420 l 1,16,17
 356.743164062 510 356.743164062 510 469.743164062 510 c 0,0,1
EndSplineSet
Substitution2: "'smcp' Lowercase to Small Capitals lookup 12 subtable" h.sc
Substitution2: "'aalt' Access All Alternates lookup 0 subtable" h.sc
EndChar

StartChar: i
Encoding: 105 105 76
Width: 274
GlyphClass: 2
Flags: W
LayerCount: 2
Fore
SplineSet
271.827148438 584 m 128,-1,1
 237.827148438 584 237.827148438 584 222.8671875 601.5 c 128,-1,2
 207.907226562 619 207.907226562 619 215.294921875 651 c 128,-1,3
 222.682617188 683 222.682617188 683 245.607421875 700 c 128,-1,4
 268.532226562 717 268.532226562 717 302.532226562 717 c 0,5,6
 373.532226562 717 373.532226562 717 358.294921875 651 c 0,7,8
 350.907226562 619 350.907226562 619 328.3671875 601.5 c 128,-1,0
 305.827148438 584 305.827148438 584 271.827148438 584 c 128,-1,1
305.434570312 500 m 1,9,-1
 190 0 l 1,10,-1
 83 0 l 1,11,-1
 198.434570312 500 l 1,12,-1
 305.434570312 500 l 1,9,-1
EndSplineSet
Substitution2: "'smcp' Lowercase to Small Capitals lookup 12 subtable" i.sc
Substitution2: "'locl' Localized Forms in Latin lookup 6 subtable" i.loclTRK
Substitution2: "'locl' Localized Forms in Latin lookup 5 subtable" i.loclTRK
Substitution2: "'locl' Localized Forms in Latin lookup 4 subtable" i.loclTRK
Substitution2: "'locl' Localized Forms in Latin lookup 3 subtable" i.loclTRK
Substitution2: "'locl' Localized Forms in Latin lookup 2 subtable" i.loclTRK
Substitution2: "'aalt' Access All Alternates lookup 0 subtable" i.sc
EndChar

StartChar: j
Encoding: 106 106 77
Width: 273
GlyphClass: 2
Flags: W
LayerCount: 2
Fore
SplineSet
302.532226562 717 m 0,0,1
 334.532226562 717 334.532226562 717 349.876953125 699 c 128,-1,2
 365.221679688 681 365.221679688 681 358.294921875 651 c 128,-1,3
 351.369140625 621 351.369140625 621 327.59765625 602.5 c 128,-1,4
 303.827148438 584 303.827148438 584 271.827148438 584 c 0,5,6
 238.827148438 584 238.827148438 584 223.59765625 602.5 c 128,-1,7
 208.369140625 621 208.369140625 621 215.294921875 651 c 128,-1,8
 222.221679688 681 222.221679688 681 245.876953125 699 c 128,-1,9
 269.532226562 717 269.532226562 717 302.532226562 717 c 0,0,1
305.434570312 500 m 1,10,-1
 179.841796875 -44 l 2,11,12
 159.294921875 -133 159.294921875 -133 103.329101562 -174 c 128,-1,13
 47.36328125 -215 47.36328125 -215 -23.63671875 -215 c 0,14,15
 -88.63671875 -215 -88.63671875 -215 -126.017578125 -182 c 1,16,-1
 -87.1630859375 -96 l 1,17,18
 -59.6279296875 -124 -59.6279296875 -124 -16.6279296875 -124 c 0,19,20
 54.3720703125 -124 54.3720703125 -124 75.150390625 -34 c 2,21,-1
 198.434570312 500 l 1,22,-1
 305.434570312 500 l 1,10,-1
EndSplineSet
Substitution2: "'smcp' Lowercase to Small Capitals lookup 12 subtable" j.sc
Substitution2: "'aalt' Access All Alternates lookup 0 subtable" j.sc
EndChar

StartChar: k
Encoding: 107 107 78
Width: 583
GlyphClass: 2
Flags: W
AnchorPoint: "Anchor-0" 319 0 basechar 0
LayerCount: 2
Fore
SplineSet
443 0 m 1,0,-1
 343.25390625 235 l 1,1,-1
 220.705078125 133 l 1,2,-1
 190 0 l 1,3,-1
 83 0 l 1,4,-1
 250.379882812 725 l 1,5,-1
 357.379882812 725 l 1,6,-1
 248.87109375 255 l 1,7,-1
 544.434570312 500 l 1,8,-1
 670.434570312 500 l 1,9,-1
 434.18359375 304 l 1,10,-1
 567 0 l 1,11,-1
 443 0 l 1,0,-1
EndSplineSet
Substitution2: "'smcp' Lowercase to Small Capitals lookup 12 subtable" k.sc
Substitution2: "'aalt' Access All Alternates lookup 0 subtable" k.sc
EndChar

StartChar: l
Encoding: 108 108 79
Width: 312
GlyphClass: 2
Flags: W
AnchorPoint: "Anchor-0" 207 0 basechar 0
LayerCount: 2
Fore
SplineSet
354.379882812 725 m 1,0,-1
 220.70703125 146 l 2,1,2
 212.165039062 109 212.165039062 109 219.817382812 94.5 c 128,-1,3
 227.469726562 80 227.469726562 80 257.469726562 80 c 0,4,5
 289.469726562 80 289.469726562 80 326.470703125 93 c 1,6,-1
 294.616210938 7 l 1,7,8
 256.69140625 -10 256.69140625 -10 207.69140625 -10 c 0,9,10
 140.69140625 -10 140.69140625 -10 117.041015625 24 c 128,-1,11
 93.390625 58 93.390625 58 110.244140625 131 c 2,12,-1
 247.379882812 725 l 1,13,-1
 354.379882812 725 l 1,0,-1
EndSplineSet
Substitution2: "'ss02' Style Set 2 lookup 48 subtable" l.ss02
Substitution2: "'salt' Stylistic Alternatives lookup 42 subtable" l.ss02
Substitution2: "'smcp' Lowercase to Small Capitals lookup 12 subtable" l.sc
AlternateSubs2: "'aalt' Access All Alternates lookup 1 subtable" l.sc l.ss02
Position2: "Single Positioning lookup 6 subtable" dx=0 dy=0 dh=-40 dv=0
EndChar

StartChar: m
Encoding: 109 109 80
Width: 949
GlyphClass: 2
Flags: W
LayerCount: 2
Fore
SplineSet
803.743164062 510 m 0,0,1
 881.743164062 510 881.743164062 510 923.661132812 462 c 128,-1,2
 965.579101562 414 965.579101562 414 944.801757812 324 c 2,3,-1
 870 0 l 1,4,-1
 763 0 l 1,5,-1
 833.876953125 307 l 2,6,7
 847.498046875 366 847.498046875 366 825.961914062 394 c 128,-1,8
 804.426757812 422 804.426757812 422 757.426757812 422 c 0,9,10
 702.426757812 422 702.426757812 422 655.69140625 382 c 128,-1,11
 608.95703125 342 608.95703125 342 592.795898438 272 c 2,12,-1
 530 0 l 1,13,-1
 423 0 l 1,14,-1
 493.876953125 307 l 2,15,16
 507.498046875 366 507.498046875 366 485.961914062 394 c 128,-1,17
 464.426757812 422 464.426757812 422 417.426757812 422 c 0,18,19
 365.426757812 422 365.426757812 422 317.422851562 383 c 128,-1,20
 269.418945312 344 269.418945312 344 251.411132812 266 c 2,21,-1
 190 0 l 1,22,-1
 83 0 l 1,23,-1
 198.434570312 500 l 1,24,-1
 293.434570312 500 l 1,25,-1
 279.272460938 417 l 1,26,27
 352.743164062 510 352.743164062 510 462.743164062 510 c 0,28,29
 518.743164062 510 518.743164062 510 558.35546875 484.5 c 128,-1,30
 597.96875 459 597.96875 459 608.65625 410 c 1,31,32
 642.96875 459 642.96875 459 696.35546875 484.5 c 128,-1,33
 749.743164062 510 749.743164062 510 803.743164062 510 c 0,0,1
EndSplineSet
Substitution2: "'smcp' Lowercase to Small Capitals lookup 12 subtable" m.sc
Substitution2: "'aalt' Access All Alternates lookup 0 subtable" m.sc
EndChar

StartChar: n
Encoding: 110 110 81
Width: 619
GlyphClass: 2
Flags: W
AnchorPoint: "Anchor-0" 335 0 basechar 0
LayerCount: 2
Fore
SplineSet
469.743164062 510 m 0,0,1
 552.743164062 510 552.743164062 510 594.161132812 462 c 128,-1,2
 635.579101562 414 635.579101562 414 614.801757812 324 c 2,3,-1
 540 0 l 1,4,-1
 433 0 l 1,5,-1
 499.952148438 290 l 2,6,7
 530.426757812 422 530.426757812 422 423.426757812 422 c 0,8,9
 367.426757812 422 367.426757812 422 318.538085938 383.5 c 128,-1,10
 269.649414062 345 269.649414062 345 251.1796875 265 c 2,11,-1
 190 0 l 1,12,-1
 83 0 l 1,13,-1
 198.434570312 500 l 1,14,-1
 293.434570312 500 l 1,15,-1
 279.272460938 417 l 1,16,17
 349.743164062 510 349.743164062 510 469.743164062 510 c 0,0,1
EndSplineSet
Substitution2: "Single Substitution lookup 57 subtable" n.swsh
Substitution2: "'swsh' Swash lookup 38 subtable" n.swsh
Substitution2: "'smcp' Lowercase to Small Capitals lookup 12 subtable" n.sc
AlternateSubs2: "'aalt' Access All Alternates lookup 1 subtable" n.sc n.swsh
EndChar

StartChar: o
Encoding: 111 111 82
Width: 606
GlyphClass: 2
Flags: W
LayerCount: 2
Fore
SplineSet
420.743164062 510 m 128,-1,1
 537.743164062 510 537.743164062 510 587.8125 441 c 128,-1,2
 637.8828125 372 637.8828125 372 609.716796875 250 c 128,-1,3
 581.55078125 128 581.55078125 128 499.62109375 59 c 128,-1,4
 417.69140625 -10 417.69140625 -10 300.69140625 -10 c 128,-1,5
 183.69140625 -10 183.69140625 -10 133.62109375 59 c 128,-1,6
 83.55078125 128 83.55078125 128 111.716796875 250 c 128,-1,7
 139.8828125 372 139.8828125 372 221.8125 441 c 128,-1,0
 303.743164062 510 303.743164062 510 420.743164062 510 c 128,-1,1
401.349609375 426 m 128,-1,9
 333.349609375 426 333.349609375 426 286.345703125 380.5 c 128,-1,10
 239.340820312 335 239.340820312 335 219.716796875 250 c 128,-1,11
 200.092773438 165 200.092773438 165 226.088867188 119.5 c 128,-1,12
 252.083984375 74 252.083984375 74 320.083984375 74 c 128,-1,13
 388.083984375 74 388.083984375 74 435.704101562 120 c 128,-1,14
 483.32421875 166 483.32421875 166 502.716796875 250 c 128,-1,15
 522.110351562 334 522.110351562 334 495.729492188 380 c 128,-1,8
 469.349609375 426 469.349609375 426 401.349609375 426 c 128,-1,9
EndSplineSet
Substitution2: "Single Substitution lookup 55 subtable" ordmasculine
Substitution2: "'smcp' Lowercase to Small Capitals lookup 12 subtable" o.sc
AlternateSubs2: "'aalt' Access All Alternates lookup 1 subtable" o.sc ordmasculine
EndChar

StartChar: p
Encoding: 112 112 83
Width: 629
GlyphClass: 2
Flags: W
LayerCount: 2
Fore
SplineSet
469.743164062 510 m 0,0,1
 572.743164062 510 572.743164062 510 615.928710938 441.5 c 128,-1,2
 659.114257812 373 659.114257812 373 630.948242188 251 c 128,-1,3
 602.782226562 129 602.782226562 129 527.736328125 59.5 c 128,-1,4
 452.69140625 -10 452.69140625 -10 349.69140625 -10 c 0,5,6
 295.69140625 -10 295.69140625 -10 258.732421875 14 c 128,-1,7
 221.7734375 38 221.7734375 38 208.469726562 80 c 1,8,-1
 141.517578125 -210 l 1,9,-1
 34.517578125 -210 l 1,10,-1
 198.434570312 500 l 1,11,-1
 292.434570312 500 l 1,12,-1
 275.962890625 407 l 1,13,14
 308.814453125 454 308.814453125 454 359.778320312 482 c 128,-1,15
 410.743164062 510 410.743164062 510 469.743164062 510 c 0,0,1
345.776367188 77 m 0,16,17
 410.776367188 77 410.776367188 77 457.78125 122.5 c 128,-1,18
 504.786132812 168 504.786132812 168 523.716796875 250 c 128,-1,19
 542.6484375 332 542.6484375 332 516.768554688 378 c 128,-1,20
 490.887695312 424 490.887695312 424 425.887695312 424 c 0,21,22
 364.887695312 424 364.887695312 424 318.922851562 383 c 128,-1,23
 272.95703125 342 272.95703125 342 252.103515625 269 c 1,24,-1
 243.330078125 231 l 1,25,26
 230.708007812 159 230.708007812 159 257.7421875 118 c 128,-1,27
 284.776367188 77 284.776367188 77 345.776367188 77 c 0,16,17
EndSplineSet
Substitution2: "'smcp' Lowercase to Small Capitals lookup 12 subtable" p.sc
Substitution2: "'aalt' Access All Alternates lookup 0 subtable" p.sc
EndChar

StartChar: q
Encoding: 113 113 84
Width: 630
GlyphClass: 2
Flags: W
LayerCount: 2
Fore
SplineSet
568.434570312 500 m 1,0,-1
 662.434570312 500 l 1,1,-1
 498.517578125 -210 l 1,2,-1
 391.517578125 -210 l 1,3,-1
 458.700195312 81 l 1,4,5
 387.69140625 -10 387.69140625 -10 276.69140625 -10 c 0,6,7
 173.69140625 -10 173.69140625 -10 130.236328125 59.5 c 128,-1,8
 86.7822265625 129 86.7822265625 129 114.948242188 251 c 128,-1,9
 143.114257812 373 143.114257812 373 217.928710938 441.5 c 128,-1,10
 292.743164062 510 292.743164062 510 395.743164062 510 c 0,11,12
 454.743164062 510 454.743164062 510 492.893554688 482.5 c 128,-1,13
 531.044921875 455 531.044921875 455 542.194335938 408 c 1,14,-1
 568.434570312 500 l 1,0,-1
319.776367188 77 m 0,15,16
 382.776367188 77 382.776367188 77 430.55078125 121.5 c 128,-1,17
 478.32421875 166 478.32421875 166 496.33203125 244 c 2,18,-1
 499.102539062 256 l 2,19,20
 517.110351562 334 517.110351562 334 489.999023438 379 c 128,-1,21
 462.887695312 424 462.887695312 424 399.887695312 424 c 0,22,23
 334.887695312 424 334.887695312 424 287.768554688 378 c 128,-1,24
 240.6484375 332 240.6484375 332 221.716796875 250 c 128,-1,25
 202.786132812 168 202.786132812 168 228.78125 122.5 c 128,-1,26
 254.776367188 77 254.776367188 77 319.776367188 77 c 0,15,16
EndSplineSet
Substitution2: "'smcp' Lowercase to Small Capitals lookup 12 subtable" q.sc
Substitution2: "'aalt' Access All Alternates lookup 0 subtable" q.sc
EndChar

StartChar: r
Encoding: 114 114 85
Width: 414
GlyphClass: 2
Flags: W
AnchorPoint: "Anchor-0" 152 0 basechar 0
LayerCount: 2
Fore
SplineSet
458.743164062 510 m 0,0,1
 493.743164062 510 493.743164062 510 511.434570312 500 c 1,2,-1
 471.80859375 402 l 1,3,4
 451.810546875 415 451.810546875 415 411.810546875 415 c 0,5,6
 361.810546875 415 361.810546875 415 314.69140625 375.5 c 128,-1,7
 267.571289062 336 267.571289062 336 251.1796875 265 c 2,8,-1
 190 0 l 1,9,-1
 83 0 l 1,10,-1
 198.434570312 500 l 1,11,-1
 289.434570312 500 l 1,12,-1
 277.65625 410 l 1,13,14
 342.743164062 510 342.743164062 510 458.743164062 510 c 0,0,1
EndSplineSet
Substitution2: "Single Substitution lookup 57 subtable" r.swsh
Substitution2: "'swsh' Swash lookup 38 subtable" r.swsh
Substitution2: "'smcp' Lowercase to Small Capitals lookup 12 subtable" r.sc
AlternateSubs2: "'aalt' Access All Alternates lookup 1 subtable" r.sc r.swsh
EndChar

StartChar: s
Encoding: 115 115 86
Width: 529
GlyphClass: 2
Flags: W
AnchorPoint: "Anchor-0" 278 0 basechar 0
LayerCount: 2
Fore
SplineSet
261.69140625 -10 m 0,0,1
 98.69140625 -10 98.69140625 -10 62.9326171875 95 c 1,2,-1
 149.24609375 157 l 1,3,4
 166.083984375 74 166.083984375 74 285.083984375 74 c 0,5,6
 336.083984375 74 336.083984375 74 367.893554688 90.5 c 128,-1,7
 399.703125 107 399.703125 107 405.936523438 134 c 0,8,9
 411.477539062 158 411.477539062 158 388.825195312 172.5 c 128,-1,10
 366.171875 187 366.171875 187 305.173828125 200 c 0,11,12
 199.021484375 221 199.021484375 221 162.102539062 256 c 128,-1,13
 125.182617188 291 125.182617188 291 139.958007812 355 c 128,-1,14
 154.733398438 419 154.733398438 419 222.23828125 464.5 c 128,-1,15
 289.743164062 510 289.743164062 510 385.743164062 510 c 0,16,17
 468.743164062 510 468.743164062 510 512.393554688 482.5 c 128,-1,18
 556.044921875 455 556.044921875 455 569.654296875 397 c 1,19,-1
 478.264648438 339 l 1,20,21
 465.349609375 426 465.349609375 426 367.349609375 426 c 0,22,23
 322.349609375 426 322.349609375 426 288.579101562 407.5 c 128,-1,24
 254.807617188 389 254.807617188 389 249.266601562 365 c 0,25,26
 243.033203125 338 243.033203125 338 265.83984375 322 c 128,-1,27
 288.645507812 306 288.645507812 306 355.64453125 293 c 0,28,29
 457.2578125 274 457.2578125 274 493.177734375 239 c 128,-1,30
 529.096679688 204 529.096679688 204 514.552734375 141 c 0,31,32
 499.083984375 74 499.083984375 74 431.387695312 32 c 128,-1,33
 363.69140625 -10 363.69140625 -10 261.69140625 -10 c 0,0,1
EndSplineSet
Substitution2: "'hist' Historical Forms lookup 44 subtable" longs
Substitution2: "'smcp' Lowercase to Small Capitals lookup 12 subtable" s.sc
AlternateSubs2: "'aalt' Access All Alternates lookup 1 subtable" s.sc longs
EndChar

StartChar: t
Encoding: 116 116 87
Width: 424
GlyphClass: 2
Flags: W
AnchorPoint: "Anchor-0" 255 0 basechar 0
LayerCount: 2
Fore
SplineSet
407.625976562 111 m 1,0,-1
 414.618164062 33 l 1,1,2
 353.69140625 -10 353.69140625 -10 271.69140625 -10 c 0,3,4
 202.69140625 -10 202.69140625 -10 169.15625 24.5 c 128,-1,5
 135.62109375 59 135.62109375 59 151.474609375 132 c 2,6,-1
 217.041015625 416 l 1,7,-1
 122.041015625 416 l 1,8,-1
 141.434570312 500 l 1,9,-1
 236.434570312 500 l 1,10,-1
 263.4453125 617 l 1,11,-1
 377.372070312 647 l 1,12,-1
 343.434570312 500 l 1,13,-1
 518.434570312 500 l 1,14,-1
 499.041015625 416 l 1,15,-1
 324.041015625 416 l 1,16,-1
 262.629882812 150 l 2,17,18
 246.23828125 79 246.23828125 79 319.23828125 79 c 0,19,20
 365.23828125 79 365.23828125 79 407.625976562 111 c 1,0,-1
EndSplineSet
Substitution2: "Single Substitution lookup 57 subtable" t.swsh
Substitution2: "'swsh' Swash lookup 38 subtable" t.swsh
Substitution2: "'smcp' Lowercase to Small Capitals lookup 12 subtable" t.sc
AlternateSubs2: "'aalt' Access All Alternates lookup 1 subtable" t.sc t.swsh
EndChar

StartChar: u
Encoding: 117 117 88
Width: 619
GlyphClass: 2
Flags: W
LayerCount: 2
Fore
SplineSet
544.434570312 500 m 1,0,-1
 651.434570312 500 l 1,1,-1
 536 0 l 1,2,-1
 441 0 l 1,3,-1
 455.700195312 81 l 1,4,5
 383.69140625 -10 383.69140625 -10 256.69140625 -10 c 0,6,7
 175.69140625 -10 175.69140625 -10 136.46484375 34.5 c 128,-1,8
 97.23828125 79 97.23828125 79 118.478515625 171 c 2,9,-1
 194.434570312 500 l 1,10,-1
 301.434570312 500 l 1,11,-1
 231.942382812 199 l 2,12,13
 216.705078125 133 216.705078125 133 236.356445312 105.5 c 128,-1,14
 256.0078125 78 256.0078125 78 307.0078125 78 c 0,15,16
 368.0078125 78 368.0078125 78 416.396484375 116.5 c 128,-1,17
 464.784179688 155 464.784179688 155 482.099609375 230 c 2,18,-1
 544.434570312 500 l 1,0,-1
EndSplineSet
Substitution2: "'smcp' Lowercase to Small Capitals lookup 12 subtable" u.sc
Substitution2: "'aalt' Access All Alternates lookup 0 subtable" u.sc
EndChar

StartChar: v
Encoding: 118 118 89
Width: 532
GlyphClass: 2
Flags: W
LayerCount: 2
Fore
SplineSet
527.434570312 500 m 1,0,-1
 639.434570312 500 l 1,1,-1
 325 0 l 1,2,-1
 208 0 l 1,3,-1
 123.434570312 500 l 1,4,-1
 241.434570312 500 l 1,5,-1
 287.0859375 87 l 1,6,-1
 527.434570312 500 l 1,0,-1
EndSplineSet
Substitution2: "'smcp' Lowercase to Small Capitals lookup 12 subtable" v.sc
Substitution2: "'aalt' Access All Alternates lookup 0 subtable" v.sc
EndChar

StartChar: w
Encoding: 119 119 90
Width: 871
GlyphClass: 2
Flags: W
LayerCount: 2
Fore
SplineSet
842.434570312 500 m 1,0,-1
 958.434570312 500 l 1,1,-1
 676 0 l 1,2,-1
 559 0 l 1,3,-1
 520.268554688 378 l 1,4,-1
 313 0 l 1,5,-1
 196 0 l 1,6,-1
 144.434570312 500 l 1,7,-1
 260.434570312 500 l 1,8,-1
 281.086914062 100 l 1,9,-1
 498.434570312 500 l 1,10,-1
 604.434570312 500 l 1,11,-1
 636.086914062 100 l 1,12,-1
 842.434570312 500 l 1,0,-1
EndSplineSet
Substitution2: "'smcp' Lowercase to Small Capitals lookup 12 subtable" w.sc
Substitution2: "'aalt' Access All Alternates lookup 0 subtable" w.sc
EndChar

StartChar: x
Encoding: 120 120 91
Width: 550
GlyphClass: 2
Flags: W
LayerCount: 2
Fore
SplineSet
525 0 m 1,0,-1
 399 0 l 1,1,-1
 316.403320312 188 l 1,2,-1
 143 0 l 1,3,-1
 22 0 l 1,4,-1
 268.178710938 252 l 1,5,-1
 147.434570312 500 l 1,6,-1
 275.434570312 500 l 1,7,-1
 353.646484375 319 l 1,8,-1
 514.434570312 500 l 1,9,-1
 637.434570312 500 l 1,10,-1
 401.87109375 255 l 1,11,-1
 525 0 l 1,0,-1
EndSplineSet
Substitution2: "'smcp' Lowercase to Small Capitals lookup 12 subtable" x.sc
Substitution2: "'aalt' Access All Alternates lookup 0 subtable" x.sc
EndChar

StartChar: y
Encoding: 121 121 92
Width: 546
GlyphClass: 2
Flags: W
LayerCount: 2
Fore
SplineSet
648.434570312 500 m 1,0,-1
 300.37890625 -59 l 2,1,2
 247.524414062 -145 247.524414062 -145 197.443359375 -180 c 128,-1,3
 147.36328125 -215 147.36328125 -215 79.36328125 -215 c 0,4,5
 4.36328125 -215 4.36328125 -215 -29.40234375 -175 c 1,6,-1
 20.529296875 -93 l 1,7,8
 42.2177734375 -129 42.2177734375 -129 94.2177734375 -129 c 0,9,10
 124.217773438 -129 124.217773438 -129 148.296875 -113.5 c 128,-1,11
 172.375 -98 172.375 -98 197.840820312 -57 c 2,12,-1
 232.307617188 -3 l 1,13,-1
 208.934570312 121 l 1,14,-1
 140.434570312 500 l 1,15,-1
 260.434570312 500 l 1,16,-1
 297.94140625 186 l 1,17,-1
 305.240234375 92 l 1,18,-1
 363.01953125 195 l 1,19,-1
 537.434570312 500 l 1,20,-1
 648.434570312 500 l 1,0,-1
EndSplineSet
Substitution2: "Single Substitution lookup 57 subtable" y.swsh
Substitution2: "'swsh' Swash lookup 38 subtable" y.swsh
Substitution2: "'smcp' Lowercase to Small Capitals lookup 12 subtable" y.sc
AlternateSubs2: "'aalt' Access All Alternates lookup 1 subtable" y.sc y.swsh
EndChar

StartChar: z
Encoding: 122 122 93
Width: 528
GlyphClass: 2
Flags: W
LayerCount: 2
Fore
SplineSet
51 0 m 1,0,-1
 68.083984375 74 l 1,1,-1
 376.189453125 356 l 1,2,-1
 450.502929688 418 l 1,3,-1
 364.041015625 416 l 1,4,-1
 149.041015625 416 l 1,5,-1
 168.434570312 500 l 1,6,-1
 587.434570312 500 l 1,7,-1
 570.349609375 426 l 1,8,-1
 263.245117188 144 l 1,9,-1
 188.931640625 82 l 1,10,-1
 284.392578125 84 l 1,11,-1
 500.392578125 84 l 1,12,-1
 481 0 l 1,13,-1
 51 0 l 1,0,-1
EndSplineSet
Substitution2: "'smcp' Lowercase to Small Capitals lookup 12 subtable" z.sc
Substitution2: "'aalt' Access All Alternates lookup 0 subtable" z.sc
EndChar

StartChar: braceleft
Encoding: 123 123 94
Width: 372
GlyphClass: 2
Flags: W
LayerCount: 2
Fore
SplineSet
225.45703125 -50 m 2,0,1
 218.068359375 -82 218.068359375 -82 238.10546875 -97 c 128,-1,2
 258.142578125 -112 258.142578125 -112 310.142578125 -112 c 1,3,-1
 281.134765625 -190 l 1,4,5
 184.134765625 -190 184.134765625 -190 149.869140625 -156.5 c 128,-1,6
 115.603515625 -123 115.603515625 -123 131.995117188 -52 c 2,7,-1
 174.705078125 133 l 2,8,9
 187.633789062 189 187.633789062 189 167.674804688 213 c 128,-1,10
 147.715820312 237 147.715820312 237 86.7158203125 237 c 1,11,-1
 105.646484375 319 l 1,12,13
 166.646484375 319 166.646484375 319 197.6875 343 c 128,-1,14
 228.728515625 367 228.728515625 367 241.657226562 423 c 2,15,-1
 284.598632812 609 l 2,16,17
 300.990234375 680 300.990234375 680 350.724609375 713.5 c 128,-1,18
 400.458984375 747 400.458984375 747 497.458984375 747 c 1,19,-1
 490.451171875 669 l 1,20,21
 391.451171875 669 391.451171875 669 377.13671875 607 c 2,22,-1
 331.194335938 408 l 2,23,24
 307.645507812 306 307.645507812 306 190.181640625 278 c 1,25,26
 295.178710938 252 295.178710938 252 271.399414062 149 c 2,27,-1
 225.45703125 -50 l 2,0,1
EndSplineSet
Substitution2: "'case' Case-Sensitive Forms lookup 29 subtable" braceleft.case
Substitution2: "'aalt' Access All Alternates lookup 0 subtable" braceleft.case
EndChar

StartChar: bar
Encoding: 124 124 95
Width: 266
GlyphClass: 2
Flags: W
LayerCount: 2
Fore
SplineSet
347.379882812 725 m 1,0,-1
 141.213867188 -168 l 1,1,-1
 47.2138671875 -168 l 1,2,-1
 253.379882812 725 l 1,3,-1
 347.379882812 725 l 1,0,-1
EndSplineSet
Substitution2: "'case' Case-Sensitive Forms lookup 29 subtable" bar.case
Substitution2: "'aalt' Access All Alternates lookup 0 subtable" bar.case
EndChar

StartChar: braceright
Encoding: 125 125 96
Width: 372
GlyphClass: 2
Flags: W
LayerCount: 2
Fore
SplineSet
325.657226562 423 m 2,0,1
 312.728515625 367 312.728515625 367 332.6875 343 c 128,-1,2
 352.646484375 319 352.646484375 319 413.646484375 319 c 1,3,-1
 394.715820312 237 l 1,4,5
 333.715820312 237 333.715820312 237 302.674804688 213 c 128,-1,6
 271.633789062 189 271.633789062 189 258.705078125 133 c 2,7,-1
 215.995117188 -52 l 2,8,9
 199.603515625 -123 199.603515625 -123 149.869140625 -156.5 c 128,-1,10
 100.134765625 -190 100.134765625 -190 3.134765625 -190 c 1,11,-1
 10.142578125 -112 l 1,12,13
 62.142578125 -112 62.142578125 -112 88.60546875 -97 c 128,-1,14
 115.068359375 -82 115.068359375 -82 122.45703125 -50 c 2,15,-1
 168.399414062 149 l 2,16,17
 192.178710938 252 192.178710938 252 309.181640625 278 c 1,18,19
 204.645507812 306 204.645507812 306 228.194335938 408 c 2,20,-1
 274.13671875 607 l 2,21,22
 281.524414062 639 281.524414062 639 261.98828125 654 c 128,-1,23
 242.451171875 669 242.451171875 669 190.451171875 669 c 1,24,-1
 219.458984375 747 l 1,25,26
 316.458984375 747 316.458984375 747 350.724609375 713.5 c 128,-1,27
 384.990234375 680 384.990234375 680 368.598632812 609 c 2,28,-1
 325.657226562 423 l 2,0,1
EndSplineSet
Substitution2: "'case' Case-Sensitive Forms lookup 29 subtable" braceright.case
Substitution2: "'aalt' Access All Alternates lookup 0 subtable" braceright.case
EndChar

StartChar: asciitilde
Encoding: 126 126 97
Width: 557
GlyphClass: 2
Flags: W
LayerCount: 2
Fore
SplineSet
605.423828125 396 m 1,0,1
 557.0234375 234 557.0234375 234 429.0234375 234 c 0,2,3
 390.0234375 234 390.0234375 234 361.178710938 252 c 128,-1,4
 332.333984375 270 332.333984375 270 309.875 287.5 c 128,-1,5
 287.415039062 305 287.415039062 305 264.415039062 305 c 0,6,7
 217.415039062 305 217.415039062 305 190.25390625 235 c 1,8,-1
 97.25390625 235 l 1,9,10
 145.885742188 398 145.885742188 398 274.885742188 398 c 0,11,12
 312.885742188 398 312.885742188 398 341.729492188 380 c 128,-1,13
 370.57421875 362 370.57421875 362 393.534179688 344.5 c 128,-1,14
 416.494140625 327 416.494140625 327 439.494140625 327 c 0,15,16
 485.494140625 327 485.494140625 327 512.423828125 396 c 1,17,-1
 605.423828125 396 l 1,0,1
EndSplineSet
EndChar

StartChar: exclamdown
Encoding: 161 161 99
Width: 274
GlyphClass: 2
Flags: W
LayerCount: 2
Fore
SplineSet
221.959960938 368 m 128,-1,1
 187.959960938 368 187.959960938 368 172.4609375 387.5 c 128,-1,2
 156.962890625 407 156.962890625 407 164.3515625 439 c 128,-1,3
 171.739257812 471 171.739257812 471 196.125 490 c 128,-1,4
 220.51171875 509 220.51171875 509 254.51171875 509 c 0,5,6
 289.51171875 509 289.51171875 509 305.125 490 c 128,-1,7
 320.739257812 471 320.739257812 471 313.3515625 439 c 128,-1,8
 305.962890625 407 305.962890625 407 280.9609375 387.5 c 128,-1,0
 255.959960938 368 255.959960938 368 221.959960938 368 c 128,-1,1
44.0615234375 -160 m 1,9,-1
 105.010742188 104 l 1,10,-1
 161.952148438 290 l 1,11,-1
 245.952148438 290 l 1,12,-1
 217.010742188 104 l 1,13,-1
 156.061523438 -160 l 1,14,-1
 44.0615234375 -160 l 1,9,-1
EndSplineSet
Substitution2: "'case' Case-Sensitive Forms lookup 29 subtable" exclamdown.case
Substitution2: "'smcp' Lowercase to Small Capitals lookup 12 subtable" exclamdown.sc
Substitution2: "'c2sc' Capitals to Small Capitals lookup 11 subtable" exclamdown.sc
AlternateSubs2: "'aalt' Access All Alternates lookup 1 subtable" exclamdown.sc exclamdown.case
EndChar

StartChar: cent
Encoding: 162 162 100
Width: 604
GlyphClass: 2
Flags: W
LayerCount: 2
Fore
SplineSet
562.321289062 140 m 1,0,1
 530.545898438 76 530.545898438 76 473.541992188 37 c 128,-1,2
 416.538085938 -2 416.538085938 -2 341.921875 -9 c 1,3,-1
 320.913085938 -100 l 1,4,-1
 247.913085938 -100 l 1,5,-1
 269.153320312 -8 l 1,6,7
 173.154296875 5 173.154296875 5 134.122070312 72 c 128,-1,8
 95.0908203125 139 95.0908203125 139 120.716796875 250 c 128,-1,9
 146.34375 361 146.34375 361 216.926757812 428.5 c 128,-1,10
 287.510742188 496 287.510742188 496 388.28125 508 c 1,11,-1
 409.520507812 600 l 1,12,-1
 482.520507812 600 l 1,13,-1
 461.28125 508 l 1,14,15
 598.279296875 495 598.279296875 495 612.420898438 370 c 1,16,-1
 511.416992188 331 l 1,17,18
 507.579101562 414 507.579101562 414 443.041992188 429 c 1,19,-1
 360.161132812 70 l 1,20,21
 439.624023438 85 439.624023438 85 482.248046875 170 c 1,22,-1
 562.321289062 140 l 1,0,1
217.486328125 249 m 0,23,24
 182.163085938 96 182.163085938 96 287.391601562 71 c 1,25,-1
 370.041992188 429 l 1,26,27
 253.270507812 404 253.270507812 404 217.486328125 249 c 0,23,24
EndSplineSet
Substitution2: "'tnum' Tabular Numbers lookup 26 subtable" cent.tf
Substitution2: "'aalt' Access All Alternates lookup 0 subtable" cent.tf
EndChar

StartChar: sterling
Encoding: 163 163 101
Width: 604
GlyphClass: 2
Flags: W
LayerCount: 2
Fore
SplineSet
596.938476562 160 m 1,0,1
 580.23828125 79 580.23828125 79 535.46484375 34.5 c 128,-1,2
 490.69140625 -10 490.69140625 -10 425.69140625 -10 c 0,3,4
 363.69140625 -10 363.69140625 -10 293.08203125 48 c 1,5,6
 228.69140625 -10 228.69140625 -10 144.69140625 -10 c 0,7,8
 94.69140625 -10 94.69140625 -10 69.732421875 14 c 128,-1,9
 44.7734375 38 44.7734375 38 54.0078125 78 c 0,10,11
 63.01171875 117 63.01171875 117 101.3984375 142.5 c 128,-1,12
 139.786132812 168 139.786132812 168 192.786132812 168 c 128,-1,13
 245.786132812 168 245.786132812 168 288.475585938 145 c 1,14,15
 291.323242188 153 291.323242188 153 295.248046875 170 c 0,16,17
 307.021484375 221 307.021484375 221 284.48828125 275 c 1,18,-1
 128.48828125 275 l 1,19,-1
 145.341796875 348 l 1,20,-1
 248.341796875 348 l 1,21,22
 217.041015625 416 217.041015625 416 229.27734375 469 c 0,23,24
 249.362304688 556 249.362304688 556 321.522460938 613 c 128,-1,25
 393.681640625 670 393.681640625 670 488.681640625 670 c 0,26,27
 646.681640625 670 646.681640625 670 651.51171875 509 c 1,28,-1
 552.584960938 466 l 1,29,30
 554.206054688 525 554.206054688 525 533.28515625 553.5 c 128,-1,31
 512.365234375 582 512.365234375 582 463.365234375 582 c 0,32,33
 412.365234375 582 412.365234375 582 375.28515625 553.5 c 128,-1,34
 338.206054688 525 338.206054688 525 327.124023438 477 c 0,35,36
 320.890625 450 320.890625 450 325.50390625 424.5 c 128,-1,37
 330.116210938 399 330.116210938 399 350.189453125 356 c 2,38,-1
 353.341796875 348 l 1,39,-1
 537.341796875 348 l 1,40,-1
 520.48828125 275 l 1,41,-1
 377.48828125 275 l 1,42,43
 386.407226562 227 386.407226562 227 374.094726562 178 c 0,44,45
 363.090820312 139 363.090820312 139 342.241210938 105 c 1,46,47
 383.9296875 69 383.9296875 69 427.9296875 69 c 0,48,49
 464.9296875 69 464.9296875 69 487.008789062 91 c 128,-1,50
 509.087890625 113 509.087890625 113 520.631835938 163 c 1,51,-1
 596.938476562 160 l 1,0,1
165.850585938 47 m 0,52,53
 216.850585938 47 216.850585938 47 249.931640625 82 c 1,54,55
 215.703125 107 215.703125 107 179.703125 107 c 0,56,57
 137.703125 107 137.703125 107 131.0078125 78 c 0,58,59
 123.850585938 47 123.850585938 47 165.850585938 47 c 0,52,53
EndSplineSet
Substitution2: "'tnum' Tabular Numbers lookup 26 subtable" sterling.tf
Substitution2: "'aalt' Access All Alternates lookup 0 subtable" sterling.tf
EndChar

StartChar: currency
Encoding: 164 164 102
Width: 604
GlyphClass: 2
Flags: W
LayerCount: 2
Fore
SplineSet
588.956054688 329 m 0,0,1
 573.487304688 262 573.487304688 262 528.482421875 210 c 1,2,-1
 599.627929688 124 l 1,3,-1
 519.62109375 59 l 1,4,-1
 451.629882812 150 l 1,5,6
 394.473632812 119 394.473632812 119 329.473632812 119 c 128,-1,7
 264.473632812 119 264.473632812 119 218.861328125 151 c 1,8,-1
 110.62109375 59 l 1,9,-1
 60.6279296875 124 l 1,10,-1
 170.944335938 212 l 1,11,12
 151.1796875 265 151.1796875 265 165.956054688 329 c 0,13,14
 181.193359375 395 181.193359375 395 226.198242188 447 c 1,15,-1
 155.052734375 533 l 1,16,-1
 235.059570312 598 l 1,17,-1
 303.049804688 507 l 1,18,19
 360.20703125 538 360.20703125 538 426.20703125 538 c 0,20,21
 493.20703125 538 493.20703125 538 535.819335938 506 c 1,22,-1
 644.059570312 598 l 1,23,-1
 694.052734375 533 l 1,24,-1
 583.736328125 445 l 1,25,26
 604.193359375 395 604.193359375 395 588.956054688 329 c 0,0,1
349.328125 205 m 0,27,28
 399.328125 205 399.328125 205 440.408203125 240 c 128,-1,29
 481.48828125 275 481.48828125 275 493.956054688 329 c 128,-1,30
 506.422851562 383 506.422851562 383 481.387695312 417.5 c 128,-1,31
 456.352539062 452 456.352539062 452 406.352539062 452 c 0,32,33
 355.352539062 452 355.352539062 452 314.387695312 417.5 c 128,-1,34
 273.422851562 383 273.422851562 383 260.956054688 329 c 128,-1,35
 248.48828125 275 248.48828125 275 273.408203125 240 c 128,-1,36
 298.328125 205 298.328125 205 349.328125 205 c 0,27,28
EndSplineSet
Substitution2: "'tnum' Tabular Numbers lookup 26 subtable" currency.tf
Substitution2: "'aalt' Access All Alternates lookup 0 subtable" currency.tf
EndChar

StartChar: yen
Encoding: 165 165 103
Width: 604
GlyphClass: 2
Flags: W
LayerCount: 2
Fore
SplineSet
437.336914062 296 m 1,0,-1
 483.029296875 299 l 1,1,-1
 606.029296875 299 l 1,2,-1
 592.408203125 240 l 1,3,-1
 405.408203125 240 l 1,4,-1
 388.5546875 167 l 1,5,-1
 575.5546875 167 l 1,6,-1
 562.625976562 111 l 1,7,-1
 375.625976562 111 l 1,8,-1
 350 0 l 1,9,-1
 254 0 l 1,10,-1
 279.625976562 111 l 1,11,-1
 93.6259765625 111 l 1,12,-1
 106.5546875 167 l 1,13,-1
 292.5546875 167 l 1,14,-1
 309.408203125 240 l 1,15,-1
 123.408203125 240 l 1,16,-1
 137.029296875 299 l 1,17,-1
 259.029296875 299 l 1,18,-1
 303.336914062 296 l 1,19,-1
 175.373046875 660 l 1,20,-1
 289.373046875 660 l 1,21,-1
 355.581054688 427 l 1,22,-1
 376.494140625 327 l 1,23,-1
 378.494140625 327 l 1,24,-1
 445.811523438 428 l 1,25,-1
 619.373046875 660 l 1,26,-1
 733.373046875 660 l 1,27,-1
 437.336914062 296 l 1,0,-1
EndSplineSet
Substitution2: "'tnum' Tabular Numbers lookup 26 subtable" yen.tf
Substitution2: "'aalt' Access All Alternates lookup 0 subtable" yen.tf
EndChar

StartChar: brokenbar
Encoding: 166 166 104
Width: 260
GlyphClass: 2
Flags: W
LayerCount: 2
Fore
SplineSet
344.379882812 725 m 1,0,-1
 259.419921875 357 l 1,1,-1
 165.419921875 357 l 1,2,-1
 250.379882812 725 l 1,3,-1
 344.379882812 725 l 1,0,-1
223.173828125 200 m 1,4,-1
 138.213867188 -168 l 1,5,-1
 44.2138671875 -168 l 1,6,-1
 129.173828125 200 l 1,7,-1
 223.173828125 200 l 1,4,-1
EndSplineSet
EndChar

StartChar: section
Encoding: 167 167 105
Width: 605
GlyphClass: 2
Flags: W
LayerCount: 2
Fore
SplineSet
642.02734375 273 m 0,0,1
 621.94140625 186 621.94140625 186 523.936523438 134 c 1,2,3
 541.85546875 99 541.85546875 99 529.620117188 46 c 0,4,5
 513.920898438 -22 513.920898438 -22 444.762695312 -66 c 128,-1,6
 375.604492188 -110 375.604492188 -110 277.604492188 -110 c 0,7,8
 130.604492188 -110 130.604492188 -110 80.69140625 -10 c 1,9,-1
 162.08203125 48 l 1,10,11
 189.536132812 -28 189.536132812 -28 295.536132812 -28 c 0,12,13
 354.536132812 -28 354.536132812 -28 390.4609375 -11 c 128,-1,14
 426.384765625 6 426.384765625 6 433.541992188 37 c 0,15,16
 442.315429688 75 442.315429688 75 411.047851562 95.5 c 128,-1,17
 379.780273438 116 379.780273438 116 289.55078125 128 c 0,18,19
 168.013671875 143 168.013671875 143 123.440429688 179.5 c 128,-1,20
 78.8671875 216 78.8671875 216 94.7978515625 285 c 0,21,22
 115.114257812 373 115.114257812 373 213.887695312 424 c 1,23,24
 195.506835938 457 195.506835938 457 207.973632812 511 c 0,25,26
 223.903320312 580 223.903320312 580 294.29296875 625 c 128,-1,27
 364.681640625 670 364.681640625 670 465.681640625 670 c 0,28,29
 546.681640625 670 546.681640625 670 590.294921875 644.5 c 128,-1,30
 633.907226562 619 633.907226562 619 657.594726562 570 c 1,31,-1
 578.435546875 513 l 1,32,33
 561.208007812 551 561.208007812 551 530.979492188 569.5 c 128,-1,34
 500.750976562 588 500.750976562 588 445.750976562 588 c 0,35,36
 385.750976562 588 385.750976562 588 348.594726562 570 c 128,-1,37
 311.439453125 552 311.439453125 552 304.282226562 521 c 0,38,39
 295.278320312 482 295.278320312 482 326.045898438 461.5 c 128,-1,40
 356.8125 441 356.8125 441 447.2734375 430 c 0,41,42
 568.810546875 415 568.810546875 415 613.383789062 378.5 c 128,-1,43
 657.95703125 342 657.95703125 342 642.02734375 273 c 0,0,1
190.567382812 297 m 0,44,45
 182.71875 263 182.71875 263 212.0625 245 c 128,-1,46
 241.407226562 227 241.407226562 227 327.098632812 217 c 0,47,48
 417.55859375 206 417.55859375 206 463.7109375 185 c 1,49,50
 535.944335938 212 535.944335938 212 547.256835938 261 c 0,51,52
 555.106445312 295 555.106445312 295 524.646484375 312.5 c 128,-1,53
 494.186523438 330 494.186523438 330 409.495117188 340 c 0,54,55
 319.03515625 351 319.03515625 351 272.8828125 372 c 1,56,57
 201.418945312 344 201.418945312 344 190.567382812 297 c 0,44,45
EndSplineSet
EndChar

StartChar: dieresis
Encoding: 168 168 106
Width: 500
GlyphClass: 2
Flags: W
LayerCount: 2
Fore
SplineSet
312.607421875 700 m 0,0,1
 342.607421875 700 342.607421875 700 356.682617188 683 c 128,-1,2
 370.7578125 666 370.7578125 666 364.063476562 637 c 128,-1,3
 357.368164062 608 357.368164062 608 335.443359375 591 c 128,-1,4
 313.518554688 574 313.518554688 574 283.518554688 574 c 0,5,6
 254.518554688 574 254.518554688 574 240.55859375 591.5 c 128,-1,7
 226.598632812 609 226.598632812 609 233.063476562 637 c 0,8,9
 239.7578125 666 239.7578125 666 261.682617188 683 c 128,-1,10
 283.607421875 700 283.607421875 700 312.607421875 700 c 0,0,1
514.607421875 700 m 128,-1,12
 544.607421875 700 544.607421875 700 558.682617188 683 c 128,-1,13
 572.7578125 666 572.7578125 666 566.063476562 637 c 128,-1,14
 559.368164062 608 559.368164062 608 537.443359375 591 c 128,-1,15
 515.518554688 574 515.518554688 574 485.518554688 574 c 128,-1,16
 455.518554688 574 455.518554688 574 441.943359375 591 c 128,-1,17
 428.368164062 608 428.368164062 608 435.063476562 637 c 128,-1,18
 441.7578125 666 441.7578125 666 463.182617188 683 c 128,-1,11
 484.607421875 700 484.607421875 700 514.607421875 700 c 128,-1,12
EndSplineSet
EndChar

StartChar: copyright
Encoding: 169 169 107
Width: 806
GlyphClass: 2
Flags: W
LayerCount: 2
Fore
SplineSet
557.681640625 670 m 128,-1,1
 713.681640625 670 713.681640625 670 785.826171875 577.5 c 128,-1,2
 857.970703125 485 857.970703125 485 822.186523438 330 c 128,-1,3
 786.40234375 175 786.40234375 175 671.546875 82.5 c 128,-1,4
 556.69140625 -10 556.69140625 -10 400.69140625 -10 c 128,-1,5
 244.69140625 -10 244.69140625 -10 172.546875 82.5 c 128,-1,6
 100.40234375 175 100.40234375 175 136.186523438 330 c 128,-1,7
 171.970703125 485 171.970703125 485 286.826171875 577.5 c 128,-1,0
 401.681640625 670 401.681640625 670 557.681640625 670 c 128,-1,1
541.290039062 599 m 128,-1,9
 420.290039062 599 420.290039062 599 330.321289062 525.5 c 128,-1,10
 240.352539062 452 240.352539062 452 212.186523438 330 c 128,-1,11
 184.020507812 208 184.020507812 208 240.051757812 134.5 c 128,-1,12
 296.083007812 61 296.083007812 61 417.083007812 61 c 128,-1,13
 538.083007812 61 538.083007812 61 627.551757812 134.5 c 128,-1,14
 717.020507812 208 717.020507812 208 745.186523438 330 c 128,-1,15
 773.352539062 452 773.352539062 452 717.821289062 525.5 c 128,-1,8
 662.290039062 599 662.290039062 599 541.290039062 599 c 128,-1,9
525.897460938 515 m 0,16,17
 646.897460938 515 646.897460938 515 665.810546875 415 c 1,18,-1
 587.9609375 381 l 1,19,20
 578.120117188 438 578.120117188 438 510.120117188 438 c 0,21,22
 463.120117188 438 463.120117188 438 429.424804688 409 c 128,-1,23
 395.729492188 380 395.729492188 380 383.724609375 328 c 128,-1,24
 371.719726562 276 371.719726562 276 392.024414062 247 c 128,-1,25
 412.329101562 218 412.329101562 218 459.329101562 218 c 0,26,27
 533.329101562 218 533.329101562 218 570.412109375 279 c 1,28,-1
 629.716796875 250 l 1,29,30
 562.783203125 142 562.783203125 142 439.783203125 142 c 0,31,32
 355.783203125 142 355.783203125 142 318.827148438 192 c 128,-1,33
 281.870117188 242 281.870117188 242 301.724609375 328 c 0,34,35
 321.810546875 415 321.810546875 415 381.853515625 465 c 128,-1,36
 441.897460938 515 441.897460938 515 525.897460938 515 c 0,16,17
EndSplineSet
EndChar

StartChar: ordfeminine
Encoding: 170 170 108
Width: 399
GlyphClass: 2
Flags: W
LayerCount: 2
Fore
SplineSet
443.268554688 378 m 0,0,1
 459.268554688 378 459.268554688 378 467.19140625 382 c 1,2,-1
 449.416992188 331 l 1,3,4
 427.108398438 321 427.108398438 321 403.108398438 321 c 0,5,6
 342.108398438 321 342.108398438 321 341.8828125 372 c 1,7,8
 292.108398438 321 292.108398438 321 204.108398438 321 c 0,9,10
 152.108398438 321 152.108398438 321 128.072265625 342.5 c 128,-1,11
 104.036132812 364 104.036132812 364 113.270507812 404 c 0,12,13
 132.432617188 487 132.432617188 487 269.973632812 511 c 2,14,-1
 362.66796875 527 l 1,15,-1
 365.668945312 540 l 2,16,17
 372.364257812 569 372.364257812 569 358.557617188 585 c 128,-1,18
 344.751953125 601 344.751953125 601 313.751953125 601 c 0,19,20
 248.751953125 601 248.751953125 601 216.361328125 543 c 1,21,-1
 157.594726562 570 l 1,22,23
 177.752929688 614 177.752929688 614 223.024414062 639 c 128,-1,24
 268.296875 664 268.296875 664 332.296875 664 c 0,25,26
 479.296875 664 479.296875 664 450.899414062 541 c 2,27,-1
 420.424804688 409 l 2,28,29
 413.268554688 378 413.268554688 378 443.268554688 378 c 0,0,1
245.9609375 381 m 0,30,31
 276.9609375 381 276.9609375 381 306.885742188 398 c 128,-1,32
 336.810546875 415 336.810546875 415 343.043945312 442 c 2,33,-1
 351.81640625 480 l 1,34,-1
 286.815429688 467 l 2,35,36
 245.96875 459 245.96875 459 226.313476562 447.5 c 128,-1,37
 206.658203125 436 206.658203125 436 202.041015625 416 c 0,38,39
 193.9609375 381 193.9609375 381 245.9609375 381 c 0,30,31
70.94140625 186 m 1,40,-1
 85.716796875 250 l 1,41,-1
 419.716796875 250 l 1,42,-1
 404.94140625 186 l 1,43,-1
 70.94140625 186 l 1,40,-1
EndSplineSet
EndChar

StartChar: guillemotleft
Encoding: 171 171 109
Width: 521
GlyphClass: 2
Flags: W
LayerCount: 2
Fore
SplineSet
383.430664062 461 m 1,0,-1
 212.1796875 265 l 1,1,-1
 292.9296875 69 l 1,2,-1
 187.9296875 69 l 1,3,-1
 107.1796875 265 l 1,4,-1
 278.430664062 461 l 1,5,-1
 383.430664062 461 l 1,0,-1
580.430664062 461 m 1,6,-1
 409.1796875 265 l 1,7,-1
 489.9296875 69 l 1,8,-1
 384.9296875 69 l 1,9,-1
 304.1796875 265 l 1,10,-1
 475.430664062 461 l 1,11,-1
 580.430664062 461 l 1,6,-1
EndSplineSet
Substitution2: "'case' Case-Sensitive Forms lookup 29 subtable" guillemotleft.case
Substitution2: "'aalt' Access All Alternates lookup 0 subtable" guillemotleft.case
EndChar

StartChar: logicalnot
Encoding: 172 172 110
Width: 604
GlyphClass: 2
Flags: W
LayerCount: 2
Fore
SplineSet
143.036132812 364 m 1,0,-1
 629.036132812 364 l 1,1,-1
 572.934570312 121 l 1,2,-1
 475.934570312 121 l 1,3,-1
 511.48828125 275 l 1,4,-1
 122.48828125 275 l 1,5,-1
 143.036132812 364 l 1,0,-1
EndSplineSet
EndChar

StartChar: uni00AD
Encoding: 173 173 111
Width: 515
GlyphClass: 2
Flags: W
LayerCount: 2
Fore
SplineSet
500.26171875 313 m 1,0,-1
 477.40625 214 l 1,1,-1
 136.40625 214 l 1,2,-1
 159.26171875 313 l 1,3,-1
 500.26171875 313 l 1,0,-1
EndSplineSet
EndChar

StartChar: registered
Encoding: 174 174 112
Width: 806
GlyphClass: 2
Flags: W
LayerCount: 2
Fore
SplineSet
557.681640625 670 m 128,-1,1
 713.681640625 670 713.681640625 670 785.826171875 577.5 c 128,-1,2
 857.970703125 485 857.970703125 485 822.186523438 330 c 128,-1,3
 786.40234375 175 786.40234375 175 671.546875 82.5 c 128,-1,4
 556.69140625 -10 556.69140625 -10 400.69140625 -10 c 128,-1,5
 244.69140625 -10 244.69140625 -10 172.546875 82.5 c 128,-1,6
 100.40234375 175 100.40234375 175 136.186523438 330 c 128,-1,7
 171.970703125 485 171.970703125 485 286.826171875 577.5 c 128,-1,0
 401.681640625 670 401.681640625 670 557.681640625 670 c 128,-1,1
417.083007812 61 m 128,-1,9
 538.083007812 61 538.083007812 61 627.551757812 134.5 c 128,-1,10
 717.020507812 208 717.020507812 208 745.186523438 330 c 128,-1,11
 773.352539062 452 773.352539062 452 717.821289062 525.5 c 128,-1,12
 662.290039062 599 662.290039062 599 541.290039062 599 c 128,-1,13
 420.290039062 599 420.290039062 599 330.321289062 525.5 c 128,-1,14
 240.352539062 452 240.352539062 452 212.186523438 330 c 128,-1,15
 184.020507812 208 184.020507812 208 240.051757812 134.5 c 128,-1,8
 296.083007812 61 296.083007812 61 417.083007812 61 c 128,-1,9
657.193359375 395 m 0,16,17
 647.49609375 353 647.49609375 353 617.801757812 324 c 128,-1,18
 588.106445312 295 588.106445312 295 544.56640625 284 c 1,19,-1
 607.70703125 146 l 1,20,-1
 517.70703125 146 l 1,21,-1
 466.950195312 277 l 1,22,-1
 410.950195312 277 l 1,23,-1
 380.70703125 146 l 1,24,-1
 303.70703125 146 l 1,25,-1
 388.666015625 514 l 1,26,-1
 547.666015625 514 l 2,27,28
 608.666015625 514 608.666015625 514 639.163085938 481.5 c 128,-1,29
 669.66015625 449 669.66015625 449 657.193359375 395 c 0,16,17
451.583007812 453 m 1,30,-1
 423.87890625 333 l 1,31,-1
 497.87890625 333 l 2,32,33
 564.87890625 333 564.87890625 333 578.731445312 393 c 128,-1,34
 592.583007812 453 592.583007812 453 525.583007812 453 c 2,35,-1
 451.583007812 453 l 1,30,-1
EndSplineSet
Substitution2: "'ordn' Ordinals lookup 22 subtable" registeredsuperior
Substitution2: "'sups' Superscript lookup 15 subtable" registeredsuperior
Substitution2: "'aalt' Access All Alternates lookup 0 subtable" registeredsuperior
EndChar

StartChar: macron
Encoding: 175 175 113
Width: 500
GlyphClass: 2
Flags: W
LayerCount: 2
Fore
SplineSet
581.7578125 666 m 1,0,-1
 563.750976562 588 l 1,1,-1
 207.750976562 588 l 1,2,-1
 225.7578125 666 l 1,3,-1
 581.7578125 666 l 1,0,-1
EndSplineSet
EndChar

StartChar: degree
Encoding: 176 176 114
Width: 471
GlyphClass: 2
Flags: W
LayerCount: 2
Fore
SplineSet
310.494140625 327 m 128,-1,1
 230.494140625 327 230.494140625 327 192.075195312 375 c 128,-1,2
 153.657226562 423 153.657226562 423 171.203125 499 c 128,-1,3
 188.749023438 575 188.749023438 575 249.715820312 622.5 c 128,-1,4
 310.681640625 670 310.681640625 670 389.681640625 670 c 0,5,6
 469.681640625 670 469.681640625 670 508.715820312 622.5 c 128,-1,7
 547.749023438 575 547.749023438 575 530.203125 499 c 0,8,9
 512.426757812 422 512.426757812 422 451.459960938 374.5 c 128,-1,0
 390.494140625 327 390.494140625 327 310.494140625 327 c 128,-1,1
328.732421875 406 m 128,-1,11
 369.732421875 406 369.732421875 406 402.235351562 432 c 128,-1,12
 434.737304688 458 434.737304688 458 444.203125 499 c 128,-1,13
 453.668945312 540 453.668945312 540 433.171875 566 c 128,-1,14
 412.673828125 592 412.673828125 592 371.673828125 592 c 128,-1,15
 330.673828125 592 330.673828125 592 298.671875 566 c 128,-1,16
 266.668945312 540 266.668945312 540 257.203125 499 c 128,-1,17
 247.737304688 458 247.737304688 458 267.735351562 432 c 128,-1,10
 287.732421875 406 287.732421875 406 328.732421875 406 c 128,-1,11
EndSplineSet
EndChar

StartChar: plusminus
Encoding: 177 177 115
Width: 604
GlyphClass: 2
Flags: W
LayerCount: 2
Fore
SplineSet
450.198242188 447 m 1,0,-1
 651.198242188 447 l 1,1,-1
 630.881835938 359 l 1,2,-1
 429.881835938 359 l 1,3,-1
 384.631835938 163 l 1,4,-1
 295.631835938 163 l 1,5,-1
 340.881835938 359 l 1,6,-1
 138.881835938 359 l 1,7,-1
 159.198242188 447 l 1,8,-1
 361.198242188 447 l 1,9,-1
 406.678710938 644 l 1,10,-1
 495.678710938 644 l 1,11,-1
 450.198242188 447 l 1,0,-1
56 0 m 1,12,-1
 76.0859375 87 l 1,13,-1
 568.0859375 87 l 1,14,-1
 548 0 l 1,15,-1
 56 0 l 1,12,-1
EndSplineSet
EndChar

StartChar: uni00B2
Encoding: 178 178 116
Width: 373
GlyphClass: 2
Flags: W
LayerCount: 2
Fore
SplineSet
112.87890625 333 m 1,0,-1
 126.0390625 390 l 1,1,2
 188.119140625 425 188.119140625 425 231.352539062 452 c 0,3,4
 313.588867188 505 313.588867188 505 346.4765625 537 c 128,-1,5
 379.364257812 569 379.364257812 569 386.751953125 601 c 0,6,7
 393.447265625 630 393.447265625 630 380.102539062 648 c 128,-1,8
 366.7578125 666 366.7578125 666 333.7578125 666 c 0,9,10
 298.7578125 666 298.7578125 666 273.333007812 642.5 c 128,-1,11
 247.907226562 619 247.907226562 619 237.44140625 578 c 1,12,-1
 163.213867188 603 l 1,13,14
 180.52734375 665 180.52734375 665 231.607421875 700 c 128,-1,15
 282.688476562 735 282.688476562 735 352.688476562 735 c 0,16,17
 428.688476562 735 428.688476562 735 459.530273438 697.5 c 128,-1,18
 490.373046875 660 490.373046875 660 478.13671875 607 c 0,19,20
 459.206054688 525 459.206054688 525 308.658203125 436 c 0,21,22
 291.349609375 426 291.349609375 426 240.34765625 400 c 1,23,-1
 240.116210938 399 l 1,24,25
 285.80859375 402 285.80859375 402 312.80859375 402 c 2,26,-1
 438.80859375 402 l 1,27,-1
 422.87890625 333 l 1,28,-1
 112.87890625 333 l 1,0,-1
EndSplineSet
EndChar

StartChar: uni00B3
Encoding: 179 179 117
Width: 367
GlyphClass: 2
Flags: W
LayerCount: 2
Fore
SplineSet
352.688476562 735 m 0,0,1
 420.688476562 735 420.688476562 735 451.877929688 705.5 c 128,-1,2
 483.067382812 676 483.067382812 676 471.5234375 626 c 0,3,4
 461.827148438 584 461.827148438 584 432.170898438 559.5 c 128,-1,5
 402.514648438 535 402.514648438 535 370.052734375 533 c 1,6,-1
 369.590820312 531 l 1,7,8
 405.360351562 530 405.360351562 530 426.434570312 506.5 c 128,-1,9
 447.509765625 483 447.509765625 483 438.043945312 442 c 0,10,11
 426.0390625 390 426.0390625 390 376.266601562 358.5 c 128,-1,12
 326.494140625 327 326.494140625 327 257.494140625 327 c 0,13,14
 127.494140625 327 127.494140625 327 117.887695312 424 c 1,15,-1
 206.737304688 458 l 1,16,17
 200.961914062 394 200.961914062 394 269.961914062 394 c 0,18,19
 301.961914062 394 301.961914062 394 324.15625 410 c 128,-1,20
 346.349609375 426 346.349609375 426 352.583007812 453 c 0,21,22
 364.126953125 503 364.126953125 503 295.126953125 503 c 2,23,-1
 271.126953125 503 l 1,24,-1
 283.59375 557 l 1,25,-1
 304.59375 557 l 2,26,27
 367.59375 557 367.59375 557 380.060546875 611 c 0,28,29
 392.7578125 666 392.7578125 666 332.7578125 666 c 128,-1,30
 272.7578125 666 272.7578125 666 249.598632812 609 c 1,31,-1
 177.83203125 636 l 1,32,33
 201.14453125 685 201.14453125 685 247.416015625 710 c 128,-1,34
 293.688476562 735 293.688476562 735 352.688476562 735 c 0,0,1
EndSplineSet
EndChar

StartChar: acute
Encoding: 180 180 118
Width: 500
GlyphClass: 2
Flags: W
LayerCount: 2
Fore
SplineSet
446.227539062 746 m 1,0,-1
 554.227539062 746 l 1,1,-1
 416.44140625 578 l 1,2,-1
 334.44140625 578 l 1,3,-1
 446.227539062 746 l 1,0,-1
EndSplineSet
EndChar

StartChar: uni00B5
Encoding: 181 181 119
Width: 613
GlyphClass: 2
Flags: W
LayerCount: 2
Fore
SplineSet
543.434570312 500 m 1,0,-1
 650.434570312 500 l 1,1,-1
 535 0 l 1,2,-1
 445 0 l 1,3,-1
 457.624023438 85 l 1,4,5
 387.69140625 -10 387.69140625 -10 262.69140625 -10 c 0,6,7
 216.69140625 -10 216.69140625 -10 187.770507812 12 c 1,8,-1
 136.517578125 -210 l 1,9,-1
 29.517578125 -210 l 1,10,-1
 193.434570312 500 l 1,11,-1
 300.434570312 500 l 1,12,-1
 230.942382812 199 l 2,13,14
 215.705078125 133 215.705078125 133 235.856445312 105.5 c 128,-1,15
 256.0078125 78 256.0078125 78 307.0078125 78 c 0,16,17
 365.0078125 78 365.0078125 78 409.048828125 108.5 c 128,-1,18
 453.090820312 139 453.090820312 139 472.788085938 194 c 1,19,-1
 543.434570312 500 l 1,0,-1
EndSplineSet
EndChar

StartChar: paragraph
Encoding: 182 182 120
Width: 668
GlyphClass: 2
Flags: W
LayerCount: 2
Fore
SplineSet
736.373046875 660 m 1,0,-1
 560.913085938 -100 l 1,1,-1
 470.913085938 -100 l 1,2,-1
 626.518554688 574 l 1,3,-1
 503.518554688 574 l 1,4,-1
 347.913085938 -100 l 1,5,-1
 255.913085938 -100 l 1,6,-1
 333.946289062 238 l 1,7,8
 221.177734375 239 221.177734375 239 170.490234375 294.5 c 128,-1,9
 119.803710938 350 119.803710938 350 142.428710938 448 c 0,10,11
 165.747070312 549 165.747070312 549 245.559570312 604.5 c 128,-1,12
 325.373046875 660 325.373046875 660 452.373046875 660 c 2,13,-1
 736.373046875 660 l 1,0,-1
EndSplineSet
Substitution2: "'ornm' Ornaments lookup 40 subtable" uni2761
Substitution2: "'aalt' Access All Alternates lookup 0 subtable" uni2761
EndChar

StartChar: periodcentered
Encoding: 183 183 121
Width: 240
GlyphClass: 2
Flags: W
LayerCount: 2
Fore
SplineSet
218.581054688 427 m 128,-1,1
 253.581054688 427 253.581054688 427 269.579101562 407.5 c 128,-1,2
 285.577148438 388 285.577148438 388 277.727539062 354 c 0,3,4
 270.108398438 321 270.108398438 321 245.106445312 301.5 c 128,-1,5
 220.104492188 282 220.104492188 282 185.104492188 282 c 0,6,7
 151.104492188 282 151.104492188 282 135.106445312 301.5 c 128,-1,8
 119.108398438 321 119.108398438 321 126.727539062 354 c 0,9,10
 134.577148438 388 134.577148438 388 159.079101562 407.5 c 128,-1,0
 183.581054688 427 183.581054688 427 218.581054688 427 c 128,-1,1
EndSplineSet
Substitution2: "Single Substitution lookup 55 subtable" periodcentered.loclCAT.sc
Substitution2: "Single Substitution lookup 54 subtable" periodcentered.loclCAT.case
Substitution2: "Single Substitution lookup 53 subtable" periodcentered.loclCAT
Substitution2: "'case' Case-Sensitive Forms lookup 29 subtable" periodcentered.case
Substitution2: "'smcp' Lowercase to Small Capitals lookup 12 subtable" periodcentered.sc
Substitution2: "'c2sc' Capitals to Small Capitals lookup 11 subtable" periodcentered.sc
AlternateSubs2: "'aalt' Access All Alternates lookup 1 subtable" periodcentered.sc periodcentered.case
Position2: "Single Positioning lookup 6 subtable" dx=0 dy=0 dh=-30 dv=0
EndChar

StartChar: cedilla
Encoding: 184 184 122
Width: 500
GlyphClass: 2
Flags: W
LayerCount: 2
Fore
SplineSet
197.692382812 3 m 1,0,-1
 247.157226562 31 l 1,1,2
 309.462890625 15 309.462890625 15 336.805664062 -22.5 c 128,-1,3
 364.147460938 -60 364.147460938 -60 353.758789062 -105 c 0,4,5
 342.676757812 -153 342.676757812 -153 301.520507812 -184 c 128,-1,6
 260.36328125 -215 260.36328125 -215 204.36328125 -215 c 0,7,8
 130.36328125 -215 130.36328125 -215 97.9052734375 -178 c 1,9,-1
 145.219726562 -116 l 1,10,11
 166.29296875 -146 166.29296875 -146 208.29296875 -146 c 0,12,13
 232.29296875 -146 232.29296875 -146 251.872070312 -130.5 c 128,-1,14
 271.450195312 -115 271.450195312 -115 277.221679688 -90 c 0,15,16
 284.147460938 -60 284.147460938 -60 267.765625 -40 c 128,-1,17
 251.3828125 -20 251.3828125 -20 197.692382812 3 c 1,0,-1
EndSplineSet
EndChar

StartChar: uni00B9
Encoding: 185 185 123
Width: 259
GlyphClass: 2
Flags: W
LayerCount: 2
Fore
SplineSet
302.534179688 730 m 1,0,-1
 377.534179688 730 l 1,1,-1
 285.87890625 333 l 1,2,-1
 199.87890625 333 l 1,3,-1
 255.518554688 574 l 2,4,5
 262.444335938 604 262.444335938 604 274.448242188 643 c 1,6,7
 206.366210938 595 206.366210938 595 148.750976562 588 c 1,8,-1
 165.603515625 661 l 1,9,10
 196.7578125 666 196.7578125 666 239.606445312 687 c 128,-1,11
 282.455078125 708 282.455078125 708 302.534179688 730 c 1,0,-1
EndSplineSet
EndChar

StartChar: ordmasculine
Encoding: 186 186 124
Width: 379
GlyphClass: 2
Flags: W
LayerCount: 2
Fore
SplineSet
263.108398438 321 m 0,0,1
 184.108398438 321 184.108398438 321 151.998046875 366 c 128,-1,2
 119.88671875 411 119.88671875 411 138.586914062 492 c 0,3,4
 157.518554688 574 157.518554688 574 210.407226562 619 c 128,-1,5
 263.296875 664 263.296875 664 342.296875 664 c 0,6,7
 422.296875 664 422.296875 664 454.407226562 619 c 128,-1,8
 486.518554688 574 486.518554688 574 467.586914062 492 c 0,9,10
 448.88671875 411 448.88671875 411 395.998046875 366 c 128,-1,11
 343.108398438 321 343.108398438 321 263.108398438 321 c 0,0,1
277.653320312 384 m 0,12,13
 355.653320312 384 355.653320312 384 380.586914062 492 c 0,14,15
 405.982421875 602 405.982421875 602 327.982421875 602 c 0,16,17
 250.982421875 602 250.982421875 602 225.586914062 492 c 0,18,19
 200.653320312 384 200.653320312 384 277.653320312 384 c 0,12,13
78.94140625 186 m 1,20,-1
 93.716796875 250 l 1,21,-1
 400.716796875 250 l 1,22,-1
 385.94140625 186 l 1,23,-1
 78.94140625 186 l 1,20,-1
EndSplineSet
EndChar

StartChar: guillemotright
Encoding: 187 187 125
Width: 520
GlyphClass: 2
Flags: W
LayerCount: 2
Fore
SplineSet
152.430664062 461 m 1,0,-1
 257.430664062 461 l 1,1,-1
 338.1796875 265 l 1,2,-1
 166.9296875 69 l 1,3,-1
 61.9296875 69 l 1,4,-1
 233.1796875 265 l 1,5,-1
 152.430664062 461 l 1,0,-1
349.430664062 461 m 1,6,-1
 454.430664062 461 l 1,7,-1
 535.1796875 265 l 1,8,-1
 363.9296875 69 l 1,9,-1
 258.9296875 69 l 1,10,-1
 430.1796875 265 l 1,11,-1
 349.430664062 461 l 1,6,-1
EndSplineSet
Substitution2: "'case' Case-Sensitive Forms lookup 29 subtable" guillemotright.case
Substitution2: "'aalt' Access All Alternates lookup 0 subtable" guillemotright.case
EndChar

StartChar: onequarter
Encoding: 188 188 126
Width: 817
GlyphClass: 2
Flags: W
LayerCount: 2
Fore
SplineSet
240.51171875 509 m 2,0,1
 247.4375 539 247.4375 539 259.44140625 578 c 1,2,3
 193.360351562 530 193.360351562 530 133.744140625 523 c 1,4,-1
 150.59765625 596 l 1,5,6
 181.751953125 601 181.751953125 601 224.599609375 622 c 128,-1,7
 267.448242188 643 267.448242188 643 287.52734375 665 c 1,8,-1
 362.52734375 665 l 1,9,-1
 270.873046875 268 l 1,10,-1
 184.873046875 268 l 1,11,-1
 240.51171875 509 l 2,0,1
730.373046875 660 m 1,12,-1
 821.373046875 660 l 1,13,-1
 192 0 l 1,14,-1
 101 0 l 1,15,-1
 730.373046875 660 l 1,12,-1
765.629882812 150 m 1,16,-1
 832.629882812 150 l 1,17,-1
 819.008789062 91 l 1,18,-1
 752.008789062 91 l 1,19,-1
 730.076171875 -4 l 1,20,-1
 656.076171875 -4 l 1,21,-1
 678.008789062 91 l 1,22,-1
 479.008789062 91 l 1,23,-1
 488.936523438 134 l 1,24,-1
 723.731445312 393 l 1,25,-1
 821.731445312 393 l 1,26,-1
 765.629882812 150 l 1,16,-1
715.409179688 253 m 2,27,28
 724.875 294 724.875 294 736.416992188 331 c 1,29,-1
 733.416992188 331 l 1,30,31
 710.029296875 299 710.029296875 299 689.48828125 275 c 2,32,-1
 571.629882812 150 l 1,33,-1
 691.629882812 150 l 1,34,-1
 715.409179688 253 l 2,27,28
EndSplineSet
EndChar

StartChar: onehalf
Encoding: 189 189 127
Width: 884
GlyphClass: 2
Flags: W
LayerCount: 2
Fore
SplineSet
240.51171875 509 m 2,0,1
 247.4375 539 247.4375 539 259.44140625 578 c 1,2,3
 193.360351562 530 193.360351562 530 133.744140625 523 c 1,4,-1
 150.59765625 596 l 1,5,6
 181.751953125 601 181.751953125 601 224.599609375 622 c 128,-1,7
 267.448242188 643 267.448242188 643 287.52734375 665 c 1,8,-1
 362.52734375 665 l 1,9,-1
 270.873046875 268 l 1,10,-1
 184.873046875 268 l 1,11,-1
 240.51171875 509 l 2,0,1
730.373046875 660 m 1,12,-1
 821.373046875 660 l 1,13,-1
 192 0 l 1,14,-1
 101 0 l 1,15,-1
 730.373046875 660 l 1,12,-1
746.006835938 65 m 2,16,-1
 872.006835938 65 l 1,17,-1
 856.076171875 -4 l 1,18,-1
 546.076171875 -4 l 1,19,-1
 559.236328125 53 l 1,20,21
 621.31640625 88 621.31640625 88 664.549804688 115 c 0,22,23
 746.786132812 168 746.786132812 168 779.673828125 200 c 128,-1,24
 812.561523438 232 812.561523438 232 819.94921875 264 c 0,25,26
 826.64453125 293 826.64453125 293 813.299804688 311 c 128,-1,27
 799.956054688 329 799.956054688 329 766.956054688 329 c 0,28,29
 731.956054688 329 731.956054688 329 706.530273438 305.5 c 128,-1,30
 681.104492188 282 681.104492188 282 670.639648438 241 c 1,31,-1
 596.411132812 266 l 1,32,33
 613.724609375 328 613.724609375 328 664.8046875 363 c 128,-1,34
 715.885742188 398 715.885742188 398 785.885742188 398 c 0,35,36
 861.885742188 398 861.885742188 398 892.727539062 360.5 c 128,-1,37
 923.5703125 323 923.5703125 323 911.333984375 270 c 0,38,39
 892.403320312 188 892.403320312 188 741.85546875 99 c 0,40,41
 724.546875 89 724.546875 89 673.544921875 63 c 1,42,-1
 673.313476562 62 l 1,43,44
 719.006835938 65 719.006835938 65 746.006835938 65 c 2,16,-1
EndSplineSet
EndChar

StartChar: threequarters
Encoding: 190 190 128
Width: 925
GlyphClass: 2
Flags: W
LayerCount: 2
Fore
SplineSet
337.681640625 670 m 0,0,1
 405.681640625 670 405.681640625 670 436.87109375 640.5 c 128,-1,2
 468.060546875 611 468.060546875 611 456.516601562 561 c 0,3,4
 446.8203125 519 446.8203125 519 417.1640625 494.5 c 128,-1,5
 387.5078125 470 387.5078125 470 355.045898438 468 c 1,6,-1
 354.584960938 466 l 1,7,8
 390.353515625 465 390.353515625 465 411.428710938 441.5 c 128,-1,9
 432.502929688 418 432.502929688 418 423.037109375 377 c 0,10,11
 411.032226562 325 411.032226562 325 361.259765625 293.5 c 128,-1,12
 311.487304688 262 311.487304688 262 242.487304688 262 c 0,13,14
 112.487304688 262 112.487304688 262 102.881835938 359 c 1,15,-1
 191.731445312 393 l 1,16,17
 185.956054688 329 185.956054688 329 254.956054688 329 c 0,18,19
 286.956054688 329 286.956054688 329 309.149414062 345 c 128,-1,20
 331.34375 361 331.34375 361 337.577148438 388 c 0,21,22
 349.120117188 438 349.120117188 438 280.120117188 438 c 2,23,-1
 256.120117188 438 l 1,24,-1
 268.586914062 492 l 1,25,-1
 289.586914062 492 l 2,26,27
 352.586914062 492 352.586914062 492 365.053710938 546 c 0,28,29
 377.751953125 601 377.751953125 601 317.751953125 601 c 128,-1,30
 257.751953125 601 257.751953125 601 234.592773438 544 c 1,31,-1
 162.826171875 571 l 1,32,33
 186.138671875 620 186.138671875 620 232.41015625 645 c 128,-1,34
 278.681640625 670 278.681640625 670 337.681640625 670 c 0,0,1
209 0 m 1,35,-1
 838.373046875 660 l 1,36,-1
 929.373046875 660 l 1,37,-1
 300 0 l 1,38,-1
 209 0 l 1,35,-1
940.629882812 150 m 1,39,-1
 927.008789062 91 l 1,40,-1
 860.008789062 91 l 1,41,-1
 838.076171875 -4 l 1,42,-1
 764.076171875 -4 l 1,43,-1
 786.008789062 91 l 1,44,-1
 587.008789062 91 l 1,45,-1
 596.936523438 134 l 1,46,-1
 831.731445312 393 l 1,47,-1
 929.731445312 393 l 1,48,-1
 873.629882812 150 l 1,49,-1
 940.629882812 150 l 1,39,-1
679.629882812 150 m 1,50,-1
 799.629882812 150 l 1,51,-1
 823.409179688 253 l 2,52,53
 832.875 294 832.875 294 844.416992188 331 c 1,54,-1
 841.416992188 331 l 1,55,56
 818.029296875 299 818.029296875 299 797.48828125 275 c 2,57,-1
 679.629882812 150 l 1,50,-1
EndSplineSet
EndChar

StartChar: questiondown
Encoding: 191 191 129
Width: 558
GlyphClass: 2
Flags: W
LayerCount: 2
Fore
SplineSet
372.728515625 367 m 128,-1,1
 338.728515625 367 338.728515625 367 323.23046875 386.5 c 128,-1,2
 307.732421875 406 307.732421875 406 315.120117188 438 c 0,3,4
 322.739257812 471 322.739257812 471 347.125 490 c 128,-1,5
 371.51171875 509 371.51171875 509 405.51171875 509 c 0,6,7
 440.51171875 509 440.51171875 509 456.125 490 c 128,-1,8
 471.739257812 471 471.739257812 471 464.120117188 438 c 0,9,10
 456.732421875 406 456.732421875 406 431.73046875 386.5 c 128,-1,0
 406.728515625 367 406.728515625 367 372.728515625 367 c 128,-1,1
236.751953125 -170 m 0,11,12
 132.751953125 -170 132.751953125 -170 79.8720703125 -124 c 128,-1,13
 26.9921875 -78 26.9921875 -78 45.923828125 4 c 0,14,15
 65.546875 89 65.546875 89 128.166992188 135 c 128,-1,16
 190.787109375 181 190.787109375 181 277.865234375 190 c 1,17,-1
 303.952148438 290 l 1,18,-1
 405.952148438 290 l 1,19,-1
 374.321289062 140 l 1,20,21
 273.3203125 127 273.3203125 127 224.240234375 98.5 c 128,-1,22
 175.161132812 70 175.161132812 70 163.155273438 18 c 0,23,24
 152.997070312 -26 152.997070312 -26 178.725585938 -51 c 128,-1,25
 204.454101562 -76 204.454101562 -76 265.454101562 -76 c 0,26,27
 324.454101562 -76 324.454101562 -76 369.688476562 -42.5 c 128,-1,28
 414.921875 -9 414.921875 -9 434.3125 49 c 1,29,-1
 522.461914062 2 l 1,30,31
 488.454101562 -76 488.454101562 -76 414.103515625 -123 c 128,-1,32
 339.751953125 -170 339.751953125 -170 236.751953125 -170 c 0,11,12
EndSplineSet
Substitution2: "'case' Case-Sensitive Forms lookup 29 subtable" questiondown.case
Substitution2: "'smcp' Lowercase to Small Capitals lookup 12 subtable" questiondown.sc
Substitution2: "'c2sc' Capitals to Small Capitals lookup 11 subtable" questiondown.sc
AlternateSubs2: "'aalt' Access All Alternates lookup 1 subtable" questiondown.sc questiondown.case
EndChar

StartChar: Agrave
Encoding: 192 192 130
Width: 665
GlyphClass: 2
Flags: W
LayerCount: 2
Fore
SplineSet
542.149414062 737 m 1,0,-1
 460.149414062 737 l 1,1,-1
 407.010742188 888 l 1,2,-1
 521.010742188 888 l 1,3,-1
 542.149414062 737 l 1,0,-1
533 0 m 1,4,-1
 510.940429688 173 l 1,5,-1
 232.940429688 173 l 1,6,-1
 130 0 l 1,7,-1
 20 0 l 1,8,-1
 421.373046875 660 l 1,9,-1
 549.373046875 660 l 1,10,-1
 646 0 l 1,11,-1
 533 0 l 1,4,-1
284.025390625 260 m 1,12,-1
 499.025390625 260 l 1,13,-1
 471.969726562 472 l 1,14,-1
 463.90234375 567 l 1,15,-1
 460.90234375 567 l 1,16,-1
 411.431640625 474 l 1,17,-1
 284.025390625 260 l 1,12,-1
EndSplineSet
Substitution2: "Single Substitution lookup 56 subtable" Agrave.swsh
Substitution2: "'swsh' Swash lookup 32 subtable" Agrave.swsh
Substitution2: "'c2sc' Capitals to Small Capitals lookup 11 subtable" agrave.sc
AlternateSubs2: "'aalt' Access All Alternates lookup 1 subtable" agrave.sc Agrave.swsh
EndChar

StartChar: Aacute
Encoding: 193 193 131
Width: 665
GlyphClass: 2
Flags: W
LayerCount: 2
Fore
SplineSet
657.010742188 888 m 1,0,-1
 534.149414062 737 l 1,1,-1
 452.149414062 737 l 1,2,-1
 543.010742188 888 l 1,3,-1
 657.010742188 888 l 1,0,-1
533 0 m 1,4,-1
 510.940429688 173 l 1,5,-1
 232.940429688 173 l 1,6,-1
 130 0 l 1,7,-1
 20 0 l 1,8,-1
 421.373046875 660 l 1,9,-1
 549.373046875 660 l 1,10,-1
 646 0 l 1,11,-1
 533 0 l 1,4,-1
284.025390625 260 m 1,12,-1
 499.025390625 260 l 1,13,-1
 471.969726562 472 l 1,14,-1
 463.90234375 567 l 1,15,-1
 460.90234375 567 l 1,16,-1
 411.431640625 474 l 1,17,-1
 284.025390625 260 l 1,12,-1
EndSplineSet
Substitution2: "Single Substitution lookup 56 subtable" Aacute.swsh
Substitution2: "'swsh' Swash lookup 32 subtable" Aacute.swsh
Substitution2: "'c2sc' Capitals to Small Capitals lookup 11 subtable" aacute.sc
AlternateSubs2: "'aalt' Access All Alternates lookup 1 subtable" aacute.sc Aacute.swsh
EndChar

StartChar: Acircumflex
Encoding: 194 194 132
Width: 665
GlyphClass: 2
Flags: W
LayerCount: 2
Fore
SplineSet
526.467773438 838 m 1,0,-1
 421.764648438 731 l 1,1,-1
 332.764648438 731 l 1,2,-1
 484.319335938 898 l 1,3,-1
 596.319335938 898 l 1,4,-1
 670.764648438 731 l 1,5,-1
 581.764648438 731 l 1,6,-1
 526.467773438 838 l 1,0,-1
533 0 m 1,7,-1
 510.940429688 173 l 1,8,-1
 232.940429688 173 l 1,9,-1
 130 0 l 1,10,-1
 20 0 l 1,11,-1
 421.373046875 660 l 1,12,-1
 549.373046875 660 l 1,13,-1
 646 0 l 1,14,-1
 533 0 l 1,7,-1
284.025390625 260 m 1,15,-1
 499.025390625 260 l 1,16,-1
 471.969726562 472 l 1,17,-1
 463.90234375 567 l 1,18,-1
 460.90234375 567 l 1,19,-1
 411.431640625 474 l 1,20,-1
 284.025390625 260 l 1,15,-1
EndSplineSet
Substitution2: "Single Substitution lookup 56 subtable" Acircumflex.swsh
Substitution2: "'swsh' Swash lookup 32 subtable" Acircumflex.swsh
Substitution2: "'c2sc' Capitals to Small Capitals lookup 11 subtable" acircumflex.sc
AlternateSubs2: "'aalt' Access All Alternates lookup 1 subtable" acircumflex.sc Acircumflex.swsh
EndChar

StartChar: Atilde
Encoding: 195 195 133
Width: 665
GlyphClass: 2
Flags: W
LayerCount: 2
Fore
SplineSet
448.92578125 801 m 0,0,1
 412.92578125 801 412.92578125 801 388.688476562 735 c 1,2,-1
 315.688476562 735 l 1,3,4
 357.471679688 877 357.471679688 877 467.471679688 877 c 0,5,6
 499.471679688 877 499.471679688 877 520.662109375 860.5 c 128,-1,7
 541.852539062 844 541.852539062 844 556.159179688 828 c 128,-1,8
 570.46484375 812 570.46484375 812 586.46484375 812 c 0,9,10
 622.46484375 812 622.46484375 812 647.471679688 877 c 1,11,-1
 720.471679688 877 l 1,12,13
 678.918945312 736 678.918945312 736 569.918945312 736 c 0,14,15
 543.918945312 736 543.918945312 736 524.727539062 746 c 128,-1,16
 505.536132812 756 505.536132812 756 496.421875 768.5 c 128,-1,17
 487.307617188 781 487.307617188 781 475.1171875 791 c 128,-1,18
 462.92578125 801 462.92578125 801 448.92578125 801 c 0,0,1
533 0 m 1,19,-1
 510.940429688 173 l 1,20,-1
 232.940429688 173 l 1,21,-1
 130 0 l 1,22,-1
 20 0 l 1,23,-1
 421.373046875 660 l 1,24,-1
 549.373046875 660 l 1,25,-1
 646 0 l 1,26,-1
 533 0 l 1,19,-1
284.025390625 260 m 1,27,-1
 499.025390625 260 l 1,28,-1
 471.969726562 472 l 1,29,-1
 463.90234375 567 l 1,30,-1
 460.90234375 567 l 1,31,-1
 411.431640625 474 l 1,32,-1
 284.025390625 260 l 1,27,-1
EndSplineSet
Substitution2: "Single Substitution lookup 56 subtable" Atilde.swsh
Substitution2: "'swsh' Swash lookup 32 subtable" Atilde.swsh
Substitution2: "'c2sc' Capitals to Small Capitals lookup 11 subtable" atilde.sc
AlternateSubs2: "'aalt' Access All Alternates lookup 1 subtable" atilde.sc Atilde.swsh
EndChar

StartChar: Adieresis
Encoding: 196 196 134
Width: 665
GlyphClass: 2
Flags: W
LayerCount: 2
Fore
SplineSet
400.45703125 734 m 0,0,1
 371.45703125 734 371.45703125 734 357.497070312 751.5 c 128,-1,2
 343.538085938 769 343.538085938 769 350.001953125 797 c 0,3,4
 356.697265625 826 356.697265625 826 378.622070312 843 c 128,-1,5
 400.546875 860 400.546875 860 429.546875 860 c 0,6,7
 459.546875 860 459.546875 860 473.622070312 843 c 128,-1,8
 487.697265625 826 487.697265625 826 481.001953125 797 c 128,-1,9
 474.306640625 768 474.306640625 768 452.381835938 751 c 128,-1,10
 430.45703125 734 430.45703125 734 400.45703125 734 c 0,0,1
602.45703125 734 m 128,-1,12
 572.45703125 734 572.45703125 734 558.881835938 751 c 128,-1,13
 545.306640625 768 545.306640625 768 552.001953125 797 c 128,-1,14
 558.697265625 826 558.697265625 826 580.122070312 843 c 128,-1,15
 601.546875 860 601.546875 860 631.546875 860 c 128,-1,16
 661.546875 860 661.546875 860 675.622070312 843 c 128,-1,17
 689.697265625 826 689.697265625 826 683.001953125 797 c 128,-1,18
 676.306640625 768 676.306640625 768 654.381835938 751 c 128,-1,11
 632.45703125 734 632.45703125 734 602.45703125 734 c 128,-1,12
533 0 m 1,19,-1
 510.940429688 173 l 1,20,-1
 232.940429688 173 l 1,21,-1
 130 0 l 1,22,-1
 20 0 l 1,23,-1
 421.373046875 660 l 1,24,-1
 549.373046875 660 l 1,25,-1
 646 0 l 1,26,-1
 533 0 l 1,19,-1
284.025390625 260 m 1,27,-1
 499.025390625 260 l 1,28,-1
 471.969726562 472 l 1,29,-1
 463.90234375 567 l 1,30,-1
 460.90234375 567 l 1,31,-1
 411.431640625 474 l 1,32,-1
 284.025390625 260 l 1,27,-1
EndSplineSet
Substitution2: "Single Substitution lookup 56 subtable" Adieresis.swsh
Substitution2: "'titl' Titling lookup 41 subtable" Adieresis.titl
Substitution2: "'swsh' Swash lookup 32 subtable" Adieresis.swsh
Substitution2: "'c2sc' Capitals to Small Capitals lookup 11 subtable" adieresis.sc
AlternateSubs2: "'aalt' Access All Alternates lookup 1 subtable" adieresis.sc Adieresis.swsh Adieresis.titl
EndChar

StartChar: Aring
Encoding: 197 197 135
Width: 665
GlyphClass: 2
Flags: W
LayerCount: 2
Fore
SplineSet
533 0 m 1,0,-1
 510.940429688 173 l 1,1,-1
 232.940429688 173 l 1,2,-1
 130 0 l 1,3,-1
 20 0 l 1,4,-1
 404.447265625 630 l 1,5,6
 352.834960938 662 352.834960938 662 369.2265625 733 c 0,7,8
 381.693359375 787 381.693359375 787 426.54296875 821 c 128,-1,9
 471.392578125 855 471.392578125 855 531.392578125 855 c 128,-1,10
 591.392578125 855 591.392578125 855 619.54296875 821 c 128,-1,11
 647.693359375 787 647.693359375 787 635.2265625 733 c 0,12,13
 618.834960938 662 618.834960938 662 552.447265625 630 c 1,14,-1
 646 0 l 1,15,-1
 533 0 l 1,0,-1
517.001953125 797 m 0,16,17
 487.001953125 797 487.001953125 797 463.846679688 779 c 128,-1,18
 440.690429688 761 440.690429688 761 433.995117188 732 c 128,-1,19
 427.30078125 703 427.30078125 703 442.14453125 685 c 128,-1,20
 456.989257812 667 456.989257812 667 486.989257812 667 c 0,21,22
 515.989257812 667 515.989257812 667 539.14453125 685 c 128,-1,23
 562.30078125 703 562.30078125 703 568.995117188 732 c 0,24,25
 575.459960938 760 575.459960938 760 560.73046875 778.5 c 128,-1,26
 546.001953125 797 546.001953125 797 517.001953125 797 c 0,16,17
284.025390625 260 m 1,27,-1
 499.025390625 260 l 1,28,-1
 471.969726562 472 l 1,29,-1
 463.90234375 567 l 1,30,-1
 460.90234375 567 l 1,31,-1
 411.431640625 474 l 1,32,-1
 284.025390625 260 l 1,27,-1
EndSplineSet
Substitution2: "'c2sc' Capitals to Small Capitals lookup 11 subtable" aring.sc
Substitution2: "'aalt' Access All Alternates lookup 0 subtable" aring.sc
EndChar

StartChar: AE
Encoding: 198 198 136
Width: 945
GlyphClass: 2
Flags: W
LayerCount: 2
Fore
SplineSet
566.778320312 90 m 1,0,-1
 919.778320312 90 l 1,1,-1
 899 0 l 1,2,-1
 442 0 l 1,3,-1
 490.020507812 208 l 1,4,-1
 271.020507812 208 l 1,5,-1
 115 0 l 1,6,-1
 3 0 l 1,7,-1
 510.373046875 660 l 1,8,-1
 1037.37304688 660 l 1,9,-1
 1016.59472656 570 l 1,10,-1
 677.594726562 570 l 1,11,-1
 633.268554688 378 l 1,12,-1
 891.268554688 378 l 1,13,-1
 870.720703125 289 l 1,14,-1
 612.720703125 289 l 1,15,-1
 566.778320312 90 l 1,0,-1
335.875 294 m 1,16,-1
 509.875 294 l 1,17,-1
 573.826171875 571 l 1,18,-1
 542.826171875 571 l 1,19,-1
 335.875 294 l 1,16,-1
EndSplineSet
Substitution2: "'c2sc' Capitals to Small Capitals lookup 11 subtable" ae.sc
Substitution2: "'aalt' Access All Alternates lookup 0 subtable" ae.sc
EndChar

StartChar: Ccedilla
Encoding: 199 199 137
Width: 684
GlyphClass: 2
Flags: W
LayerCount: 2
Fore
SplineSet
685.40234375 175 m 1,0,1
 643.086914062 100 643.086914062 100 576.966796875 54 c 128,-1,2
 510.846679688 8 510.846679688 8 430.845703125 -5 c 1,3,4
 478.611328125 -45 478.611328125 -45 464.758789062 -105 c 0,5,6
 453.676757812 -153 453.676757812 -153 412.520507812 -184 c 128,-1,7
 371.36328125 -215 371.36328125 -215 315.36328125 -215 c 0,8,9
 241.36328125 -215 241.36328125 -215 208.905273438 -178 c 1,10,-1
 256.219726562 -116 l 1,11,12
 277.29296875 -146 277.29296875 -146 319.29296875 -146 c 0,13,14
 343.29296875 -146 343.29296875 -146 362.872070312 -130.5 c 128,-1,15
 382.450195312 -115 382.450195312 -115 388.221679688 -90 c 0,16,17
 394.224609375 -64 394.224609375 -64 382.495117188 -45.5 c 128,-1,18
 370.766601562 -27 370.766601562 -27 333.153320312 -8 c 1,19,20
 207.692382812 3 207.692382812 3 155.470703125 93 c 128,-1,21
 103.249023438 183 103.249023438 183 137.186523438 330 c 0,22,23
 173.432617188 487 173.432617188 487 278.557617188 578.5 c 128,-1,24
 383.681640625 670 383.681640625 670 525.681640625 670 c 0,25,26
 728.681640625 670 728.681640625 670 752.28125 508 c 1,27,-1
 640.891601562 463 l 1,28,29
 629.2109375 577 629.2109375 577 510.2109375 577 c 0,30,31
 417.2109375 577 417.2109375 577 346.588867188 511.5 c 128,-1,32
 275.966796875 446 275.966796875 446 249.186523438 330 c 0,33,34
 222.174804688 213 222.174804688 213 260.168945312 148 c 128,-1,35
 298.162109375 83 298.162109375 83 392.162109375 83 c 0,36,37
 525.162109375 83 525.162109375 83 591.250976562 209 c 1,38,-1
 685.40234375 175 l 1,0,1
EndSplineSet
Substitution2: "'c2sc' Capitals to Small Capitals lookup 11 subtable" ccedilla.sc
Substitution2: "'aalt' Access All Alternates lookup 0 subtable" ccedilla.sc
EndChar

StartChar: Egrave
Encoding: 200 200 138
Width: 636
GlyphClass: 2
Flags: W
AnchorPoint: "Anchor-0" 337 0 basechar 0
LayerCount: 2
Fore
SplineSet
561.149414062 737 m 1,0,-1
 479.149414062 737 l 1,1,-1
 426.010742188 888 l 1,2,-1
 540.010742188 888 l 1,3,-1
 561.149414062 737 l 1,0,-1
226.240234375 92 m 1,4,-1
 611.240234375 92 l 1,5,-1
 590 0 l 1,6,-1
 98 0 l 1,7,-1
 250.373046875 660 l 1,8,-1
 728.373046875 660 l 1,9,-1
 707.1328125 568 l 1,10,-1
 336.1328125 568 l 1,11,-1
 292.268554688 378 l 1,12,-1
 582.268554688 378 l 1,13,-1
 561.490234375 288 l 1,14,-1
 271.490234375 288 l 1,15,-1
 226.240234375 92 l 1,4,-1
EndSplineSet
Substitution2: "Single Substitution lookup 57 subtable" Egrave.swsh.001
Substitution2: "Single Substitution lookup 56 subtable" Egrave.swsh
AlternateSubs2: "'swsh' Swash lookup 33 subtable" Egrave.swsh Egrave.swsh.001
Substitution2: "'c2sc' Capitals to Small Capitals lookup 11 subtable" egrave.sc
AlternateSubs2: "'aalt' Access All Alternates lookup 1 subtable" egrave.sc Egrave.swsh Egrave.swsh.001
EndChar

StartChar: Eacute
Encoding: 201 201 139
Width: 636
GlyphClass: 2
Flags: W
AnchorPoint: "Anchor-0" 337 0 basechar 0
LayerCount: 2
Fore
SplineSet
659.010742188 888 m 1,0,-1
 536.149414062 737 l 1,1,-1
 454.149414062 737 l 1,2,-1
 545.010742188 888 l 1,3,-1
 659.010742188 888 l 1,0,-1
226.240234375 92 m 1,4,-1
 611.240234375 92 l 1,5,-1
 590 0 l 1,6,-1
 98 0 l 1,7,-1
 250.373046875 660 l 1,8,-1
 728.373046875 660 l 1,9,-1
 707.1328125 568 l 1,10,-1
 336.1328125 568 l 1,11,-1
 292.268554688 378 l 1,12,-1
 582.268554688 378 l 1,13,-1
 561.490234375 288 l 1,14,-1
 271.490234375 288 l 1,15,-1
 226.240234375 92 l 1,4,-1
EndSplineSet
Substitution2: "Single Substitution lookup 57 subtable" Eacute.swsh.001
Substitution2: "Single Substitution lookup 56 subtable" Eacute.swsh
AlternateSubs2: "'swsh' Swash lookup 33 subtable" Eacute.swsh Eacute.swsh.001
Substitution2: "'c2sc' Capitals to Small Capitals lookup 11 subtable" eacute.sc
AlternateSubs2: "'aalt' Access All Alternates lookup 1 subtable" eacute.sc Eacute.swsh Eacute.swsh.001
EndChar

StartChar: Ecircumflex
Encoding: 202 202 140
Width: 636
GlyphClass: 2
Flags: W
AnchorPoint: "Anchor-0" 337 0 basechar 0
LayerCount: 2
Fore
SplineSet
527.467773438 838 m 1,0,-1
 422.764648438 731 l 1,1,-1
 333.764648438 731 l 1,2,-1
 485.319335938 898 l 1,3,-1
 597.319335938 898 l 1,4,-1
 671.764648438 731 l 1,5,-1
 582.764648438 731 l 1,6,-1
 527.467773438 838 l 1,0,-1
226.240234375 92 m 1,7,-1
 611.240234375 92 l 1,8,-1
 590 0 l 1,9,-1
 98 0 l 1,10,-1
 250.373046875 660 l 1,11,-1
 728.373046875 660 l 1,12,-1
 707.1328125 568 l 1,13,-1
 336.1328125 568 l 1,14,-1
 292.268554688 378 l 1,15,-1
 582.268554688 378 l 1,16,-1
 561.490234375 288 l 1,17,-1
 271.490234375 288 l 1,18,-1
 226.240234375 92 l 1,7,-1
EndSplineSet
Substitution2: "Single Substitution lookup 57 subtable" Ecircumflex.swsh.001
Substitution2: "Single Substitution lookup 56 subtable" Ecircumflex.swsh
AlternateSubs2: "'swsh' Swash lookup 33 subtable" Ecircumflex.swsh Ecircumflex.swsh.001
Substitution2: "'c2sc' Capitals to Small Capitals lookup 11 subtable" ecircumflex.sc
AlternateSubs2: "'aalt' Access All Alternates lookup 1 subtable" ecircumflex.sc Ecircumflex.swsh Ecircumflex.swsh.001
EndChar

StartChar: Edieresis
Encoding: 203 203 141
Width: 636
GlyphClass: 2
Flags: W
AnchorPoint: "Anchor-0" 337 0 basechar 0
LayerCount: 2
Fore
SplineSet
402.45703125 734 m 0,0,1
 373.45703125 734 373.45703125 734 359.497070312 751.5 c 128,-1,2
 345.538085938 769 345.538085938 769 352.001953125 797 c 0,3,4
 358.697265625 826 358.697265625 826 380.622070312 843 c 128,-1,5
 402.546875 860 402.546875 860 431.546875 860 c 0,6,7
 461.546875 860 461.546875 860 475.622070312 843 c 128,-1,8
 489.697265625 826 489.697265625 826 483.001953125 797 c 128,-1,9
 476.306640625 768 476.306640625 768 454.381835938 751 c 128,-1,10
 432.45703125 734 432.45703125 734 402.45703125 734 c 0,0,1
604.45703125 734 m 128,-1,12
 574.45703125 734 574.45703125 734 560.881835938 751 c 128,-1,13
 547.306640625 768 547.306640625 768 554.001953125 797 c 128,-1,14
 560.697265625 826 560.697265625 826 582.122070312 843 c 128,-1,15
 603.546875 860 603.546875 860 633.546875 860 c 128,-1,16
 663.546875 860 663.546875 860 677.622070312 843 c 128,-1,17
 691.697265625 826 691.697265625 826 685.001953125 797 c 128,-1,18
 678.306640625 768 678.306640625 768 656.381835938 751 c 128,-1,11
 634.45703125 734 634.45703125 734 604.45703125 734 c 128,-1,12
226.240234375 92 m 1,19,-1
 611.240234375 92 l 1,20,-1
 590 0 l 1,21,-1
 98 0 l 1,22,-1
 250.373046875 660 l 1,23,-1
 728.373046875 660 l 1,24,-1
 707.1328125 568 l 1,25,-1
 336.1328125 568 l 1,26,-1
 292.268554688 378 l 1,27,-1
 582.268554688 378 l 1,28,-1
 561.490234375 288 l 1,29,-1
 271.490234375 288 l 1,30,-1
 226.240234375 92 l 1,19,-1
EndSplineSet
Substitution2: "Single Substitution lookup 57 subtable" Edieresis.swsh.001
Substitution2: "Single Substitution lookup 56 subtable" Edieresis.swsh
AlternateSubs2: "'swsh' Swash lookup 33 subtable" Edieresis.swsh Edieresis.swsh.001
Substitution2: "'c2sc' Capitals to Small Capitals lookup 11 subtable" edieresis.sc
AlternateSubs2: "'aalt' Access All Alternates lookup 1 subtable" edieresis.sc Edieresis.swsh Edieresis.swsh.001
EndChar

StartChar: Igrave
Encoding: 204 204 142
Width: 303
GlyphClass: 2
Flags: W
LayerCount: 2
Fore
SplineSet
339.010742188 888 m 1,0,-1
 360.149414062 737 l 1,1,-1
 278.149414062 737 l 1,2,-1
 225.010742188 888 l 1,3,-1
 339.010742188 888 l 1,0,-1
357.373046875 660 m 1,4,-1
 205 0 l 1,5,-1
 98 0 l 1,6,-1
 250.373046875 660 l 1,7,-1
 357.373046875 660 l 1,4,-1
EndSplineSet
Substitution2: "'c2sc' Capitals to Small Capitals lookup 11 subtable" igrave.sc
Substitution2: "'aalt' Access All Alternates lookup 0 subtable" igrave.sc
EndChar

StartChar: Iacute
Encoding: 205 205 143
Width: 303
GlyphClass: 2
Flags: W
LayerCount: 2
Fore
SplineSet
362.010742188 888 m 1,0,-1
 476.010742188 888 l 1,1,-1
 353.149414062 737 l 1,2,-1
 271.149414062 737 l 1,3,-1
 362.010742188 888 l 1,0,-1
357.373046875 660 m 1,4,-1
 205 0 l 1,5,-1
 98 0 l 1,6,-1
 250.373046875 660 l 1,7,-1
 357.373046875 660 l 1,4,-1
EndSplineSet
Substitution2: "'c2sc' Capitals to Small Capitals lookup 11 subtable" iacute.sc
Substitution2: "'aalt' Access All Alternates lookup 0 subtable" iacute.sc
EndChar

StartChar: Icircumflex
Encoding: 206 206 144
Width: 303
GlyphClass: 2
Flags: W
LayerCount: 2
Fore
SplineSet
488.764648438 731 m 1,0,-1
 399.764648438 731 l 1,1,-1
 344.467773438 838 l 1,2,-1
 239.764648438 731 l 1,3,-1
 150.764648438 731 l 1,4,-1
 302.319335938 898 l 1,5,-1
 414.319335938 898 l 1,6,-1
 488.764648438 731 l 1,0,-1
357.373046875 660 m 1,7,-1
 205 0 l 1,8,-1
 98 0 l 1,9,-1
 250.373046875 660 l 1,10,-1
 357.373046875 660 l 1,7,-1
EndSplineSet
Substitution2: "'c2sc' Capitals to Small Capitals lookup 11 subtable" icircumflex.sc
Substitution2: "'aalt' Access All Alternates lookup 0 subtable" icircumflex.sc
EndChar

StartChar: Idieresis
Encoding: 207 207 145
Width: 303
GlyphClass: 2
Flags: W
LayerCount: 2
Fore
SplineSet
258.546875 860 m 0,0,1
 288.546875 860 288.546875 860 302.122070312 843 c 128,-1,2
 315.697265625 826 315.697265625 826 309.001953125 797 c 128,-1,3
 302.306640625 768 302.306640625 768 280.881835938 751 c 128,-1,4
 259.45703125 734 259.45703125 734 229.45703125 734 c 0,5,6
 200.45703125 734 200.45703125 734 186.881835938 751 c 128,-1,7
 173.306640625 768 173.306640625 768 180.001953125 797 c 128,-1,8
 186.697265625 826 186.697265625 826 208.122070312 843 c 128,-1,9
 229.546875 860 229.546875 860 258.546875 860 c 0,0,1
440.546875 860 m 128,-1,11
 469.546875 860 469.546875 860 483.622070312 843 c 128,-1,12
 497.697265625 826 497.697265625 826 491.001953125 797 c 0,13,14
 484.538085938 769 484.538085938 769 462.497070312 751.5 c 128,-1,15
 440.45703125 734 440.45703125 734 411.45703125 734 c 128,-1,16
 382.45703125 734 382.45703125 734 368.497070312 751.5 c 128,-1,17
 354.538085938 769 354.538085938 769 361.001953125 797 c 0,18,19
 367.697265625 826 367.697265625 826 389.622070312 843 c 128,-1,10
 411.546875 860 411.546875 860 440.546875 860 c 128,-1,11
357.373046875 660 m 1,20,-1
 205 0 l 1,21,-1
 98 0 l 1,22,-1
 250.373046875 660 l 1,23,-1
 357.373046875 660 l 1,20,-1
EndSplineSet
Substitution2: "'c2sc' Capitals to Small Capitals lookup 11 subtable" idieresis.sc
Substitution2: "'aalt' Access All Alternates lookup 0 subtable" idieresis.sc
EndChar

StartChar: Eth
Encoding: 208 208 146
Width: 738
GlyphClass: 2
Flags: W
LayerCount: 2
Fore
SplineSet
501.373046875 660 m 2,0,1
 657.373046875 660 657.373046875 660 723.518554688 574 c 128,-1,2
 789.6640625 488 789.6640625 488 753.186523438 330 c 128,-1,3
 716.708984375 172 716.708984375 172 610.854492188 86 c 128,-1,4
 505 0 505 0 349 0 c 2,5,-1
 116 0 l 1,6,-1
 183.875 294 l 1,7,-1
 89.875 294 l 1,8,-1
 107.420898438 370 l 1,9,-1
 201.420898438 370 l 1,10,-1
 268.373046875 660 l 1,11,-1
 501.373046875 660 l 2,0,1
370.008789062 91 m 2,12,13
 474.008789062 91 474.008789062 91 544.438476562 153.5 c 128,-1,14
 614.8671875 216 614.8671875 216 641.186523438 330 c 128,-1,15
 667.505859375 444 667.505859375 444 625.934570312 506.5 c 128,-1,16
 584.364257812 569 584.364257812 569 480.364257812 569 c 2,17,-1
 354.364257812 569 l 1,18,-1
 308.420898438 370 l 1,19,-1
 485.420898438 370 l 1,20,-1
 467.875 294 l 1,21,-1
 290.875 294 l 1,22,-1
 244.008789062 91 l 1,23,-1
 370.008789062 91 l 2,12,13
EndSplineSet
Substitution2: "'c2sc' Capitals to Small Capitals lookup 11 subtable" eth.sc
Substitution2: "'aalt' Access All Alternates lookup 0 subtable" eth.sc
EndChar

StartChar: Ntilde
Encoding: 209 209 147
Width: 736
GlyphClass: 2
Flags: W
AnchorPoint: "Anchor-0" 393 0 basechar 0
LayerCount: 2
Fore
SplineSet
759.471679688 877 m 1,0,1
 717.918945312 736 717.918945312 736 608.918945312 736 c 0,2,3
 582.918945312 736 582.918945312 736 563.727539062 746 c 128,-1,4
 544.536132812 756 544.536132812 756 535.421875 768.5 c 128,-1,5
 526.307617188 781 526.307617188 781 514.1171875 791 c 128,-1,6
 501.92578125 801 501.92578125 801 487.92578125 801 c 0,7,8
 451.92578125 801 451.92578125 801 427.688476562 735 c 1,9,-1
 354.688476562 735 l 1,10,11
 396.471679688 877 396.471679688 877 506.471679688 877 c 0,12,13
 538.471679688 877 538.471679688 877 559.662109375 860.5 c 128,-1,14
 580.852539062 844 580.852539062 844 595.159179688 828 c 128,-1,15
 609.46484375 812 609.46484375 812 625.46484375 812 c 0,16,17
 661.46484375 812 661.46484375 812 686.471679688 877 c 1,18,-1
 759.471679688 877 l 1,0,1
791.373046875 660 m 1,19,-1
 639 0 l 1,20,-1
 512 0 l 1,21,-1
 353.041015625 416 l 1,22,-1
 317.20703125 538 l 1,23,-1
 316.20703125 538 l 1,24,-1
 294.349609375 426 l 1,25,-1
 196 0 l 1,26,-1
 98 0 l 1,27,-1
 250.373046875 660 l 1,28,-1
 376.373046875 660 l 1,29,-1
 534.5625 245 l 1,30,-1
 571.166015625 122 l 1,31,-1
 572.166015625 122 l 1,32,-1
 594.0234375 234 l 1,33,-1
 692.373046875 660 l 1,34,-1
 791.373046875 660 l 1,19,-1
EndSplineSet
Substitution2: "Single Substitution lookup 57 subtable" Ntilde.swsh
Substitution2: "'swsh' Swash lookup 36 subtable" Ntilde.swsh
Substitution2: "'c2sc' Capitals to Small Capitals lookup 11 subtable" ntilde.sc
AlternateSubs2: "'aalt' Access All Alternates lookup 1 subtable" ntilde.sc Ntilde.swsh
EndChar

StartChar: Ograve
Encoding: 210 210 148
Width: 745
GlyphClass: 2
Flags: W
LayerCount: 2
Fore
SplineSet
560.010742188 888 m 1,0,-1
 581.149414062 737 l 1,1,-1
 499.149414062 737 l 1,2,-1
 446.010742188 888 l 1,3,-1
 560.010742188 888 l 1,0,-1
526.681640625 670 m 0,4,5
 670.681640625 670 670.681640625 670 733.557617188 578.5 c 128,-1,6
 796.432617188 487 796.432617188 487 760.186523438 330 c 128,-1,7
 723.940429688 173 723.940429688 173 618.815429688 81.5 c 128,-1,8
 513.69140625 -10 513.69140625 -10 369.69140625 -10 c 0,9,10
 226.69140625 -10 226.69140625 -10 163.815429688 81.5 c 128,-1,11
 100.940429688 173 100.940429688 173 137.186523438 330 c 128,-1,12
 173.432617188 487 173.432617188 487 278.557617188 578.5 c 128,-1,13
 383.681640625 670 383.681640625 670 526.681640625 670 c 0,4,5
505.2109375 577 m 0,14,15
 412.2109375 577 412.2109375 577 344.204101562 512 c 128,-1,16
 276.198242188 447 276.198242188 447 249.186523438 330 c 128,-1,17
 222.174804688 213 222.174804688 213 260.168945312 148 c 128,-1,18
 298.162109375 83 298.162109375 83 391.162109375 83 c 0,19,20
 485.162109375 83 485.162109375 83 553.168945312 148 c 128,-1,21
 621.174804688 213 621.174804688 213 648.186523438 330 c 128,-1,22
 675.198242188 447 675.198242188 447 637.204101562 512 c 128,-1,23
 599.2109375 577 599.2109375 577 505.2109375 577 c 0,14,15
EndSplineSet
Substitution2: "'c2sc' Capitals to Small Capitals lookup 11 subtable" ograve.sc
Substitution2: "'aalt' Access All Alternates lookup 0 subtable" ograve.sc
EndChar

StartChar: Oacute
Encoding: 211 211 149
Width: 745
GlyphClass: 2
Flags: W
LayerCount: 2
Fore
SplineSet
583.010742188 888 m 1,0,-1
 697.010742188 888 l 1,1,-1
 574.149414062 737 l 1,2,-1
 492.149414062 737 l 1,3,-1
 583.010742188 888 l 1,0,-1
526.681640625 670 m 0,4,5
 670.681640625 670 670.681640625 670 733.557617188 578.5 c 128,-1,6
 796.432617188 487 796.432617188 487 760.186523438 330 c 128,-1,7
 723.940429688 173 723.940429688 173 618.815429688 81.5 c 128,-1,8
 513.69140625 -10 513.69140625 -10 369.69140625 -10 c 0,9,10
 226.69140625 -10 226.69140625 -10 163.815429688 81.5 c 128,-1,11
 100.940429688 173 100.940429688 173 137.186523438 330 c 128,-1,12
 173.432617188 487 173.432617188 487 278.557617188 578.5 c 128,-1,13
 383.681640625 670 383.681640625 670 526.681640625 670 c 0,4,5
505.2109375 577 m 0,14,15
 412.2109375 577 412.2109375 577 344.204101562 512 c 128,-1,16
 276.198242188 447 276.198242188 447 249.186523438 330 c 128,-1,17
 222.174804688 213 222.174804688 213 260.168945312 148 c 128,-1,18
 298.162109375 83 298.162109375 83 391.162109375 83 c 0,19,20
 485.162109375 83 485.162109375 83 553.168945312 148 c 128,-1,21
 621.174804688 213 621.174804688 213 648.186523438 330 c 128,-1,22
 675.198242188 447 675.198242188 447 637.204101562 512 c 128,-1,23
 599.2109375 577 599.2109375 577 505.2109375 577 c 0,14,15
EndSplineSet
Substitution2: "'c2sc' Capitals to Small Capitals lookup 11 subtable" oacute.sc
Substitution2: "'aalt' Access All Alternates lookup 0 subtable" oacute.sc
EndChar

StartChar: Ocircumflex
Encoding: 212 212 150
Width: 745
GlyphClass: 2
Flags: W
LayerCount: 2
Fore
SplineSet
709.764648438 731 m 1,0,-1
 620.764648438 731 l 1,1,-1
 565.467773438 838 l 1,2,-1
 460.764648438 731 l 1,3,-1
 371.764648438 731 l 1,4,-1
 523.319335938 898 l 1,5,-1
 635.319335938 898 l 1,6,-1
 709.764648438 731 l 1,0,-1
526.681640625 670 m 0,7,8
 670.681640625 670 670.681640625 670 733.557617188 578.5 c 128,-1,9
 796.432617188 487 796.432617188 487 760.186523438 330 c 128,-1,10
 723.940429688 173 723.940429688 173 618.815429688 81.5 c 128,-1,11
 513.69140625 -10 513.69140625 -10 369.69140625 -10 c 0,12,13
 226.69140625 -10 226.69140625 -10 163.815429688 81.5 c 128,-1,14
 100.940429688 173 100.940429688 173 137.186523438 330 c 128,-1,15
 173.432617188 487 173.432617188 487 278.557617188 578.5 c 128,-1,16
 383.681640625 670 383.681640625 670 526.681640625 670 c 0,7,8
505.2109375 577 m 0,17,18
 412.2109375 577 412.2109375 577 344.204101562 512 c 128,-1,19
 276.198242188 447 276.198242188 447 249.186523438 330 c 128,-1,20
 222.174804688 213 222.174804688 213 260.168945312 148 c 128,-1,21
 298.162109375 83 298.162109375 83 391.162109375 83 c 0,22,23
 485.162109375 83 485.162109375 83 553.168945312 148 c 128,-1,24
 621.174804688 213 621.174804688 213 648.186523438 330 c 128,-1,25
 675.198242188 447 675.198242188 447 637.204101562 512 c 128,-1,26
 599.2109375 577 599.2109375 577 505.2109375 577 c 0,17,18
EndSplineSet
Substitution2: "'c2sc' Capitals to Small Capitals lookup 11 subtable" ocircumflex.sc
Substitution2: "'aalt' Access All Alternates lookup 0 subtable" ocircumflex.sc
EndChar

StartChar: Otilde
Encoding: 213 213 151
Width: 745
GlyphClass: 2
Flags: W
LayerCount: 2
Fore
SplineSet
760.471679688 877 m 1,0,1
 718.918945312 736 718.918945312 736 609.918945312 736 c 0,2,3
 583.918945312 736 583.918945312 736 564.727539062 746 c 128,-1,4
 545.536132812 756 545.536132812 756 536.421875 768.5 c 128,-1,5
 527.307617188 781 527.307617188 781 515.1171875 791 c 128,-1,6
 502.92578125 801 502.92578125 801 488.92578125 801 c 0,7,8
 452.92578125 801 452.92578125 801 428.688476562 735 c 1,9,-1
 355.688476562 735 l 1,10,11
 397.471679688 877 397.471679688 877 507.471679688 877 c 0,12,13
 539.471679688 877 539.471679688 877 560.662109375 860.5 c 128,-1,14
 581.852539062 844 581.852539062 844 596.159179688 828 c 128,-1,15
 610.46484375 812 610.46484375 812 626.46484375 812 c 0,16,17
 662.46484375 812 662.46484375 812 687.471679688 877 c 1,18,-1
 760.471679688 877 l 1,0,1
526.681640625 670 m 0,19,20
 670.681640625 670 670.681640625 670 733.557617188 578.5 c 128,-1,21
 796.432617188 487 796.432617188 487 760.186523438 330 c 128,-1,22
 723.940429688 173 723.940429688 173 618.815429688 81.5 c 128,-1,23
 513.69140625 -10 513.69140625 -10 369.69140625 -10 c 0,24,25
 226.69140625 -10 226.69140625 -10 163.815429688 81.5 c 128,-1,26
 100.940429688 173 100.940429688 173 137.186523438 330 c 128,-1,27
 173.432617188 487 173.432617188 487 278.557617188 578.5 c 128,-1,28
 383.681640625 670 383.681640625 670 526.681640625 670 c 0,19,20
505.2109375 577 m 0,29,30
 412.2109375 577 412.2109375 577 344.204101562 512 c 128,-1,31
 276.198242188 447 276.198242188 447 249.186523438 330 c 128,-1,32
 222.174804688 213 222.174804688 213 260.168945312 148 c 128,-1,33
 298.162109375 83 298.162109375 83 391.162109375 83 c 0,34,35
 485.162109375 83 485.162109375 83 553.168945312 148 c 128,-1,36
 621.174804688 213 621.174804688 213 648.186523438 330 c 128,-1,37
 675.198242188 447 675.198242188 447 637.204101562 512 c 128,-1,38
 599.2109375 577 599.2109375 577 505.2109375 577 c 0,29,30
EndSplineSet
Substitution2: "'c2sc' Capitals to Small Capitals lookup 11 subtable" otilde.sc
Substitution2: "'aalt' Access All Alternates lookup 0 subtable" otilde.sc
EndChar

StartChar: Odieresis
Encoding: 214 214 152
Width: 745
GlyphClass: 2
Flags: W
LayerCount: 2
Fore
SplineSet
469.546875 860 m 0,0,1
 499.546875 860 499.546875 860 513.622070312 843 c 128,-1,2
 527.697265625 826 527.697265625 826 521.001953125 797 c 128,-1,3
 514.306640625 768 514.306640625 768 492.381835938 751 c 128,-1,4
 470.45703125 734 470.45703125 734 440.45703125 734 c 0,5,6
 411.45703125 734 411.45703125 734 397.497070312 751.5 c 128,-1,7
 383.538085938 769 383.538085938 769 390.001953125 797 c 0,8,9
 396.697265625 826 396.697265625 826 418.622070312 843 c 128,-1,10
 440.546875 860 440.546875 860 469.546875 860 c 0,0,1
671.546875 860 m 128,-1,12
 701.546875 860 701.546875 860 715.622070312 843 c 128,-1,13
 729.697265625 826 729.697265625 826 723.001953125 797 c 128,-1,14
 716.306640625 768 716.306640625 768 694.381835938 751 c 128,-1,15
 672.45703125 734 672.45703125 734 642.45703125 734 c 128,-1,16
 612.45703125 734 612.45703125 734 598.881835938 751 c 128,-1,17
 585.306640625 768 585.306640625 768 592.001953125 797 c 128,-1,18
 598.697265625 826 598.697265625 826 620.122070312 843 c 128,-1,11
 641.546875 860 641.546875 860 671.546875 860 c 128,-1,12
526.681640625 670 m 0,19,20
 670.681640625 670 670.681640625 670 733.557617188 578.5 c 128,-1,21
 796.432617188 487 796.432617188 487 760.186523438 330 c 128,-1,22
 723.940429688 173 723.940429688 173 618.815429688 81.5 c 128,-1,23
 513.69140625 -10 513.69140625 -10 369.69140625 -10 c 0,24,25
 226.69140625 -10 226.69140625 -10 163.815429688 81.5 c 128,-1,26
 100.940429688 173 100.940429688 173 137.186523438 330 c 128,-1,27
 173.432617188 487 173.432617188 487 278.557617188 578.5 c 128,-1,28
 383.681640625 670 383.681640625 670 526.681640625 670 c 0,19,20
505.2109375 577 m 0,29,30
 412.2109375 577 412.2109375 577 344.204101562 512 c 128,-1,31
 276.198242188 447 276.198242188 447 249.186523438 330 c 128,-1,32
 222.174804688 213 222.174804688 213 260.168945312 148 c 128,-1,33
 298.162109375 83 298.162109375 83 391.162109375 83 c 0,34,35
 485.162109375 83 485.162109375 83 553.168945312 148 c 128,-1,36
 621.174804688 213 621.174804688 213 648.186523438 330 c 128,-1,37
 675.198242188 447 675.198242188 447 637.204101562 512 c 128,-1,38
 599.2109375 577 599.2109375 577 505.2109375 577 c 0,29,30
EndSplineSet
Substitution2: "'titl' Titling lookup 41 subtable" Odieresis.titl
Substitution2: "'c2sc' Capitals to Small Capitals lookup 11 subtable" odieresis.sc
AlternateSubs2: "'aalt' Access All Alternates lookup 1 subtable" odieresis.sc Odieresis.titl
EndChar

StartChar: multiply
Encoding: 215 215 153
Width: 604
GlyphClass: 2
Flags: W
LayerCount: 2
Fore
SplineSet
641.740234375 484 m 1,0,-1
 439.877929688 320 l 1,1,-1
 566.015625 156 l 1,2,-1
 487.008789062 91 l 1,3,-1
 360.87109375 255 l 1,4,-1
 159.008789062 91 l 1,5,-1
 109.015625 156 l 1,6,-1
 310.877929688 320 l 1,7,-1
 184.740234375 484 l 1,8,-1
 264.747070312 549 l 1,9,-1
 390.883789062 385 l 1,10,-1
 592.747070312 549 l 1,11,-1
 641.740234375 484 l 1,0,-1
EndSplineSet
EndChar

StartChar: Oslash
Encoding: 216 216 154
Width: 745
GlyphClass: 2
Flags: W
LayerCount: 2
Fore
SplineSet
729.827148438 584 m 1,0,1
 797.818359375 493 797.818359375 493 760.186523438 330 c 0,2,3
 723.940429688 173 723.940429688 173 618.815429688 81.5 c 128,-1,4
 513.69140625 -10 513.69140625 -10 369.69140625 -10 c 0,5,6
 272.69140625 -10 272.69140625 -10 211.618164062 33 c 1,7,-1
 148.150390625 -34 l 1,8,-1
 73.150390625 -34 l 1,9,-1
 171.391601562 71 l 1,10,11
 98.6318359375 163 98.6318359375 163 137.186523438 330 c 0,12,13
 173.432617188 487 173.432617188 487 278.557617188 578.5 c 128,-1,14
 383.681640625 670 383.681640625 670 526.681640625 670 c 0,15,16
 628.681640625 670 628.681640625 670 690.831054688 623 c 1,17,-1
 746.452148438 682 l 1,18,-1
 821.452148438 682 l 1,19,-1
 729.827148438 584 l 1,0,1
505.2109375 577 m 0,20,21
 412.2109375 577 412.2109375 577 344.204101562 512 c 128,-1,22
 276.198242188 447 276.198242188 447 249.186523438 330 c 0,23,24
 224.252929688 222 224.252929688 222 254.24609375 157 c 1,25,-1
 613.130859375 542 l 1,26,27
 574.2109375 577 574.2109375 577 505.2109375 577 c 0,20,21
391.162109375 83 m 0,28,29
 485.162109375 83 485.162109375 83 553.168945312 148 c 128,-1,30
 621.174804688 213 621.174804688 213 648.186523438 330 c 0,31,32
 672.197265625 434 672.197265625 434 645.510742188 496 c 1,33,-1
 290.087890625 113 l 1,34,35
 328.162109375 83 328.162109375 83 391.162109375 83 c 0,28,29
EndSplineSet
Substitution2: "'c2sc' Capitals to Small Capitals lookup 11 subtable" oslash.sc
Substitution2: "'aalt' Access All Alternates lookup 0 subtable" oslash.sc
EndChar

StartChar: Ugrave
Encoding: 217 217 155
Width: 718
GlyphClass: 2
Flags: W
LayerCount: 2
Fore
SplineSet
547.010742188 888 m 1,0,-1
 568.149414062 737 l 1,1,-1
 486.149414062 737 l 1,2,-1
 433.010742188 888 l 1,3,-1
 547.010742188 888 l 1,0,-1
781.373046875 660 m 1,4,-1
 687.409179688 253 l 2,5,6
 657.396484375 123 657.396484375 123 573.043945312 56.5 c 128,-1,7
 488.69140625 -10 488.69140625 -10 356.69140625 -10 c 128,-1,8
 224.69140625 -10 224.69140625 -10 171.043945312 56.5 c 128,-1,9
 117.396484375 123 117.396484375 123 147.409179688 253 c 2,10,-1
 241.373046875 660 l 1,11,-1
 349.373046875 660 l 1,12,-1
 258.411132812 266 l 2,13,14
 236.708984375 172 236.708984375 172 265.935546875 127.5 c 128,-1,15
 295.162109375 83 295.162109375 83 378.162109375 83 c 128,-1,16
 461.162109375 83 461.162109375 83 510.935546875 127.5 c 128,-1,17
 560.708984375 172 560.708984375 172 582.411132812 266 c 2,18,-1
 673.373046875 660 l 1,19,-1
 781.373046875 660 l 1,4,-1
EndSplineSet
Substitution2: "'c2sc' Capitals to Small Capitals lookup 11 subtable" ugrave.sc
Substitution2: "'aalt' Access All Alternates lookup 0 subtable" ugrave.sc
EndChar

StartChar: Uacute
Encoding: 218 218 156
Width: 718
GlyphClass: 2
Flags: W
LayerCount: 2
Fore
SplineSet
569.010742188 888 m 1,0,-1
 683.010742188 888 l 1,1,-1
 560.149414062 737 l 1,2,-1
 478.149414062 737 l 1,3,-1
 569.010742188 888 l 1,0,-1
781.373046875 660 m 1,4,-1
 687.409179688 253 l 2,5,6
 657.396484375 123 657.396484375 123 573.043945312 56.5 c 128,-1,7
 488.69140625 -10 488.69140625 -10 356.69140625 -10 c 128,-1,8
 224.69140625 -10 224.69140625 -10 171.043945312 56.5 c 128,-1,9
 117.396484375 123 117.396484375 123 147.409179688 253 c 2,10,-1
 241.373046875 660 l 1,11,-1
 349.373046875 660 l 1,12,-1
 258.411132812 266 l 2,13,14
 236.708984375 172 236.708984375 172 265.935546875 127.5 c 128,-1,15
 295.162109375 83 295.162109375 83 378.162109375 83 c 128,-1,16
 461.162109375 83 461.162109375 83 510.935546875 127.5 c 128,-1,17
 560.708984375 172 560.708984375 172 582.411132812 266 c 2,18,-1
 673.373046875 660 l 1,19,-1
 781.373046875 660 l 1,4,-1
EndSplineSet
Substitution2: "'c2sc' Capitals to Small Capitals lookup 11 subtable" uacute.sc
Substitution2: "'aalt' Access All Alternates lookup 0 subtable" uacute.sc
EndChar

StartChar: Ucircumflex
Encoding: 219 219 157
Width: 718
GlyphClass: 2
Flags: W
LayerCount: 2
Fore
SplineSet
696.764648438 731 m 1,0,-1
 607.764648438 731 l 1,1,-1
 552.467773438 838 l 1,2,-1
 447.764648438 731 l 1,3,-1
 358.764648438 731 l 1,4,-1
 510.319335938 898 l 1,5,-1
 622.319335938 898 l 1,6,-1
 696.764648438 731 l 1,0,-1
781.373046875 660 m 1,7,-1
 687.409179688 253 l 2,8,9
 657.396484375 123 657.396484375 123 573.043945312 56.5 c 128,-1,10
 488.69140625 -10 488.69140625 -10 356.69140625 -10 c 128,-1,11
 224.69140625 -10 224.69140625 -10 171.043945312 56.5 c 128,-1,12
 117.396484375 123 117.396484375 123 147.409179688 253 c 2,13,-1
 241.373046875 660 l 1,14,-1
 349.373046875 660 l 1,15,-1
 258.411132812 266 l 2,16,17
 236.708984375 172 236.708984375 172 265.935546875 127.5 c 128,-1,18
 295.162109375 83 295.162109375 83 378.162109375 83 c 128,-1,19
 461.162109375 83 461.162109375 83 510.935546875 127.5 c 128,-1,20
 560.708984375 172 560.708984375 172 582.411132812 266 c 2,21,-1
 673.373046875 660 l 1,22,-1
 781.373046875 660 l 1,7,-1
EndSplineSet
Substitution2: "'c2sc' Capitals to Small Capitals lookup 11 subtable" ucircumflex.sc
Substitution2: "'aalt' Access All Alternates lookup 0 subtable" ucircumflex.sc
EndChar

StartChar: Udieresis
Encoding: 220 220 158
Width: 718
GlyphClass: 2
Flags: W
LayerCount: 2
Fore
SplineSet
455.546875 860 m 0,0,1
 485.546875 860 485.546875 860 499.622070312 843 c 128,-1,2
 513.697265625 826 513.697265625 826 507.001953125 797 c 128,-1,3
 500.306640625 768 500.306640625 768 478.381835938 751 c 128,-1,4
 456.45703125 734 456.45703125 734 426.45703125 734 c 0,5,6
 397.45703125 734 397.45703125 734 383.497070312 751.5 c 128,-1,7
 369.538085938 769 369.538085938 769 376.001953125 797 c 0,8,9
 382.697265625 826 382.697265625 826 404.622070312 843 c 128,-1,10
 426.546875 860 426.546875 860 455.546875 860 c 0,0,1
657.546875 860 m 128,-1,12
 687.546875 860 687.546875 860 701.622070312 843 c 128,-1,13
 715.697265625 826 715.697265625 826 709.001953125 797 c 128,-1,14
 702.306640625 768 702.306640625 768 680.381835938 751 c 128,-1,15
 658.45703125 734 658.45703125 734 628.45703125 734 c 128,-1,16
 598.45703125 734 598.45703125 734 584.881835938 751 c 128,-1,17
 571.306640625 768 571.306640625 768 578.001953125 797 c 128,-1,18
 584.697265625 826 584.697265625 826 606.122070312 843 c 128,-1,11
 627.546875 860 627.546875 860 657.546875 860 c 128,-1,12
781.373046875 660 m 1,19,-1
 687.409179688 253 l 2,20,21
 657.396484375 123 657.396484375 123 573.043945312 56.5 c 128,-1,22
 488.69140625 -10 488.69140625 -10 356.69140625 -10 c 128,-1,23
 224.69140625 -10 224.69140625 -10 171.043945312 56.5 c 128,-1,24
 117.396484375 123 117.396484375 123 147.409179688 253 c 2,25,-1
 241.373046875 660 l 1,26,-1
 349.373046875 660 l 1,27,-1
 258.411132812 266 l 2,28,29
 236.708984375 172 236.708984375 172 265.935546875 127.5 c 128,-1,30
 295.162109375 83 295.162109375 83 378.162109375 83 c 128,-1,31
 461.162109375 83 461.162109375 83 510.935546875 127.5 c 128,-1,32
 560.708984375 172 560.708984375 172 582.411132812 266 c 2,33,-1
 673.373046875 660 l 1,34,-1
 781.373046875 660 l 1,19,-1
EndSplineSet
Substitution2: "'titl' Titling lookup 41 subtable" Udieresis.titl
Substitution2: "'c2sc' Capitals to Small Capitals lookup 11 subtable" udieresis.sc
AlternateSubs2: "'aalt' Access All Alternates lookup 1 subtable" udieresis.sc Udieresis.titl
EndChar

StartChar: Yacute
Encoding: 221 221 159
Width: 597
GlyphClass: 2
Flags: W
LayerCount: 2
Fore
SplineSet
509.010742188 888 m 1,0,-1
 623.010742188 888 l 1,1,-1
 500.149414062 737 l 1,2,-1
 418.149414062 737 l 1,3,-1
 509.010742188 888 l 1,0,-1
740.373046875 660 m 1,4,-1
 410.409179688 253 l 1,5,-1
 352 0 l 1,6,-1
 245 0 l 1,7,-1
 303.409179688 253 l 1,8,-1
 162.373046875 660 l 1,9,-1
 281.373046875 660 l 1,10,-1
 350.428710938 448 l 1,11,-1
 379.573242188 349 l 1,12,-1
 454.428710938 448 l 1,13,-1
 620.373046875 660 l 1,14,-1
 740.373046875 660 l 1,4,-1
EndSplineSet
Substitution2: "'c2sc' Capitals to Small Capitals lookup 11 subtable" yacute.sc
Substitution2: "'aalt' Access All Alternates lookup 0 subtable" yacute.sc
EndChar

StartChar: Thorn
Encoding: 222 222 160
Width: 639
GlyphClass: 2
Flags: W
LayerCount: 2
Fore
SplineSet
465.28515625 547 m 2,0,1
 588.28515625 547 588.28515625 547 639.318359375 493 c 128,-1,2
 690.3515625 439 690.3515625 439 666.802734375 337 c 128,-1,3
 643.25390625 235 643.25390625 235 567.287109375 181 c 128,-1,4
 491.3203125 127 491.3203125 127 368.3203125 127 c 2,5,-1
 234.3203125 127 l 1,6,-1
 205 0 l 1,7,-1
 98 0 l 1,8,-1
 250.373046875 660 l 1,9,-1
 357.373046875 660 l 1,10,-1
 331.28515625 547 l 1,11,-1
 465.28515625 547 l 2,0,1
388.329101562 218 m 2,12,13
 459.329101562 218 459.329101562 218 501.139648438 247.5 c 128,-1,14
 542.950195312 277 542.950195312 277 555.802734375 337 c 0,15,16
 570.654296875 397 570.654296875 397 542.46484375 426.5 c 128,-1,17
 514.276367188 456 514.276367188 456 443.276367188 456 c 2,18,-1
 310.276367188 456 l 1,19,-1
 255.329101562 218 l 1,20,-1
 388.329101562 218 l 2,12,13
EndSplineSet
Substitution2: "'c2sc' Capitals to Small Capitals lookup 11 subtable" thorn.sc
Substitution2: "'aalt' Access All Alternates lookup 0 subtable" thorn.sc
EndChar

StartChar: germandbls
Encoding: 223 223 161
Width: 628
GlyphClass: 2
Flags: W
LayerCount: 2
Fore
SplineSet
479.422851562 383 m 1,0,1
 571.422851562 383 571.422851562 383 604.87890625 326.5 c 128,-1,2
 638.333984375 270 638.333984375 270 620.557617188 193 c 0,3,4
 601.165039062 109 601.165039062 109 529.927734375 49.5 c 128,-1,5
 458.69140625 -10 458.69140625 -10 352.69140625 -10 c 0,6,7
 279.69140625 -10 279.69140625 -10 250.309570312 23 c 1,8,-1
 292.548828125 102 l 1,9,10
 315.0078125 78 315.0078125 78 367.0078125 78 c 0,11,12
 426.0078125 78 426.0078125 78 466.587890625 113 c 128,-1,13
 507.168945312 148 507.168945312 148 520.55859375 206 c 0,14,15
 534.873046875 268 534.873046875 268 502.760742188 300 c 128,-1,16
 470.6484375 332 470.6484375 332 395.6484375 332 c 2,17,-1
 353.6484375 332 l 1,18,-1
 379.1953125 421 l 1,19,-1
 416.1953125 421 l 2,20,21
 475.1953125 421 475.1953125 421 516.467773438 452.5 c 128,-1,22
 557.740234375 484 557.740234375 484 569.283203125 534 c 0,23,24
 593.755859375 640 593.755859375 640 472.755859375 640 c 0,25,26
 397.755859375 640 397.755859375 640 358.059570312 598 c 128,-1,27
 318.362304688 556 318.362304688 556 297.353515625 465 c 2,28,-1
 190 0 l 1,29,-1
 83 0 l 1,30,-1
 195.202148438 486 l 2,31,32
 251.534179688 730 251.534179688 730 499.534179688 730 c 0,33,34
 609.534179688 730 609.534179688 730 652.489257812 673.5 c 128,-1,35
 695.4453125 617 695.4453125 617 677.899414062 541 c 0,36,37
 664.278320312 482 664.278320312 482 611.081054688 433.5 c 128,-1,38
 557.883789062 385 557.883789062 385 479.883789062 385 c 1,39,-1
 479.422851562 383 l 1,0,1
EndSplineSet
Substitution2: "Single Substitution lookup 57 subtable" germandbls.calt
Substitution2: "'smcp' Lowercase to Small Capitals lookup 12 subtable" germandbls.sc
AlternateSubs2: "'aalt' Access All Alternates lookup 1 subtable" germandbls.sc germandbls.calt
EndChar

StartChar: agrave
Encoding: 224 224 162
Width: 570
GlyphClass: 2
Flags: W
LayerCount: 2
Fore
SplineSet
458.44140625 578 m 1,0,-1
 376.44140625 578 l 1,1,-1
 316.227539062 746 l 1,2,-1
 424.227539062 746 l 1,3,-1
 458.44140625 578 l 1,0,-1
531.161132812 70 m 0,4,5
 553.161132812 70 553.161132812 70 569.083984375 74 c 1,6,-1
 545.461914062 2 l 1,7,8
 515.69140625 -10 515.69140625 -10 480.69140625 -10 c 0,9,10
 393.69140625 -10 393.69140625 -10 395.775390625 64 c 1,11,12
 364.6953125 29 364.6953125 29 315.193359375 9.5 c 128,-1,13
 265.69140625 -10 265.69140625 -10 209.69140625 -10 c 0,14,15
 136.69140625 -10 136.69140625 -10 99.541015625 24 c 128,-1,16
 62.390625 58 62.390625 58 76.9345703125 121 c 0,17,18
 90.556640625 180 90.556640625 180 148.90625 220.5 c 128,-1,19
 207.256835938 261 207.256835938 261 308.181640625 278 c 2,20,-1
 440.260742188 300 l 1,21,-1
 446.494140625 327 l 2,22,23
 457.114257812 373 457.114257812 373 436.231445312 399.5 c 128,-1,24
 415.349609375 426 415.349609375 426 367.349609375 426 c 0,25,26
 268.349609375 426 268.349609375 426 217.571289062 336 c 1,27,-1
 144.729492188 380 l 1,28,29
 176.58203125 440 176.58203125 440 240.162109375 475 c 128,-1,30
 303.743164062 510 303.743164062 510 384.743164062 510 c 0,31,32
 481.743164062 510 481.743164062 510 528.353515625 465 c 128,-1,33
 574.96484375 420 574.96484375 420 554.87890625 333 c 2,34,-1
 502.703125 107 l 2,35,36
 494.161132812 70 494.161132812 70 531.161132812 70 c 0,4,5
251.391601562 71 m 0,37,38
 305.391601562 71 305.391601562 71 352.39453125 97 c 128,-1,39
 399.396484375 123 399.396484375 123 409.32421875 166 c 2,40,-1
 423.17578125 226 l 1,41,-1
 309.096679688 204 l 2,42,43
 202.479492188 184 202.479492188 184 189.55078125 128 c 0,44,45
 176.391601562 71 176.391601562 71 251.391601562 71 c 0,37,38
EndSplineSet
Substitution2: "'smcp' Lowercase to Small Capitals lookup 12 subtable" agrave.sc
Substitution2: "'aalt' Access All Alternates lookup 0 subtable" agrave.sc
EndChar

StartChar: aacute
Encoding: 225 225 163
Width: 570
GlyphClass: 2
Flags: W
LayerCount: 2
Fore
SplineSet
572.227539062 746 m 1,0,-1
 434.44140625 578 l 1,1,-1
 352.44140625 578 l 1,2,-1
 464.227539062 746 l 1,3,-1
 572.227539062 746 l 1,0,-1
531.161132812 70 m 0,4,5
 553.161132812 70 553.161132812 70 569.083984375 74 c 1,6,-1
 545.461914062 2 l 1,7,8
 515.69140625 -10 515.69140625 -10 480.69140625 -10 c 0,9,10
 393.69140625 -10 393.69140625 -10 395.775390625 64 c 1,11,12
 364.6953125 29 364.6953125 29 315.193359375 9.5 c 128,-1,13
 265.69140625 -10 265.69140625 -10 209.69140625 -10 c 0,14,15
 136.69140625 -10 136.69140625 -10 99.541015625 24 c 128,-1,16
 62.390625 58 62.390625 58 76.9345703125 121 c 0,17,18
 90.556640625 180 90.556640625 180 148.90625 220.5 c 128,-1,19
 207.256835938 261 207.256835938 261 308.181640625 278 c 2,20,-1
 440.260742188 300 l 1,21,-1
 446.494140625 327 l 2,22,23
 457.114257812 373 457.114257812 373 436.231445312 399.5 c 128,-1,24
 415.349609375 426 415.349609375 426 367.349609375 426 c 0,25,26
 268.349609375 426 268.349609375 426 217.571289062 336 c 1,27,-1
 144.729492188 380 l 1,28,29
 176.58203125 440 176.58203125 440 240.162109375 475 c 128,-1,30
 303.743164062 510 303.743164062 510 384.743164062 510 c 0,31,32
 481.743164062 510 481.743164062 510 528.353515625 465 c 128,-1,33
 574.96484375 420 574.96484375 420 554.87890625 333 c 2,34,-1
 502.703125 107 l 2,35,36
 494.161132812 70 494.161132812 70 531.161132812 70 c 0,4,5
251.391601562 71 m 0,37,38
 305.391601562 71 305.391601562 71 352.39453125 97 c 128,-1,39
 399.396484375 123 399.396484375 123 409.32421875 166 c 2,40,-1
 423.17578125 226 l 1,41,-1
 309.096679688 204 l 2,42,43
 202.479492188 184 202.479492188 184 189.55078125 128 c 0,44,45
 176.391601562 71 176.391601562 71 251.391601562 71 c 0,37,38
EndSplineSet
Substitution2: "'smcp' Lowercase to Small Capitals lookup 12 subtable" aacute.sc
Substitution2: "'aalt' Access All Alternates lookup 0 subtable" aacute.sc
EndChar

StartChar: acircumflex
Encoding: 226 226 164
Width: 570
GlyphClass: 2
Flags: W
LayerCount: 2
Fore
SplineSet
431.60546875 674 m 1,0,-1
 327.826171875 571 l 1,1,-1
 239.826171875 571 l 1,2,-1
 389.611328125 739 l 1,3,-1
 503.611328125 739 l 1,4,-1
 575.826171875 571 l 1,5,-1
 487.826171875 571 l 1,6,-1
 431.60546875 674 l 1,0,-1
531.161132812 70 m 0,7,8
 553.161132812 70 553.161132812 70 569.083984375 74 c 1,9,-1
 545.461914062 2 l 1,10,11
 515.69140625 -10 515.69140625 -10 480.69140625 -10 c 0,12,13
 393.69140625 -10 393.69140625 -10 395.775390625 64 c 1,14,15
 364.6953125 29 364.6953125 29 315.193359375 9.5 c 128,-1,16
 265.69140625 -10 265.69140625 -10 209.69140625 -10 c 0,17,18
 136.69140625 -10 136.69140625 -10 99.541015625 24 c 128,-1,19
 62.390625 58 62.390625 58 76.9345703125 121 c 0,20,21
 90.556640625 180 90.556640625 180 148.90625 220.5 c 128,-1,22
 207.256835938 261 207.256835938 261 308.181640625 278 c 2,23,-1
 440.260742188 300 l 1,24,-1
 446.494140625 327 l 2,25,26
 457.114257812 373 457.114257812 373 436.231445312 399.5 c 128,-1,27
 415.349609375 426 415.349609375 426 367.349609375 426 c 0,28,29
 268.349609375 426 268.349609375 426 217.571289062 336 c 1,30,-1
 144.729492188 380 l 1,31,32
 176.58203125 440 176.58203125 440 240.162109375 475 c 128,-1,33
 303.743164062 510 303.743164062 510 384.743164062 510 c 0,34,35
 481.743164062 510 481.743164062 510 528.353515625 465 c 128,-1,36
 574.96484375 420 574.96484375 420 554.87890625 333 c 2,37,-1
 502.703125 107 l 2,38,39
 494.161132812 70 494.161132812 70 531.161132812 70 c 0,7,8
251.391601562 71 m 0,40,41
 305.391601562 71 305.391601562 71 352.39453125 97 c 128,-1,42
 399.396484375 123 399.396484375 123 409.32421875 166 c 2,43,-1
 423.17578125 226 l 1,44,-1
 309.096679688 204 l 2,45,46
 202.479492188 184 202.479492188 184 189.55078125 128 c 0,47,48
 176.391601562 71 176.391601562 71 251.391601562 71 c 0,40,41
EndSplineSet
Substitution2: "'smcp' Lowercase to Small Capitals lookup 12 subtable" acircumflex.sc
Substitution2: "'aalt' Access All Alternates lookup 0 subtable" acircumflex.sc
EndChar

